<svg width="486" height="391" viewBox="0 0 486 391" fill="none" xmlns="http://www.w3.org/2000/svg">
<g clip-path="url(#clip0_985_17994)">
<path d="M306.453 19.3081H445.713V211.371H306.453V19.3081Z" fill="#ECEFF4"/>
<path d="M314.125 24.1064H439.766V205.571H314.125V24.1064Z" fill="#FAFAFA"/>
<path d="M311.81 76.1235H440.355V78.9888H311.81V76.1235Z" fill="#ECEFF4"/>
<path d="M378.379 76.1232V206.376H375.514V76.1232H378.379Z" fill="#ECEFF4"/>
<path d="M284.295 1.2334H467.153V4.79538H284.295V1.2334Z" fill="#ECEFF4"/>
<path d="M467.154 13.4697C467.154 13.4697 465.486 205.532 467.105 205.532C468.724 205.532 430.994 205.532 430.994 205.532V13.4697H467.154Z" fill="#A0AFC7" fill-opacity="0.1"/>
<path d="M458.116 17.601C458.254 17.601 458.372 14.0194 458.372 9.60373C458.372 5.18805 458.254 1.60645 458.116 1.60645C457.979 1.60645 457.861 5.18805 457.861 9.60373C457.861 14.0194 457.979 17.601 458.116 17.601Z" fill="#ECEFF4"/>
<path d="M462.984 17.601C463.121 17.601 463.239 14.0194 463.239 9.60373C463.239 5.18805 463.121 1.60645 462.984 1.60645C462.846 1.60645 462.729 5.18805 462.729 9.60373C462.729 14.0194 462.846 17.601 462.984 17.601Z" fill="#ECEFF4"/>
<path d="M452.513 17.601C452.65 17.601 452.768 14.0194 452.768 9.60373C452.768 5.18805 452.65 1.60645 452.513 1.60645C452.376 1.60645 452.258 5.18805 452.258 9.60373C452.258 14.0194 452.376 17.601 452.513 17.601Z" fill="#ECEFF4"/>
<path d="M446.92 17.601C447.058 17.601 447.175 14.0194 447.175 9.60373C447.175 5.18805 447.058 1.60645 446.92 1.60645C446.783 1.60645 446.665 5.18805 446.665 9.60373C446.665 14.0194 446.783 17.601 446.92 17.601Z" fill="#ECEFF4"/>
<path d="M441.317 17.601C441.455 17.601 441.572 14.0194 441.572 9.60373C441.572 5.18805 441.455 1.60645 441.317 1.60645C441.18 1.60645 441.062 5.18805 441.062 9.60373C441.062 14.0194 441.18 17.601 441.317 17.601Z" fill="#ECEFF4"/>
<path d="M435.94 17.601C436.077 17.601 436.195 14.0194 436.195 9.60373C436.195 5.18805 436.077 1.60645 435.94 1.60645C435.802 1.60645 435.685 5.18805 435.685 9.60373C435.685 14.0194 435.802 17.601 435.94 17.601Z" fill="#ECEFF4"/>
<path d="M321.662 13.4697C321.662 13.4697 319.994 205.532 321.613 205.532C323.232 205.532 285.503 205.532 285.503 205.532V13.4697H321.662Z" fill="#A0AFC7" fill-opacity="0.1"/>
<path d="M312.615 17.601C312.752 17.601 312.87 14.0194 312.87 9.60373C312.87 5.18805 312.752 1.60645 312.615 1.60645C312.478 1.60645 312.36 5.18805 312.36 9.60373C312.36 14.0194 312.478 17.601 312.615 17.601Z" fill="#ECEFF4"/>
<path d="M317.492 17.601C317.63 17.601 317.748 14.0194 317.748 9.60373C317.748 5.18805 317.63 1.60645 317.492 1.60645C317.355 1.60645 317.237 5.18805 317.237 9.60373C317.237 14.0194 317.355 17.601 317.492 17.601Z" fill="#ECEFF4"/>
<path d="M307.022 17.601C307.159 17.601 307.277 14.0194 307.277 9.60373C307.277 5.18805 307.159 1.60645 307.022 1.60645C306.884 1.60645 306.767 5.18805 306.767 9.60373C306.767 14.0194 306.884 17.601 307.022 17.601Z" fill="#ECEFF4"/>
<path d="M301.419 17.601C301.556 17.601 301.674 14.0194 301.674 9.60373C301.674 5.18805 301.556 1.60645 301.419 1.60645C301.281 1.60645 301.164 5.18805 301.164 9.60373C301.164 14.0194 301.281 17.601 301.419 17.601Z" fill="#ECEFF4"/>
<path d="M295.826 17.601C295.964 17.601 296.082 14.0194 296.082 9.60373C296.082 5.18805 295.964 1.60645 295.826 1.60645C295.689 1.60645 295.571 5.18805 295.571 9.60373C295.571 14.0194 295.689 17.601 295.826 17.601Z" fill="#ECEFF4"/>
<path d="M290.439 17.601C290.576 17.601 290.694 14.0194 290.694 9.60373C290.694 5.18805 290.576 1.60645 290.439 1.60645C290.301 1.60645 290.184 5.18805 290.184 9.60373C290.184 14.0194 290.301 17.601 290.439 17.601Z" fill="#ECEFF4"/>
<path d="M356.971 354.205V388.958H407.794H463.844V354.205H356.971Z" fill="#A0AFC7" fill-opacity="0.1"/>
<path d="M352.49 344.484V354.204H467.581V344.484H407.794H352.49Z" fill="#A0AFC7" fill-opacity="0.1"/>
<path d="M410.029 388.958H463.844V354.204H467.581V344.484H407.794V353.306L410.029 388.958Z" fill="#ECEFF4"/>
<path d="M393.593 359.81H371.918V365.036H393.593V359.81Z" fill="#ECEFF4"/>
<path d="M396.963 371.575H369.127V382.62H396.963V371.575Z" fill="#FAFAFA"/>
<path d="M384.133 306.373L383.979 293.307L429.753 297.232L431.184 310.157L384.133 306.373Z" fill="#A0AFC7" fill-opacity="0.1"/>
<path d="M394.003 299.255L393.802 301.6L422.432 304.049L422.633 301.704L394.003 299.255Z" fill="#ECEFF4"/>
<path d="M378.67 293.969L378.658 280.902L424.384 285.313L425.555 296.984L378.67 293.969Z" fill="#ECEFF4"/>
<path d="M378.657 282.688L378.634 291.497L423.202 294.785L422.457 286.649L378.657 282.688Z" fill="white"/>
<path d="M419.82 290.043C419.82 290.043 419.24 290.066 418.2 289.995C417.041 289.901 415.575 289.794 413.813 289.652C410.111 289.333 405.015 288.848 399.386 288.281C393.758 287.713 388.661 287.157 384.972 286.732C383.222 286.519 381.756 286.33 380.609 286.188C379.58 286.046 379.012 285.951 379.012 285.904C379.012 285.857 379.592 285.88 380.62 285.951C381.779 286.046 383.245 286.152 384.996 286.294C388.697 286.614 393.793 287.098 399.434 287.666C405.062 288.234 410.171 288.789 413.848 289.215C415.598 289.428 417.064 289.617 418.211 289.759C419.24 289.901 419.808 289.995 419.808 290.043H419.82Z" fill="#ECEFF4"/>
<path d="M419.725 291.143C419.725 291.143 419.146 291.19 418.093 291.143C416.935 291.084 415.445 291.013 413.671 290.93C409.934 290.729 404.79 290.398 399.091 290.008C393.403 289.617 388.248 289.215 384.523 288.908C382.749 288.742 381.271 288.612 380.112 288.506C379.071 288.399 378.504 288.317 378.504 288.269C378.504 288.222 379.083 288.222 380.136 288.269C381.295 288.328 382.784 288.399 384.558 288.482C388.295 288.683 393.439 289.014 399.138 289.405C404.826 289.795 409.97 290.197 413.695 290.504C415.468 290.67 416.946 290.8 418.105 290.906C419.146 291.013 419.713 291.096 419.713 291.143H419.725Z" fill="#ECEFF4"/>
<path d="M384.653 318.422L384.487 305.356L430.273 309.234L431.574 320.894L384.653 318.422Z" fill="#ECEFF4"/>
<path d="M389.702 318.694C389.537 318.694 389.276 315.821 389.146 312.262C389.004 308.702 389.028 305.817 389.205 305.805C389.371 305.805 389.631 308.679 389.761 312.238C389.903 315.797 389.88 318.694 389.702 318.694Z" fill="#A0AFC7" fill-opacity="0.1"/>
<path d="M391.429 305.947C391.594 305.947 391.795 308.821 391.878 312.368C391.961 315.916 391.878 318.801 391.712 318.801C391.547 318.801 391.346 315.927 391.263 312.38C391.18 308.833 391.263 305.947 391.429 305.947Z" fill="#A0AFC7" fill-opacity="0.1"/>
<path d="M395.591 311.694C403.573 312.569 412.95 313.078 421.061 313.799L395.591 311.694Z" fill="white"/>
<path d="M421.062 313.799C421.062 313.882 419.619 313.835 417.313 313.705C415.007 313.574 411.815 313.373 408.291 313.113C404.767 312.853 401.586 312.558 399.28 312.286C396.986 312.014 395.567 311.777 395.579 311.694C395.579 311.612 397.022 311.694 399.328 311.848C401.823 312.025 404.909 312.25 408.338 312.498C411.862 312.759 415.043 313.031 417.349 313.267C419.655 313.504 421.074 313.716 421.062 313.799Z" fill="#A0AFC7" fill-opacity="0.1"/>
<path d="M424.408 320.516C424.242 320.516 423.97 317.914 423.817 314.686C423.663 311.458 423.663 308.833 423.84 308.821C424.006 308.821 424.278 311.422 424.431 314.65C424.585 317.879 424.585 320.504 424.408 320.516Z" fill="#A0AFC7" fill-opacity="0.1"/>
<path d="M427.234 320.669C427.068 320.681 426.666 318.08 426.347 314.84C426.028 311.6 425.91 308.974 426.075 308.951C426.241 308.927 426.643 311.54 426.962 314.78C427.281 318.009 427.4 320.646 427.234 320.669Z" fill="#A0AFC7" fill-opacity="0.1"/>
<path d="M402.378 314.626C407.428 314.969 411.271 315.218 415.291 315.312L402.378 314.626Z" fill="white"/>
<path d="M415.291 315.312C415.291 315.478 412.394 315.466 408.823 315.277C405.252 315.088 402.367 314.792 402.378 314.627C402.39 314.461 405.287 314.473 408.847 314.662C412.406 314.851 415.291 315.147 415.291 315.312Z" fill="#A0AFC7" fill-opacity="0.1"/>
<path d="M387.727 343.928L386.864 330.897L432.792 332.352L434.707 343.928H387.727Z" fill="#ECEFF4"/>
<path d="M389.549 342.296L434.235 341.658L432.993 333.546L388.709 332.718L389.549 342.296Z" fill="#FAFAFA"/>
<path d="M388.981 331.158L388.555 318.091L434.4 321.083L435.925 332.719L388.981 331.158Z" fill="#A0AFC7" fill-opacity="0.1"/>
<path d="M398.694 323.807L398.541 326.155L427.215 328.019L427.367 325.671L398.694 323.807Z" fill="#ECEFF4"/>
<path d="M433.442 336.881C433.442 336.881 432.815 336.964 431.692 337.011C430.45 337.046 428.842 337.082 426.915 337.129C422.882 337.2 417.301 337.259 411.14 337.283C404.98 337.307 399.398 337.283 395.366 337.259C393.439 337.224 391.831 337.2 390.589 337.177C389.454 337.141 388.839 337.106 388.839 337.058C388.839 337.011 389.466 336.976 390.589 336.928C391.831 336.893 393.439 336.857 395.366 336.81C399.398 336.739 404.98 336.68 411.14 336.656C417.301 336.633 422.882 336.656 426.915 336.68C428.842 336.715 430.45 336.739 431.692 336.763C432.815 336.798 433.442 336.834 433.442 336.881Z" fill="#ECEFF4"/>
<path d="M433.974 339.411C433.974 339.411 433.348 339.482 432.201 339.506C430.947 339.506 429.327 339.53 427.388 339.542C423.32 339.542 417.703 339.494 411.507 339.411C405.299 339.329 399.694 339.21 395.626 339.104C393.687 339.033 392.067 338.986 390.814 338.938C389.678 338.891 389.052 338.832 389.052 338.797C389.052 338.761 389.678 338.726 390.814 338.702C392.067 338.702 393.687 338.678 395.626 338.667C399.694 338.667 405.311 338.714 411.519 338.797C417.727 338.879 423.344 338.998 427.4 339.104C429.339 339.175 430.959 339.222 432.212 339.27C433.348 339.317 433.974 339.376 433.974 339.411Z" fill="#ECEFF4"/>
<path d="M35.4657 254.426C29.7189 255.349 27.1529 262.408 27.6495 268.214C28.1462 274.008 30.5348 279.684 29.8962 285.467C29.0922 292.81 23.5345 299.018 22.8841 306.385C22.1273 315.064 28.2644 322.762 30.0973 331.288C30.9841 335.438 30.8659 339.813 32.4031 343.763C35.0046 350.42 42.6434 354.701 49.6792 353.447C56.7149 352.194 62.4027 345.537 62.5327 338.383C62.6628 331.713 58.5478 325.434 59.0444 318.789C59.411 313.87 62.2962 309.223 61.6814 304.327C60.9482 298.509 55.5561 294.382 53.6523 288.837C51.7485 283.291 53.5814 277.177 52.9192 271.348C51.7367 260.895 45.9425 253.599 35.4539 254.438" fill="#A0AFC7" fill-opacity="0.1"/>
<path d="M6.12823 305.06C5.14677 314.745 9.43918 326.144 14.4174 334.516C19.3957 342.888 27.1291 349.581 36.1041 353.341C37.1211 353.767 38.3745 354.121 39.2259 353.424C39.9236 352.856 40.0063 351.839 40.0182 350.94C40.0891 340.747 36.7663 330.554 30.712 322.348C24.6577 314.142 15.8837 307.981 6.11641 305.048" fill="#A0AFC7" fill-opacity="0.1"/>
<path d="M48.3312 373.597C48.3312 373.597 48.2248 373.42 48.0593 373.053C47.8819 372.639 47.6454 372.107 47.3734 371.468C46.794 370.085 45.919 368.098 44.8074 365.651C42.5962 360.755 39.3207 354.098 35.182 347.027C31.0434 339.955 26.8455 333.83 23.6765 329.502C22.092 327.338 20.7794 325.6 19.8571 324.418C19.4314 323.862 19.0885 323.401 18.8165 323.034C18.58 322.715 18.4617 322.537 18.4854 322.526C18.4972 322.514 18.6391 322.667 18.9111 322.963C19.2067 323.306 19.5733 323.744 20.0344 324.276C21.0041 325.423 22.3639 327.125 23.9958 329.266C27.2594 333.546 31.5163 339.648 35.6669 346.743C39.8055 353.838 43.0455 360.542 45.1622 365.485C46.2264 367.957 47.0423 369.979 47.5626 371.386C47.7991 372.048 48.0001 372.58 48.1539 373.006C48.2839 373.384 48.3431 373.585 48.3312 373.585V373.597Z" fill="#ECEFF4"/>
<path d="M42.0994 281.233C42.0994 281.233 42.1585 281.553 42.2058 282.168C42.2531 282.83 42.3241 283.717 42.395 284.84C42.5488 287.205 42.7616 290.551 43.0217 294.655C43.542 302.944 44.2752 314.402 45.1739 327.043C46.0607 339.683 46.9358 351.13 47.5861 359.419C47.9054 363.522 48.1537 366.857 48.3311 369.234C48.402 370.357 48.473 371.244 48.5085 371.906C48.5439 372.521 48.5558 372.84 48.5321 372.84C48.5085 372.84 48.4612 372.521 48.3902 371.918C48.3193 371.268 48.2247 370.369 48.1064 369.257C47.8817 366.892 47.5743 363.558 47.1841 359.466C46.4391 351.189 45.505 339.754 44.6181 327.102C43.7312 314.461 43.0572 303.003 42.6315 294.702C42.4423 290.587 42.2886 287.24 42.1704 284.875C42.1349 283.752 42.0994 282.865 42.0758 282.203C42.0639 281.588 42.0639 281.269 42.0758 281.269L42.0994 281.233Z" fill="#ECEFF4"/>
<path d="M33.1836 359.774H57.4481V377.594C57.4481 384.027 52.2334 389.241 45.8007 389.241C39.6045 389.241 34.4962 384.393 34.1651 378.221L33.1836 359.786V359.774Z" fill="#ECEFF4"/>
<path d="M92.8061 17.1987L98.1245 66.5464H29.9955L24.3434 17.1987H92.8061Z" fill="#A0AFC7" fill-opacity="0.1"/>
<path d="M89.9996 20.751L95.1807 63.9265H33.6948L28.7198 20.751H89.9996Z" fill="#FAFAFA"/>
<path d="M79.6571 28.0122L82.8364 56.6651H44.0373L42.0453 28.0122H79.6571Z" fill="#ECEFF4"/>
<path d="M26.7771 38.4532L12.7058 66.743L29.9956 66.5467L26.5612 36.6084" fill="#A0AFC7" fill-opacity="0.1"/>
<path d="M12.4701 72.4243H18.603V87.7713H12.4701V72.4243Z" fill="#ECEFF4"/>
<path d="M102.227 72.4243H108.36V87.7713H102.227V72.4243Z" fill="#ECEFF4"/>
<path d="M1.25472 66.8408H120.969V73.3172H1.25472V66.8408Z" fill="#ECEFF4"/>
<mask id="path-58-inside-1_985_17994" fill="white">
<path d="M485.459 389.312C485.459 389.478 376.884 389.62 242.992 389.62C109.099 389.62 0.5 389.478 0.5 389.312C0.5 389.147 109.052 389.005 242.992 389.005C376.931 389.005 485.459 389.147 485.459 389.312Z"/>
</mask>
<path d="M485.459 389.312C485.459 389.478 376.884 389.62 242.992 389.62C109.099 389.62 0.5 389.478 0.5 389.312C0.5 389.147 109.052 389.005 242.992 389.005C376.931 389.005 485.459 389.147 485.459 389.312Z" fill="#374355"/>
<path d="M484.459 389.312C484.561 388.874 484.964 388.444 485.094 388.382C485.149 388.362 485.234 388.339 485.263 388.333C485.308 388.324 485.341 388.321 485.342 388.321C485.354 388.32 485.354 388.32 485.331 388.321C485.291 388.323 485.222 388.326 485.119 388.328C484.916 388.333 484.608 388.338 484.195 388.343C483.37 388.353 482.141 388.363 480.526 388.373C477.298 388.393 472.535 388.412 466.399 388.43C454.129 388.467 436.374 388.5 414.434 388.528C370.554 388.584 309.937 388.62 242.992 388.62V390.62C309.938 390.62 370.555 390.584 414.436 390.528C436.377 390.5 454.133 390.467 466.405 390.43C472.541 390.412 477.307 390.393 480.539 390.373C482.154 390.363 483.388 390.353 484.22 390.343C484.634 390.338 484.952 390.333 485.168 390.327C485.275 390.325 485.364 390.322 485.429 390.319C485.459 390.317 485.499 390.315 485.537 390.311C485.551 390.31 485.594 390.306 485.646 390.296C485.678 390.289 485.766 390.265 485.822 390.245C485.954 390.182 486.358 389.751 486.459 389.312H484.459ZM242.992 388.62C176.046 388.62 115.423 388.584 71.5374 388.528C49.5944 388.5 31.836 388.467 19.5637 388.43C13.4273 388.412 8.66339 388.393 5.43398 388.373C3.81894 388.363 2.58946 388.353 1.76454 388.343C1.35141 388.338 1.0433 388.333 0.840061 388.328C0.737092 388.326 0.668107 388.323 0.628011 388.321C0.605311 388.32 0.605225 388.32 0.617015 388.321C0.617931 388.321 0.651504 388.324 0.696545 388.333C0.725116 388.339 0.810313 388.362 0.864844 388.382C0.995004 388.444 1.39866 388.874 1.5 389.312H-0.5C-0.398656 389.751 0.00582433 390.182 0.13764 390.245C0.193828 390.265 0.281507 390.289 0.313387 390.296C0.365047 390.306 0.408543 390.31 0.422676 390.311C0.4609 390.315 0.500425 390.317 0.530434 390.319C0.595756 390.322 0.684581 390.325 0.791178 390.327C1.00707 390.333 1.32512 390.338 1.74007 390.343C2.57134 390.353 3.8058 390.363 5.42177 390.373C8.6544 390.393 13.4208 390.412 19.5577 390.43C31.8318 390.467 49.5915 390.5 71.5348 390.528C115.422 390.584 176.045 390.62 242.992 390.62V388.62ZM1.5 389.312C1.3987 389.751 0.99516 390.181 0.864981 390.243C0.810432 390.262 0.725206 390.286 0.696623 390.292C0.651561 390.301 0.61797 390.304 0.617048 390.304C0.605241 390.305 0.60531 390.305 0.627998 390.303C0.668066 390.301 0.737013 390.299 0.839937 390.297C1.04309 390.292 1.35106 390.287 1.76403 390.282C2.58861 390.271 3.8176 390.261 5.43204 390.252C8.66025 390.232 13.4225 390.213 19.557 390.194C31.8257 390.158 49.5796 390.125 71.5197 390.097C115.4 390.04 176.022 390.005 242.992 390.005V388.005C176.021 388.005 115.398 388.04 71.5171 388.097C49.5767 388.125 31.8214 388.158 19.551 388.194C13.416 388.213 8.65125 388.232 5.41983 388.252C3.80446 388.261 2.57048 388.272 1.73955 388.282C1.32476 388.287 1.00684 388.292 0.791033 388.297C0.684479 388.3 0.595684 388.303 0.530379 388.306C0.50038 388.307 0.460855 388.309 0.422626 388.313C0.408492 388.315 0.364983 388.319 0.313305 388.329C0.281414 388.336 0.193706 388.36 0.137502 388.38C0.00566834 388.443 -0.398702 388.873 -0.5 389.312H1.5ZM242.992 390.005C309.961 390.005 370.578 390.04 414.452 390.097C436.389 390.125 454.14 390.158 466.406 390.194C472.539 390.213 477.301 390.232 480.528 390.252C482.142 390.261 483.371 390.271 484.196 390.282C484.608 390.287 484.916 390.292 485.12 390.297C485.222 390.299 485.291 390.301 485.331 390.303C485.354 390.305 485.354 390.305 485.342 390.304C485.341 390.304 485.308 390.301 485.263 390.292C485.234 390.286 485.149 390.262 485.094 390.243C484.964 390.181 484.561 389.751 484.459 389.312H486.459C486.358 388.874 485.954 388.443 485.822 388.38C485.766 388.36 485.678 388.336 485.646 388.329C485.594 388.319 485.551 388.315 485.537 388.313C485.499 388.309 485.459 388.307 485.429 388.306C485.364 388.303 485.275 388.3 485.168 388.297C484.953 388.292 484.635 388.287 484.22 388.282C483.389 388.272 482.156 388.261 480.541 388.252C477.31 388.232 472.546 388.213 466.412 388.194C454.144 388.158 436.392 388.125 414.454 388.097C370.579 388.04 309.962 388.005 242.992 388.005V390.005Z" fill="#374355" mask="url(#path-58-inside-1_985_17994)"/>
<path d="M143.726 258.305C164.124 244.056 168.747 217.604 167.943 193.824C167.813 189.851 168.251 185.677 166.359 182.189C164.467 178.712 160.068 176.323 156.509 178.003C153.564 179.386 152.275 182.815 150.632 185.653C148.444 189.425 145.169 192.547 141.326 194.546C138.795 195.858 135.673 196.662 133.178 195.279C129.761 193.387 129.347 188.657 129.371 184.707C129.418 177.352 129.465 169.997 129.513 162.642C129.536 158.693 129.548 154.66 128.318 150.924C127.089 147.175 124.381 143.699 120.62 142.646C116.86 141.594 112.225 143.758 111.433 147.625C111.101 149.233 111.432 150.9 111.326 152.544C111.22 154.187 110.451 155.997 108.902 156.458C107.329 156.919 105.745 155.796 104.562 154.649C100.483 150.664 97.7275 145.532 95.1379 140.423C92.5483 135.315 90.0414 130.088 86.3521 125.749C82.6509 121.397 77.5426 117.956 71.8903 117.637C66.2381 117.318 60.2192 120.806 58.7884 126.352C57.3576 131.921 60.5976 137.562 64.1332 142.067C69.3716 148.748 75.5796 154.66 82.4735 159.556C83.7151 160.443 85.0632 161.389 85.548 162.855C86.4112 165.492 83.9162 168.105 81.3147 168.968C78.3703 169.95 75.1776 169.642 72.1032 170.009C69.0287 170.376 65.6941 171.724 64.5234 174.633C62.9035 178.665 66.2854 182.898 69.5963 185.665C76.2419 191.211 83.8334 195.598 91.9334 198.566C94.8423 199.63 97.8931 200.564 100.234 202.598C102.576 204.644 103.995 208.191 102.576 210.97C101.157 213.749 97.5265 214.648 94.4875 214.08C91.4485 213.513 88.7289 211.869 85.82 210.769C80.3924 208.723 73.3921 209.09 69.9156 213.785C67.6334 216.871 67.4324 221.151 68.5912 224.829C69.75 228.506 72.0913 231.664 74.5745 234.584C83.2658 244.789 94.3929 252.996 106.986 257.359C119.568 261.722 131.227 262.905 143.738 258.329" fill="#00BFB3"/>
<path d="M64.4763 120.913C64.4763 120.913 64.5945 121.054 64.8547 121.291C65.1503 121.551 65.5287 121.894 66.0253 122.332C67.0541 123.242 68.5795 124.59 70.4951 126.387C74.3264 129.959 79.7185 135.315 85.5718 142.658C88.5043 146.312 91.5551 150.463 94.7597 154.968C97.9524 159.485 101.322 164.322 104.681 169.548C108.039 174.775 111.397 180.368 114.424 186.422C115.95 189.437 117.298 192.595 118.681 195.811C120.053 199.027 121.46 202.291 122.867 205.602C128.472 218.834 133.403 231.628 136.939 243.583C140.486 255.526 142.591 266.594 143.513 275.971C144.459 285.348 144.27 293.011 143.88 298.261C143.679 300.886 143.478 302.932 143.289 304.304C143.218 304.966 143.147 305.486 143.111 305.876C143.076 306.231 143.064 306.408 143.076 306.42C143.088 306.42 143.123 306.243 143.194 305.888C143.253 305.498 143.336 304.99 143.442 304.327C143.679 302.956 143.927 300.922 144.176 298.285C144.649 293.023 144.921 285.337 144.034 275.912C143.17 266.488 141.101 255.373 137.589 243.382C134.089 231.38 129.158 218.55 123.553 205.306C122.134 201.995 120.739 198.732 119.355 195.515C117.972 192.299 116.6 189.118 115.063 186.091C112.024 180.013 108.63 174.396 105.248 169.181C101.866 163.955 98.4608 159.119 95.2563 154.613C92.0281 150.12 88.9537 145.981 85.9738 142.339C80.0496 135.02 74.5865 129.687 70.6843 126.186C68.7332 124.425 67.1842 123.112 66.1199 122.237C65.6115 121.823 65.2094 121.492 64.902 121.244C64.63 121.019 64.4763 120.913 64.4763 120.924V120.913Z" fill="#374355"/>
<path d="M64.4763 120.913C64.4763 120.913 64.5945 121.054 64.8547 121.291C65.1503 121.551 65.5287 121.894 66.0253 122.332C67.0541 123.242 68.5795 124.59 70.4951 126.387C74.3264 129.959 79.7185 135.315 85.5718 142.658C88.5043 146.312 91.5551 150.463 94.7597 154.968C97.9524 159.485 101.322 164.322 104.681 169.548C108.039 174.775 111.397 180.368 114.424 186.422C115.95 189.437 117.298 192.595 118.681 195.811C120.053 199.027 121.46 202.291 122.867 205.602C128.472 218.834 133.403 231.628 136.939 243.583C140.486 255.526 142.591 266.594 143.513 275.971C144.459 285.348 144.27 293.011 143.88 298.261C143.679 300.886 143.478 302.932 143.289 304.304C143.218 304.966 143.147 305.486 143.111 305.876C143.076 306.231 143.064 306.408 143.076 306.42C143.088 306.42 143.123 306.243 143.194 305.888C143.253 305.498 143.336 304.99 143.442 304.327C143.679 302.956 143.927 300.922 144.176 298.285C144.649 293.023 144.921 285.337 144.034 275.912C143.17 266.488 141.101 255.373 137.589 243.382C134.089 231.38 129.158 218.55 123.553 205.306C122.134 201.995 120.739 198.732 119.355 195.515C117.972 192.299 116.6 189.118 115.063 186.091C112.024 180.013 108.63 174.396 105.248 169.181C101.866 163.955 98.4608 159.119 95.2563 154.613C92.0281 150.12 88.9537 145.981 85.9738 142.339C80.0496 135.02 74.5865 129.687 70.6843 126.186C68.7332 124.425 67.1842 123.112 66.1199 122.237C65.6115 121.823 65.2094 121.492 64.902 121.244C64.63 121.019 64.4763 120.913 64.4763 120.924V120.913Z" fill="black" fill-opacity="0.25"/>
<path d="M114.85 186.067C114.85 186.067 115.027 185.476 115.24 184.388C115.453 183.3 115.689 181.716 115.973 179.741C116.529 175.815 117.12 170.352 117.735 164.345C118.362 158.326 119.024 152.899 119.639 148.985C119.946 147.033 120.206 145.449 120.396 144.361C120.585 143.273 120.668 142.658 120.62 142.646C120.573 142.646 120.396 143.226 120.124 144.302C119.84 145.378 119.509 146.951 119.142 148.902C118.397 152.804 117.652 158.243 117.026 164.274C116.422 170.21 115.878 175.579 115.465 179.682C115.264 181.538 115.098 183.099 114.956 184.353C114.838 185.452 114.802 186.067 114.85 186.079V186.067Z" fill="#374355"/>
<path d="M114.85 186.067C114.85 186.067 115.027 185.476 115.24 184.388C115.453 183.3 115.689 181.716 115.973 179.741C116.529 175.815 117.12 170.352 117.735 164.345C118.362 158.326 119.024 152.899 119.639 148.985C119.946 147.033 120.206 145.449 120.396 144.361C120.585 143.273 120.668 142.658 120.62 142.646C120.573 142.646 120.396 143.226 120.124 144.302C119.84 145.378 119.509 146.951 119.142 148.902C118.397 152.804 117.652 158.243 117.026 164.274C116.422 170.21 115.878 175.579 115.465 179.682C115.264 181.538 115.098 183.099 114.956 184.353C114.838 185.452 114.802 186.067 114.85 186.079V186.067Z" fill="black" fill-opacity="0.25"/>
<path d="M64.1096 176.583C64.1096 176.583 64.831 176.714 66.1317 176.82C67.4324 176.938 69.3244 177.092 71.6421 177.364C76.2892 177.861 82.6865 178.783 89.6986 180.107C96.7107 181.443 103.001 182.922 107.53 184.116C109.801 184.695 111.622 185.227 112.875 185.57C114.14 185.925 114.838 186.102 114.85 186.055C114.862 186.008 114.188 185.736 112.958 185.298C111.716 184.861 109.919 184.258 107.66 183.607C103.155 182.271 96.8644 180.71 89.8286 179.374C82.7929 178.05 76.3602 177.21 71.6894 176.844C69.348 176.643 67.4561 176.56 66.1435 176.536C64.831 176.512 64.1096 176.536 64.1096 176.583Z" fill="#374355"/>
<path d="M64.1096 176.583C64.1096 176.583 64.831 176.714 66.1317 176.82C67.4324 176.938 69.3244 177.092 71.6421 177.364C76.2892 177.861 82.6865 178.783 89.6986 180.107C96.7107 181.443 103.001 182.922 107.53 184.116C109.801 184.695 111.622 185.227 112.875 185.57C114.14 185.925 114.838 186.102 114.85 186.055C114.862 186.008 114.188 185.736 112.958 185.298C111.716 184.861 109.919 184.258 107.66 183.607C103.155 182.271 96.8644 180.71 89.8286 179.374C82.7929 178.05 76.3602 177.21 71.6894 176.844C69.348 176.643 67.4561 176.56 66.1435 176.536C64.831 176.512 64.1096 176.536 64.1096 176.583Z" fill="black" fill-opacity="0.25"/>
<path d="M136.962 242.46C136.962 242.46 137.104 242.259 137.305 241.845C137.542 241.348 137.826 240.745 138.168 240.012C138.913 238.416 139.93 236.074 141.16 233.165C143.608 227.348 146.741 219.212 150.064 210.19C153.399 201.156 156.45 193.008 158.767 187.143C159.903 184.293 160.849 181.952 161.534 180.214C161.83 179.457 162.078 178.83 162.279 178.322C162.445 177.884 162.516 177.66 162.492 177.648C162.468 177.648 162.35 177.849 162.149 178.263C161.913 178.759 161.629 179.363 161.286 180.096C160.541 181.692 159.524 184.033 158.294 186.942C155.847 192.76 152.713 200.896 149.378 209.918C146.044 218.94 142.993 227.099 140.675 232.953C139.54 235.802 138.594 238.144 137.908 239.882C137.613 240.639 137.364 241.265 137.163 241.774C136.998 242.211 136.927 242.448 136.951 242.448L136.962 242.46Z" fill="#374355"/>
<path d="M136.962 242.46C136.962 242.46 137.104 242.259 137.305 241.845C137.542 241.348 137.826 240.745 138.168 240.012C138.913 238.416 139.93 236.074 141.16 233.165C143.608 227.348 146.741 219.212 150.064 210.19C153.399 201.156 156.45 193.008 158.767 187.143C159.903 184.293 160.849 181.952 161.534 180.214C161.83 179.457 162.078 178.83 162.279 178.322C162.445 177.884 162.516 177.66 162.492 177.648C162.468 177.648 162.35 177.849 162.149 178.263C161.913 178.759 161.629 179.363 161.286 180.096C160.541 181.692 159.524 184.033 158.294 186.942C155.847 192.76 152.713 200.896 149.378 209.918C146.044 218.94 142.993 227.099 140.675 232.953C139.54 235.802 138.594 238.144 137.908 239.882C137.613 240.639 137.364 241.265 137.163 241.774C136.998 242.211 136.927 242.448 136.951 242.448L136.962 242.46Z" fill="black" fill-opacity="0.25"/>
<path d="M69.5253 220.726C69.5253 220.726 69.7499 220.844 70.1993 220.998C70.7314 221.175 71.3699 221.388 72.1622 221.66C73.9714 222.251 76.4073 223.043 79.3872 224.001C85.4888 225.976 93.8726 228.802 103.143 231.947C112.414 235.093 120.833 237.836 126.982 239.693C130.057 240.615 132.54 241.348 134.278 241.809C135.082 242.022 135.744 242.188 136.276 242.33C136.738 242.436 136.986 242.483 136.986 242.46C136.986 242.436 136.761 242.341 136.312 242.188C135.792 242.01 135.141 241.797 134.349 241.537C132.54 240.946 130.104 240.166 127.124 239.196C121.022 237.221 112.639 234.395 103.368 231.25C94.0972 228.116 85.678 225.361 79.5409 223.504C76.4664 222.582 73.9832 221.849 72.245 221.388C71.4409 221.175 70.7905 221.009 70.2466 220.867C69.7854 220.761 69.5489 220.714 69.5371 220.737L69.5253 220.726Z" fill="#374355"/>
<path d="M69.5253 220.726C69.5253 220.726 69.7499 220.844 70.1993 220.998C70.7314 221.175 71.3699 221.388 72.1622 221.66C73.9714 222.251 76.4073 223.043 79.3872 224.001C85.4888 225.976 93.8726 228.802 103.143 231.947C112.414 235.093 120.833 237.836 126.982 239.693C130.057 240.615 132.54 241.348 134.278 241.809C135.082 242.022 135.744 242.188 136.276 242.33C136.738 242.436 136.986 242.483 136.986 242.46C136.986 242.436 136.761 242.341 136.312 242.188C135.792 242.01 135.141 241.797 134.349 241.537C132.54 240.946 130.104 240.166 127.124 239.196C121.022 237.221 112.639 234.395 103.368 231.25C94.0972 228.116 85.678 225.361 79.5409 223.504C76.4664 222.582 73.9832 221.849 72.245 221.388C71.4409 221.175 70.7905 221.009 70.2466 220.867C69.7854 220.761 69.5489 220.714 69.5371 220.737L69.5253 220.726Z" fill="black" fill-opacity="0.25"/>
<path d="M127.467 253.398C123.352 253.54 119.379 251.033 117.298 247.473C115.217 243.914 114.933 239.48 116.056 235.519C116.576 233.686 117.522 231.782 119.273 231.025C120.904 230.316 122.879 230.836 124.263 231.959C125.646 233.083 126.521 234.714 127.148 236.382C129.3 242.093 130.341 248.017 127.455 253.398" fill="#374355"/>
<path d="M129.667 264.395C120.987 264.005 112.237 268.096 106.987 275.013C105.65 276.775 104.515 279.199 105.638 281.103C106.762 283.007 109.446 283.184 111.634 282.818C120.715 281.269 128.46 273.701 130.21 264.643" fill="#374355"/>
<path d="M76.727 249.093C78.8318 246.066 82.3911 244.257 86.0449 243.713C89.687 243.181 93.4236 243.82 96.9356 244.955C103.723 247.142 109.931 252.511 114.625 257.891C108.335 262.704 99.1587 262.254 94.5115 261.722C87.1801 260.895 74.4211 254.947 76.727 249.093Z" fill="#374355"/>
<path d="M145.748 265.01C144.849 264.655 143.892 264.69 142.319 263.981C139.197 262.562 134.857 260.457 130.766 257.063C126.675 253.658 124.014 249.436 122.95 246.125C122.394 244.47 122.158 243.075 122.098 242.105C122.027 241.135 122.075 240.603 122.122 240.603C122.288 240.58 122.264 242.755 123.482 245.936C124.653 249.105 127.29 253.138 131.274 256.448C135.271 259.771 139.516 261.923 142.555 263.472" fill="#374355"/>
<path d="M145.748 265.01C144.849 264.655 143.892 264.69 142.319 263.981C139.197 262.562 134.857 260.457 130.766 257.063C126.675 253.658 124.014 249.436 122.95 246.125C122.394 244.47 122.158 243.075 122.098 242.105C122.027 241.135 122.075 240.603 122.122 240.603C122.288 240.58 122.264 242.755 123.482 245.936C124.653 249.105 127.29 253.138 131.274 256.448C135.271 259.771 139.516 261.923 142.555 263.472" fill="black" fill-opacity="0.25"/>
<path d="M145.867 265.045C144.176 264.667 141.964 264.182 139.304 263.591C133.758 262.349 126.095 260.658 117.617 258.908C109.139 257.158 101.429 255.668 95.8476 254.604C93.1633 254.084 90.9403 253.658 89.2375 253.327C87.6766 253.02 86.8252 252.819 86.8252 252.759C86.8252 252.7 87.7121 252.795 89.2848 253.02C90.8575 253.232 93.1279 253.587 95.9422 254.048C101.547 254.971 109.281 256.366 117.771 258.128C126.261 259.89 133.912 261.664 139.422 263.047C142.177 263.733 144.4 264.312 145.938 264.75" fill="#374355"/>
<path d="M145.867 265.045C144.176 264.667 141.964 264.182 139.304 263.591C133.758 262.349 126.095 260.658 117.617 258.908C109.139 257.158 101.429 255.668 95.8476 254.604C93.1633 254.084 90.9403 253.658 89.2375 253.327C87.6766 253.02 86.8252 252.819 86.8252 252.759C86.8252 252.7 87.7121 252.795 89.2848 253.02C90.8575 253.232 93.1279 253.587 95.9422 254.048C101.547 254.971 109.281 256.366 117.771 258.128C126.261 259.89 133.912 261.664 139.422 263.047C142.177 263.733 144.4 264.312 145.938 264.75" fill="black" fill-opacity="0.25"/>
<path d="M113.774 275.451C113.774 275.451 114.01 274.99 114.566 274.245C114.838 273.867 115.181 273.417 115.63 272.944C116.08 272.459 116.553 271.88 117.191 271.336C118.374 270.177 119.947 268.959 121.803 267.789C123.683 266.653 125.859 265.577 128.259 264.761C130.672 263.969 133.06 263.52 135.236 263.295C137.424 263.118 139.41 263.141 141.054 263.354C141.882 263.413 142.615 263.579 143.265 263.697C143.915 263.804 144.459 263.957 144.897 264.087C145.784 264.348 145.961 264.679 145.937 264.726C145.902 264.88 144.247 264.147 140.995 263.91C139.375 263.78 137.435 263.815 135.295 264.016C133.167 264.277 130.849 264.738 128.496 265.506C126.155 266.31 124.026 267.339 122.17 268.403C120.337 269.515 118.764 270.662 117.558 271.738C115.11 273.878 113.892 275.522 113.762 275.427L113.774 275.451Z" fill="#374355"/>
<path d="M113.774 275.451C113.774 275.451 114.01 274.99 114.566 274.245C114.838 273.867 115.181 273.417 115.63 272.944C116.08 272.459 116.553 271.88 117.191 271.336C118.374 270.177 119.947 268.959 121.803 267.789C123.683 266.653 125.859 265.577 128.259 264.761C130.672 263.969 133.06 263.52 135.236 263.295C137.424 263.118 139.41 263.141 141.054 263.354C141.882 263.413 142.615 263.579 143.265 263.697C143.915 263.804 144.459 263.957 144.897 264.087C145.784 264.348 145.961 264.679 145.937 264.726C145.902 264.88 144.247 264.147 140.995 263.91C139.375 263.78 137.435 263.815 135.295 264.016C133.167 264.277 130.849 264.738 128.496 265.506C126.155 266.31 124.026 267.339 122.17 268.403C120.337 269.515 118.764 270.662 117.558 271.738C115.11 273.878 113.892 275.522 113.762 275.427L113.774 275.451Z" fill="black" fill-opacity="0.25"/>
<path d="M300.034 389.17L168.163 388.555C152.306 388.484 139.5 375.572 139.571 359.703L140.966 29.0927C141.037 13.2356 153.962 0.429344 169.831 0.500293L301.701 1.11518C317.558 1.18613 330.365 14.0988 330.294 29.9677L328.898 360.578C328.827 376.447 315.915 389.253 300.034 389.182V389.17Z" fill="#374355"/>
<path d="M301.512 12.5145L275.947 12.3962C272.517 12.3844 269.727 15.2697 269.715 18.8526L269.691 23.4879C269.679 27.0708 266.889 29.9679 263.46 29.9443L213.618 29.7196C210.189 29.7078 207.422 26.787 207.434 23.2041L207.457 18.5688C207.469 14.9859 204.702 12.0651 201.273 12.0533L192.286 12.006L169.913 11.8996C158.798 11.8523 149.752 20.8155 149.705 31.9308L148.345 354.63C148.298 365.734 157.261 374.78 168.364 374.839L299.975 375.442C311.09 375.489 320.136 366.526 320.183 355.411L321.543 32.7113C321.59 21.6078 312.627 12.5618 301.524 12.5027L301.512 12.5145Z" fill="#FAFAFA"/>
<path d="M254.022 52.3206L220.074 52.1665L220.045 58.3981L253.994 58.5522L254.022 52.3206Z" fill="#374355"/>
<path d="M292.063 103.293C291.543 103.352 291.259 103.364 291.271 103.411C291.271 103.364 291.011 103.364 290.526 103.305H292.063V103.293Z" fill="#A0AFC7"/>
<path d="M282.757 86.2065C283.372 85.3669 284.129 84.5983 285.016 83.9716C286.754 82.6708 288.977 81.9377 291.271 81.9141C293.565 81.9377 295.788 82.6708 297.526 83.9716C298.401 84.5983 299.17 85.3669 299.785 86.2065C300.412 87.0342 300.908 87.9447 301.239 88.8789C301.961 90.7472 302.02 92.7101 301.724 94.4602C301.428 96.2221 300.66 97.7475 299.761 98.9536C299.631 99.131 299.489 99.2729 299.359 99.4384C298.579 97.2036 296.84 94.7085 292.95 94.1173C294.747 93.3723 296.025 91.5158 296.013 89.34C296.013 86.5139 293.837 84.2317 291.188 84.2436C288.539 84.2554 286.399 86.5612 286.411 89.3873C286.411 91.5513 287.688 93.3841 289.462 94.1291C285.642 94.7085 283.94 97.1799 283.171 99.4266C283.041 99.2729 282.911 99.131 282.781 98.9654C281.882 97.7475 281.125 96.2221 280.818 94.472C280.522 92.7338 280.593 90.759 281.303 88.9025C281.634 87.9684 282.13 87.0579 282.757 86.2301V86.2065Z" fill="#FAFAFA"/>
<path d="M280.711 88.6658C281.054 87.6726 281.575 86.7029 282.225 85.8161C282.875 84.9174 283.679 84.1015 284.602 83.4274C286.435 82.0321 288.811 81.2517 291.259 81.228C293.707 81.2517 296.072 82.0321 297.917 83.4274C298.851 84.1015 299.655 84.9174 300.293 85.8161C300.955 86.7029 301.476 87.6726 301.807 88.6658C302.552 90.6524 302.587 92.7336 302.256 94.5664C301.913 96.4111 301.086 98.0075 300.128 99.2491C298.153 101.78 295.646 102.832 293.955 103.199C293.104 103.388 292.418 103.447 291.957 103.447C291.496 103.447 291.259 103.447 291.259 103.411C291.259 103.364 291.543 103.364 292.051 103.293H290.514C290.999 103.352 291.259 103.364 291.259 103.411C291.259 103.435 291.023 103.447 290.561 103.447C290.1 103.447 289.414 103.4 288.563 103.199C286.872 102.832 284.365 101.768 282.391 99.2491C281.421 97.9956 280.605 96.4111 280.262 94.5664C279.931 92.7336 279.978 90.6524 280.711 88.6658ZM280.818 94.46C281.113 96.2219 281.882 97.7473 282.781 98.9534C282.911 99.119 283.041 99.2609 283.171 99.4146C283.94 97.1679 285.642 94.6965 289.462 94.1171C287.688 93.3721 286.423 91.5393 286.411 89.3753C286.411 86.5492 288.539 84.2434 291.188 84.2315C293.837 84.2197 296.001 86.5019 296.013 89.328C296.013 91.5038 294.747 93.3603 292.95 94.1053C296.84 94.6965 298.567 97.1797 299.359 99.4264C299.489 99.2727 299.631 99.119 299.761 98.9416C300.66 97.7237 301.417 96.1982 301.724 94.4482C302.02 92.7099 301.949 90.7352 301.239 88.8669C300.908 87.9327 300.412 87.0222 299.785 86.1945C299.17 85.3549 298.413 84.5863 297.526 83.9596C295.788 82.6588 293.565 81.9257 291.271 81.902C288.977 81.9257 286.754 82.6588 285.016 83.9596C284.141 84.5863 283.372 85.3549 282.757 86.1945C282.13 87.0222 281.634 87.9327 281.303 88.8669C280.581 90.7352 280.522 92.6981 280.818 94.4364V94.46Z" fill="#A0AFC7"/>
<path d="M163.504 113.262C163.504 113.262 163.161 113.262 162.522 113.132C161.896 113.001 160.926 112.682 160.004 111.807C159.081 110.956 158.277 109.454 158.407 107.586C158.407 105.706 158.431 103.553 158.443 101.117C158.455 96.2457 158.478 90.2978 158.502 83.3921C158.502 81.6657 158.502 79.8801 158.514 78.0355C158.407 76.2381 159.342 74.3816 160.985 73.4356C162.617 72.4068 164.734 72.8562 166.791 72.7616C168.861 72.7616 170.989 72.7616 173.153 72.7734C207.965 72.7971 256.021 72.8325 309.103 72.8798C310.664 72.8798 312.177 73.6603 313.064 74.9255C313.525 75.5522 313.797 76.2854 313.904 77.0422C313.998 77.7753 313.939 78.6503 313.963 79.4544C313.963 82.7299 313.963 85.9936 313.963 89.2217C313.963 95.6781 313.963 102.052 313.963 108.295C313.916 109.761 313.147 111.169 311.953 112.008C311.373 112.434 310.687 112.729 309.978 112.848C309.28 112.978 308.5 112.919 307.731 112.93C304.657 112.93 301.618 112.93 298.602 112.93C292.584 112.93 286.683 112.93 280.936 112.93C257.937 112.954 237.22 112.978 219.814 113.001C202.431 113.049 188.36 113.084 178.604 113.108C173.756 113.132 169.984 113.155 167.406 113.167C166.141 113.179 165.171 113.191 164.497 113.202C163.835 113.202 163.504 113.238 163.504 113.238C163.504 113.238 163.835 113.262 164.497 113.273C165.171 113.273 166.141 113.297 167.406 113.309C169.984 113.321 173.756 113.344 178.604 113.368C188.36 113.392 202.419 113.427 219.814 113.474C237.22 113.498 257.925 113.522 280.936 113.545C286.683 113.545 292.584 113.545 298.602 113.545C301.618 113.545 304.657 113.545 307.731 113.545C308.5 113.534 309.268 113.593 310.096 113.451C310.912 113.309 311.681 112.978 312.355 112.493C313.703 111.535 314.578 109.939 314.637 108.272C314.637 102.004 314.637 95.6308 314.649 89.1626C314.649 85.9344 314.649 82.6708 314.649 79.3953C314.625 78.5676 314.696 77.7871 314.59 76.8884C314.46 76.0252 314.152 75.1738 313.632 74.4644C312.627 73.0217 310.877 72.123 309.103 72.123C256.021 72.1585 207.965 72.194 173.153 72.2295C170.977 72.2295 168.861 72.2295 166.791 72.2413C165.762 72.2413 164.734 72.2413 163.729 72.2413C162.7 72.2058 161.636 72.466 160.772 72.9981C158.987 74.0268 157.982 76.0725 158.112 77.9645C158.112 79.8092 158.112 81.5947 158.124 83.3212C158.147 90.2268 158.171 96.1747 158.183 101.047C158.195 103.471 158.206 105.635 158.218 107.515C158.1 109.43 158.951 110.991 159.921 111.843C160.891 112.729 161.884 113.025 162.522 113.132C163.173 113.238 163.516 113.191 163.516 113.191L163.504 113.262Z" fill="#A0AFC7"/>
<path d="M309.247 113.262C309.247 113.262 309.59 113.262 310.229 113.132C310.855 113.001 311.825 112.682 312.747 111.807C313.67 110.956 314.474 109.454 314.344 107.586C314.344 105.706 314.32 103.553 314.308 101.117C314.296 96.2457 314.273 90.2978 314.249 83.3921C314.249 81.6657 314.249 79.8801 314.237 78.0355C314.344 76.2381 313.409 74.3816 311.766 73.4356C310.134 72.4068 308.017 72.8562 305.96 72.7616C303.89 72.7616 301.762 72.7616 299.598 72.7734C264.786 72.7971 216.73 72.8325 163.648 72.8798C162.087 72.8798 160.574 73.6603 159.687 74.9255C159.226 75.5522 158.954 76.2854 158.847 77.0422C158.753 77.7753 158.812 78.6503 158.788 79.4544C158.788 82.7299 158.788 85.9936 158.788 89.2217C158.788 95.6781 158.788 102.052 158.788 108.295C158.835 109.761 159.604 111.169 160.798 112.008C161.378 112.434 162.064 112.729 162.773 112.848C163.471 112.978 164.251 112.919 165.02 112.93C168.094 112.93 171.133 112.93 174.148 112.93C180.167 112.93 186.068 112.93 191.815 112.93C214.814 112.954 235.531 112.978 252.937 113.001C270.32 113.049 284.391 113.084 294.147 113.108C298.995 113.132 302.767 113.155 305.345 113.167C306.61 113.179 307.58 113.191 308.254 113.202C308.916 113.202 309.247 113.238 309.247 113.238C309.247 113.238 308.916 113.262 308.254 113.273C307.58 113.273 306.61 113.297 305.345 113.309C302.767 113.321 298.995 113.344 294.147 113.368C284.391 113.392 270.332 113.427 252.937 113.474C235.531 113.498 214.826 113.522 191.815 113.545C186.068 113.545 180.167 113.545 174.148 113.545C171.133 113.545 168.094 113.545 165.02 113.545C164.251 113.534 163.483 113.593 162.655 113.451C161.839 113.309 161.07 112.978 160.396 112.493C159.048 111.535 158.173 109.939 158.114 108.272C158.114 102.004 158.114 95.6308 158.102 89.1626C158.102 85.9344 158.102 82.6708 158.102 79.3953C158.126 78.5676 158.055 77.7871 158.161 76.8884C158.291 76.0252 158.599 75.1738 159.119 74.4644C160.124 73.0217 161.874 72.123 163.648 72.123C216.73 72.1585 264.786 72.194 299.598 72.2295C301.774 72.2295 303.89 72.2295 305.96 72.2413C306.988 72.2413 308.017 72.2413 309.022 72.2413C310.051 72.2058 311.115 72.466 311.979 72.9981C313.764 74.0268 314.769 76.0725 314.639 77.9645C314.639 79.8092 314.639 81.5947 314.627 83.3212C314.604 90.2268 314.58 96.1747 314.568 101.047C314.556 103.471 314.545 105.635 314.533 107.515C314.651 109.43 313.8 110.991 312.83 111.843C311.86 112.729 310.867 113.025 310.229 113.132C309.578 113.238 309.235 113.191 309.235 113.191L309.247 113.262Z" fill="#A0AFC7"/>
<path d="M231.792 83.1084H270.199V85.9937H231.792V83.1084Z" fill="#A0AFC7"/>
<path d="M202.916 99.3911H270.199V102.276H202.916V99.3911Z" fill="#A0AFC7"/>
<path d="M172.692 91.0547H270.199V93.9399H172.692V91.0547Z" fill="#A0AFC7"/>
<path d="M292.063 205.188C291.543 205.247 291.259 205.258 291.271 205.306C291.271 205.258 291.011 205.258 290.526 205.199H292.063V205.188Z" fill="#A0AFC7"/>
<path d="M282.757 188.089C283.372 187.249 284.129 186.481 285.016 185.854C286.754 184.553 288.977 183.82 291.271 183.796C293.565 183.82 295.788 184.553 297.526 185.854C298.401 186.481 299.17 187.249 299.785 188.089C300.412 188.917 300.908 189.827 301.239 190.761C301.961 192.63 302.02 194.592 301.724 196.343C301.428 198.093 300.66 199.63 299.761 200.836C299.631 201.013 299.489 201.155 299.359 201.321C298.579 199.086 296.84 196.591 292.95 196C294.747 195.255 296.025 193.398 296.013 191.222C296.013 188.396 293.837 186.114 291.188 186.126C288.539 186.138 286.399 188.444 286.411 191.27C286.411 193.434 287.688 195.266 289.462 196.011C285.642 196.591 283.94 199.062 283.171 201.309C283.041 201.155 282.911 201.013 282.781 200.848C281.882 199.63 281.125 198.104 280.818 196.354C280.522 194.616 280.593 192.641 281.303 190.785C281.634 189.851 282.13 188.94 282.757 188.112V188.089Z" fill="#FAFAFA"/>
<path d="M280.711 190.56C281.054 189.567 281.575 188.597 282.225 187.711C282.875 186.812 283.679 185.996 284.602 185.322C286.435 183.927 288.811 183.146 291.259 183.123C293.707 183.146 296.072 183.927 297.917 185.322C298.851 185.996 299.655 186.812 300.293 187.711C300.955 188.597 301.476 189.567 301.807 190.56C302.552 192.547 302.587 194.628 302.256 196.461C301.913 198.306 301.086 199.902 300.128 201.144C298.153 203.674 295.646 204.726 293.955 205.093C293.104 205.282 292.418 205.341 291.957 205.341C291.496 205.341 291.259 205.341 291.259 205.306C291.259 205.259 291.543 205.259 292.051 205.188H290.514C290.999 205.247 291.259 205.259 291.259 205.306C291.259 205.33 291.023 205.341 290.561 205.341C290.1 205.341 289.414 205.294 288.563 205.093C286.872 204.726 284.365 203.662 282.391 201.144C281.421 199.89 280.605 198.306 280.262 196.461C279.931 194.628 279.978 192.547 280.711 190.56ZM280.818 196.355C281.113 198.116 281.882 199.642 282.781 200.848C282.911 201.013 283.041 201.155 283.171 201.309C283.94 199.062 285.642 196.591 289.462 196.012C287.688 195.267 286.423 193.434 286.411 191.27C286.411 188.444 288.539 186.138 291.188 186.126C293.837 186.114 296.001 188.396 296.013 191.223C296.013 193.398 294.747 195.255 292.95 196C296.84 196.591 298.567 199.074 299.359 201.321C299.489 201.167 299.631 201.014 299.761 200.836C300.66 199.618 301.417 198.093 301.724 196.343C302.02 194.593 301.949 192.63 301.239 190.761C300.908 189.827 300.412 188.917 299.785 188.089C299.17 187.249 298.413 186.481 297.526 185.854C295.788 184.553 293.565 183.82 291.271 183.797C288.977 183.82 286.754 184.553 285.016 185.854C284.141 186.481 283.372 187.249 282.757 188.089C282.13 188.917 281.634 189.827 281.303 190.761C280.581 192.63 280.522 194.593 280.818 196.331V196.355Z" fill="#A0AFC7"/>
<path d="M163.504 215.156C163.504 215.156 163.161 215.156 162.522 215.026C161.896 214.896 160.926 214.577 160.004 213.702C159.081 212.85 158.277 211.349 158.407 209.48C158.407 207.6 158.431 205.448 158.443 203.012C158.455 198.14 158.478 192.192 158.502 185.287C158.502 183.56 158.502 181.775 158.514 179.93C158.407 178.133 159.342 176.276 160.985 175.33C162.617 174.301 164.734 174.751 166.791 174.656C168.861 174.656 170.989 174.656 173.153 174.668C207.965 174.692 256.021 174.727 309.103 174.774C310.664 174.774 312.177 175.555 313.064 176.82C313.525 177.447 313.797 178.18 313.904 178.937C313.998 179.67 313.939 180.545 313.963 181.349C313.963 184.624 313.963 187.888 313.963 191.116C313.963 197.573 313.963 203.946 313.963 210.19C313.916 211.656 313.147 213.063 311.953 213.903C311.373 214.328 310.687 214.624 309.978 214.742C309.28 214.872 308.5 214.813 307.731 214.825C304.657 214.825 301.618 214.825 298.602 214.825C292.584 214.825 286.683 214.825 280.936 214.825C257.937 214.849 237.22 214.872 219.814 214.896C202.431 214.943 188.36 214.979 178.604 215.002C173.756 215.026 169.984 215.05 167.406 215.062C166.141 215.073 165.171 215.085 164.497 215.097C163.835 215.097 163.504 215.132 163.504 215.132C163.504 215.132 163.835 215.156 164.497 215.168C165.171 215.168 166.141 215.192 167.406 215.203C169.984 215.215 173.756 215.239 178.604 215.263C188.36 215.286 202.419 215.322 219.814 215.369C237.22 215.393 257.925 215.416 280.936 215.44C286.683 215.44 292.584 215.44 298.602 215.44C301.618 215.44 304.657 215.44 307.731 215.44C308.5 215.428 309.268 215.487 310.096 215.345C310.912 215.203 311.681 214.872 312.355 214.388C313.703 213.43 314.578 211.833 314.637 210.166C314.637 203.899 314.637 197.525 314.649 191.057C314.649 187.829 314.649 184.565 314.649 181.29C314.625 180.462 314.696 179.682 314.59 178.783C314.46 177.92 314.152 177.068 313.632 176.359C312.627 174.916 310.877 174.018 309.103 174.018C256.021 174.053 207.965 174.089 173.153 174.124C170.977 174.124 168.861 174.124 166.791 174.136C165.762 174.136 164.734 174.136 163.729 174.136C162.7 174.1 161.636 174.36 160.772 174.893C158.987 175.921 157.982 177.967 158.112 179.859C158.112 181.704 158.112 183.489 158.124 185.216C158.147 192.121 158.171 198.069 158.183 202.941C158.195 205.365 158.206 207.529 158.218 209.409C158.1 211.325 158.951 212.886 159.921 213.737C160.891 214.624 161.884 214.92 162.522 215.026C163.173 215.132 163.516 215.085 163.516 215.085L163.504 215.156Z" fill="#A0AFC7"/>
<path d="M309.247 215.156C309.247 215.156 309.59 215.156 310.229 215.026C310.855 214.896 311.825 214.577 312.747 213.702C313.67 212.85 314.474 211.349 314.344 209.48C314.344 207.6 314.32 205.448 314.308 203.012C314.296 198.14 314.273 192.192 314.249 185.287C314.249 183.56 314.249 181.775 314.237 179.93C314.344 178.133 313.409 176.276 311.766 175.33C310.134 174.301 308.017 174.751 305.96 174.656C303.89 174.656 301.762 174.656 299.598 174.668C264.786 174.692 216.73 174.727 163.648 174.774C162.087 174.774 160.574 175.555 159.687 176.82C159.226 177.447 158.954 178.18 158.847 178.937C158.753 179.67 158.812 180.545 158.788 181.349C158.788 184.624 158.788 187.888 158.788 191.116C158.788 197.573 158.788 203.946 158.788 210.19C158.835 211.656 159.604 213.063 160.798 213.903C161.378 214.328 162.064 214.624 162.773 214.742C163.471 214.872 164.251 214.813 165.02 214.825C168.094 214.825 171.133 214.825 174.148 214.825C180.167 214.825 186.068 214.825 191.815 214.825C214.814 214.849 235.531 214.872 252.937 214.896C270.32 214.943 284.391 214.979 294.147 215.002C298.995 215.026 302.767 215.05 305.345 215.062C306.61 215.073 307.58 215.085 308.254 215.097C308.916 215.097 309.247 215.132 309.247 215.132C309.247 215.132 308.916 215.156 308.254 215.168C307.58 215.168 306.61 215.192 305.345 215.203C302.767 215.215 298.995 215.239 294.147 215.263C284.391 215.286 270.332 215.322 252.937 215.369C235.531 215.393 214.826 215.416 191.815 215.44C186.068 215.44 180.167 215.44 174.148 215.44C171.133 215.44 168.094 215.44 165.02 215.44C164.251 215.428 163.483 215.487 162.655 215.345C161.839 215.203 161.07 214.872 160.396 214.388C159.048 213.43 158.173 211.833 158.114 210.166C158.114 203.899 158.114 197.525 158.102 191.057C158.102 187.829 158.102 184.565 158.102 181.29C158.126 180.462 158.055 179.682 158.161 178.783C158.291 177.92 158.599 177.068 159.119 176.359C160.124 174.916 161.874 174.018 163.648 174.018C216.73 174.053 264.786 174.089 299.598 174.124C301.774 174.124 303.89 174.124 305.96 174.136C306.988 174.136 308.017 174.136 309.022 174.136C310.051 174.1 311.115 174.36 311.979 174.893C313.764 175.921 314.769 177.967 314.639 179.859C314.639 181.704 314.639 183.489 314.627 185.216C314.604 192.121 314.58 198.069 314.568 202.941C314.556 205.365 314.545 207.529 314.533 209.409C314.651 211.325 313.8 212.886 312.83 213.737C311.86 214.624 310.867 214.92 310.229 215.026C309.578 215.132 309.235 215.085 309.235 215.085L309.247 215.156Z" fill="#A0AFC7"/>
<path d="M231.792 185.003H270.199V187.888H231.792V185.003Z" fill="#A0AFC7"/>
<path d="M202.916 201.274H270.199V204.159H202.916V201.274Z" fill="#A0AFC7"/>
<path d="M172.692 192.938H270.199V195.823H172.692V192.938Z" fill="#A0AFC7"/>
<path d="M313.939 126.816L314.027 158.258C314.034 160.825 311.959 162.911 309.392 162.918L162.694 163.328C160.128 163.335 158.041 161.26 158.034 158.694L157.946 127.252C157.939 124.685 160.014 122.599 162.581 122.592L309.279 122.182C311.845 122.175 313.932 124.25 313.939 126.816Z" fill="#00BFB3"/>
<path d="M231.406 132.99L269.813 132.883L269.821 135.768L231.414 135.875L231.406 132.99Z" fill="#FAFAFA"/>
<path d="M202.576 149.341L269.859 149.153L269.867 152.039L202.584 152.226L202.576 149.341Z" fill="#FAFAFA"/>
<path d="M172.328 141.089L269.835 140.817L269.844 143.702L172.336 143.974L172.328 141.089Z" fill="#FAFAFA"/>
<path d="M289.072 143.793C287.31 143.013 286.092 141.156 286.128 138.992C286.175 136.166 288.362 133.908 291.023 133.955C293.672 134.002 295.788 136.332 295.729 139.158C295.694 141.334 294.381 143.166 292.572 143.876C296.604 144.574 298.26 147.281 298.958 149.599C297.231 151.467 294.866 152.733 292.217 153.052L289.261 153.005C286.577 152.591 284.236 151.219 282.58 149.244C283.349 146.95 285.099 144.325 289.084 143.805L289.072 143.793Z" fill="#FAFAFA"/>
<path d="M290.68 153.135C290.68 153.064 289.71 153.088 288.055 152.615C286.435 152.153 284.058 150.995 282.273 148.5C281.398 147.258 280.664 145.721 280.404 143.947C280.144 142.197 280.251 140.222 281.007 138.366C281.362 137.431 281.871 136.533 282.521 135.717C283.148 134.889 283.928 134.132 284.827 133.529C286.589 132.264 288.847 131.578 291.141 131.602C293.447 131.673 295.658 132.453 297.373 133.801C298.248 134.452 298.993 135.232 299.584 136.095C300.187 136.947 300.672 137.857 300.979 138.815C301.653 140.707 301.677 142.67 301.346 144.42C301.003 146.17 300.211 147.684 299.277 148.878C297.385 151.29 294.961 152.343 293.317 152.733C291.65 153.135 290.668 153.052 290.668 153.135C290.668 153.135 291.638 153.3 293.364 152.969C295.055 152.638 297.586 151.621 299.608 149.15C300.601 147.92 301.452 146.347 301.831 144.515C302.197 142.694 302.197 140.624 301.5 138.626C301.18 137.621 300.684 136.651 300.045 135.752C299.419 134.842 298.638 134.014 297.716 133.328C295.918 131.909 293.565 131.07 291.129 130.999C288.693 130.963 286.317 131.696 284.448 133.044C283.502 133.695 282.686 134.487 282.024 135.374C281.35 136.249 280.806 137.195 280.452 138.188C279.671 140.151 279.577 142.221 279.872 144.053C280.168 145.898 280.96 147.506 281.894 148.771C283.81 151.337 286.293 152.449 287.96 152.863C289.675 153.277 290.656 153.147 290.656 153.147L290.68 153.135Z" fill="#FAFAFA"/>
<path d="M227.027 344.567C227.027 345.856 225.797 346.896 224.308 346.885C222.806 346.885 221.6 345.832 221.6 344.543C221.6 343.254 222.829 342.214 224.319 342.226C225.821 342.226 227.027 343.278 227.027 344.567Z" fill="#374355"/>
<path d="M235.447 344.603C235.447 345.892 234.217 346.932 232.727 346.92C231.237 346.908 230.019 345.868 230.019 344.579C230.019 343.29 231.249 342.25 232.739 342.261C234.24 342.261 235.447 343.314 235.447 344.603Z" fill="#374355"/>
<path d="M243.854 344.638C243.854 345.927 242.625 346.967 241.135 346.955C239.633 346.955 238.427 345.903 238.427 344.614C238.427 343.325 239.657 342.285 241.146 342.296C242.648 342.296 243.854 343.349 243.854 344.638Z" fill="#374355"/>
<path d="M292.063 258.033C291.543 258.092 291.259 258.104 291.271 258.151C291.271 258.104 291.011 258.104 290.526 258.045H292.063V258.033Z" fill="#A0AFC7"/>
<path d="M282.757 240.935C283.372 240.095 284.129 239.326 285.016 238.7C286.754 237.399 288.977 236.666 291.271 236.642C293.565 236.666 295.788 237.399 297.526 238.7C298.401 239.326 299.17 240.095 299.785 240.935C300.412 241.762 300.908 242.673 301.239 243.607C301.961 245.475 302.02 247.438 301.724 249.188C301.428 250.938 300.66 252.476 299.761 253.682C299.631 253.859 299.489 254.001 299.359 254.166C298.579 251.932 296.84 249.437 292.95 248.845C294.747 248.1 296.025 246.244 296.013 244.068C296.013 241.242 293.837 238.96 291.188 238.972C288.539 238.983 286.399 241.289 286.411 244.115C286.411 246.279 287.688 248.112 289.462 248.857C285.642 249.437 283.94 251.908 283.171 254.155C283.041 254.001 282.911 253.859 282.781 253.693C281.882 252.476 281.125 250.95 280.818 249.2C280.522 247.462 280.593 245.487 281.303 243.631C281.634 242.696 282.13 241.786 282.757 240.958V240.935Z" fill="#FAFAFA"/>
<path d="M280.711 243.394C281.054 242.401 281.575 241.431 282.225 240.544C282.875 239.645 283.679 238.829 284.602 238.155C286.435 236.76 288.811 235.98 291.259 235.956C293.707 235.98 296.072 236.76 297.917 238.155C298.851 238.829 299.655 239.645 300.293 240.544C300.955 241.431 301.476 242.401 301.807 243.394C302.552 245.38 302.587 247.462 302.256 249.294C301.913 251.139 301.086 252.735 300.128 253.977C298.153 256.508 295.646 257.56 293.955 257.927C293.104 258.116 292.418 258.175 291.957 258.175C291.496 258.175 291.259 258.175 291.259 258.139C291.259 258.092 291.543 258.092 292.051 258.021H290.514C290.999 258.08 291.259 258.092 291.259 258.139C291.259 258.163 291.023 258.175 290.561 258.175C290.1 258.175 289.414 258.128 288.563 257.927C286.872 257.56 284.365 256.496 282.391 253.977C281.421 252.724 280.605 251.139 280.262 249.294C279.931 247.462 279.978 245.38 280.711 243.394ZM280.818 249.188C281.113 250.95 281.882 252.475 282.781 253.681C282.911 253.847 283.041 253.989 283.171 254.143C283.94 251.896 285.642 249.425 289.462 248.845C287.688 248.1 286.423 246.267 286.411 244.103C286.411 241.277 288.539 238.971 291.188 238.96C293.837 238.948 296.001 241.23 296.013 244.056C296.013 246.232 294.747 248.088 292.95 248.833C296.84 249.425 298.567 251.908 299.359 254.154C299.489 254.001 299.631 253.847 299.761 253.67C300.66 252.452 301.417 250.926 301.724 249.176C302.02 247.426 301.949 245.463 301.239 243.595C300.908 242.661 300.412 241.75 299.785 240.922C299.17 240.083 298.413 239.314 297.526 238.688C295.788 237.387 293.565 236.654 291.271 236.63C288.977 236.654 286.754 237.387 285.016 238.688C284.141 239.314 283.372 240.083 282.757 240.922C282.13 241.75 281.634 242.661 281.303 243.595C280.581 245.463 280.522 247.426 280.818 249.164V249.188Z" fill="#A0AFC7"/>
<path d="M163.504 268.001C163.504 268.001 163.161 268.001 162.522 267.871C161.896 267.741 160.926 267.422 160.004 266.547C159.081 265.696 158.277 264.194 158.407 262.325C158.407 260.445 158.431 258.293 158.443 255.857C158.455 250.985 158.478 245.038 158.502 238.132C158.502 236.405 158.502 234.62 158.514 232.775C158.407 230.978 159.342 229.121 160.985 228.175C162.617 227.147 164.734 227.596 166.791 227.501C168.861 227.501 170.989 227.501 173.153 227.513C207.965 227.537 256.021 227.572 309.103 227.62C310.664 227.62 312.177 228.4 313.064 229.665C313.525 230.292 313.797 231.025 313.904 231.782C313.998 232.515 313.939 233.39 313.963 234.194C313.963 237.47 313.963 240.733 313.963 243.961C313.963 250.418 313.963 256.791 313.963 263.035C313.916 264.501 313.147 265.908 311.953 266.748C311.373 267.174 310.687 267.469 309.978 267.587C309.28 267.718 308.5 267.658 307.731 267.67C304.657 267.67 301.618 267.67 298.602 267.67C292.584 267.67 286.683 267.67 280.936 267.67C257.937 267.694 237.22 267.718 219.814 267.741C202.431 267.788 188.36 267.824 178.604 267.848C173.756 267.871 169.984 267.895 167.406 267.907C166.141 267.919 165.171 267.93 164.497 267.942C163.835 267.942 163.504 267.978 163.504 267.978C163.504 267.978 163.835 268.001 164.497 268.013C165.171 268.013 166.141 268.037 167.406 268.049C169.984 268.06 173.756 268.084 178.604 268.108C188.36 268.131 202.419 268.167 219.814 268.214C237.22 268.238 257.925 268.261 280.936 268.285C286.683 268.285 292.584 268.285 298.602 268.285C301.618 268.285 304.657 268.285 307.731 268.285C308.5 268.273 309.268 268.332 310.096 268.191C310.912 268.049 311.681 267.718 312.355 267.233C313.703 266.275 314.578 264.679 314.637 263.011C314.637 256.744 314.637 250.371 314.649 243.902C314.649 240.674 314.649 237.411 314.649 234.135C314.625 233.307 314.696 232.527 314.59 231.628C314.46 230.765 314.152 229.914 313.632 229.204C312.627 227.761 310.877 226.863 309.103 226.863C256.021 226.898 207.965 226.934 173.153 226.969C170.977 226.969 168.861 226.969 166.791 226.981C165.762 226.981 164.734 226.981 163.729 226.981C162.7 226.946 161.636 227.206 160.772 227.738C158.987 228.767 157.982 230.812 158.112 232.704C158.112 234.549 158.112 236.334 158.124 238.061C158.147 244.967 158.171 250.914 158.183 255.786C158.195 258.21 158.206 260.374 158.218 262.254C158.1 264.17 158.951 265.731 159.921 266.582C160.891 267.469 161.884 267.765 162.522 267.871C163.173 267.978 163.516 267.93 163.516 267.93L163.504 268.001Z" fill="#A0AFC7"/>
<path d="M309.247 268.001C309.247 268.001 309.59 268.001 310.229 267.871C310.855 267.741 311.825 267.422 312.747 266.547C313.67 265.696 314.474 264.194 314.344 262.325C314.344 260.445 314.32 258.293 314.308 255.857C314.296 250.985 314.273 245.038 314.249 238.132C314.249 236.405 314.249 234.62 314.237 232.775C314.344 230.978 313.409 229.121 311.766 228.175C310.134 227.147 308.017 227.596 305.96 227.501C303.89 227.501 301.762 227.501 299.598 227.513C264.786 227.537 216.73 227.572 163.648 227.62C162.087 227.62 160.574 228.4 159.687 229.665C159.226 230.292 158.954 231.025 158.847 231.782C158.753 232.515 158.812 233.39 158.788 234.194C158.788 237.47 158.788 240.733 158.788 243.961C158.788 250.418 158.788 256.791 158.788 263.035C158.835 264.501 159.604 265.908 160.798 266.748C161.378 267.174 162.064 267.469 162.773 267.587C163.471 267.718 164.251 267.658 165.02 267.67C168.094 267.67 171.133 267.67 174.148 267.67C180.167 267.67 186.068 267.67 191.815 267.67C214.814 267.694 235.531 267.718 252.937 267.741C270.32 267.788 284.391 267.824 294.147 267.848C298.995 267.871 302.767 267.895 305.345 267.907C306.61 267.919 307.58 267.93 308.254 267.942C308.916 267.942 309.247 267.978 309.247 267.978C309.247 267.978 308.916 268.001 308.254 268.013C307.58 268.013 306.61 268.037 305.345 268.049C302.767 268.06 298.995 268.084 294.147 268.108C284.391 268.131 270.332 268.167 252.937 268.214C235.531 268.238 214.826 268.261 191.815 268.285C186.068 268.285 180.167 268.285 174.148 268.285C171.133 268.285 168.094 268.285 165.02 268.285C164.251 268.273 163.483 268.332 162.655 268.191C161.839 268.049 161.07 267.718 160.396 267.233C159.048 266.275 158.173 264.679 158.114 263.011C158.114 256.744 158.114 250.371 158.102 243.902C158.102 240.674 158.102 237.411 158.102 234.135C158.126 233.307 158.055 232.527 158.161 231.628C158.291 230.765 158.599 229.914 159.119 229.204C160.124 227.761 161.874 226.863 163.648 226.863C216.73 226.898 264.786 226.934 299.598 226.969C301.774 226.969 303.89 226.969 305.96 226.981C306.988 226.981 308.017 226.981 309.022 226.981C310.051 226.946 311.115 227.206 311.979 227.738C313.764 228.767 314.769 230.812 314.639 232.704C314.639 234.549 314.639 236.334 314.627 238.061C314.604 244.967 314.58 250.914 314.568 255.786C314.556 258.21 314.545 260.374 314.533 262.254C314.651 264.17 313.8 265.731 312.83 266.582C311.86 267.469 310.867 267.765 310.229 267.871C309.578 267.978 309.235 267.93 309.235 267.93L309.247 268.001Z" fill="#A0AFC7"/>
<path d="M231.792 237.848H270.199V240.733H231.792V237.848Z" fill="#A0AFC7"/>
<path d="M202.916 254.119H270.199V257.004H202.916V254.119Z" fill="#A0AFC7"/>
<path d="M172.692 245.783H270.199V248.668H172.692V245.783Z" fill="#A0AFC7"/>
<path d="M292.063 309.826C291.543 309.885 291.259 309.897 291.271 309.944C291.271 309.897 291.011 309.897 290.526 309.838H292.063V309.826Z" fill="#A0AFC7"/>
<path d="M282.757 292.727C283.372 291.887 284.129 291.119 285.016 290.492C286.754 289.191 288.977 288.458 291.271 288.435C293.565 288.458 295.788 289.191 297.526 290.492C298.401 291.119 299.17 291.887 299.785 292.727C300.412 293.555 300.908 294.465 301.239 295.399C301.961 297.268 302.02 299.231 301.724 300.981C301.428 302.743 300.66 304.268 299.761 305.474C299.631 305.652 299.489 305.793 299.359 305.959C298.579 303.724 296.84 301.229 292.95 300.638C294.747 299.893 296.025 298.036 296.013 295.861C296.013 293.034 293.837 290.752 291.188 290.764C288.539 290.776 286.399 293.082 286.411 295.908C286.411 298.072 287.688 299.905 289.462 300.65C285.642 301.229 283.94 303.7 283.171 305.947C283.041 305.793 282.911 305.652 282.781 305.486C281.882 304.268 281.125 302.743 280.818 300.993C280.522 299.254 280.593 297.28 281.303 295.423C281.634 294.489 282.13 293.578 282.757 292.751V292.727Z" fill="#FAFAFA"/>
<path d="M280.711 295.186C281.054 294.193 281.575 293.223 282.225 292.337C282.875 291.438 283.679 290.622 284.602 289.948C286.435 288.553 288.811 287.772 291.259 287.749C293.707 287.772 296.072 288.553 297.917 289.948C298.851 290.622 299.655 291.438 300.293 292.337C300.955 293.223 301.476 294.193 301.807 295.186C302.552 297.173 302.587 299.254 302.256 301.087C301.913 302.932 301.086 304.528 300.128 305.77C298.153 308.3 295.646 309.352 293.955 309.719C293.104 309.908 292.418 309.967 291.957 309.967C291.496 309.967 291.259 309.967 291.259 309.932C291.259 309.885 291.543 309.885 292.051 309.814H290.514C290.999 309.873 291.259 309.885 291.259 309.932C291.259 309.956 291.023 309.967 290.561 309.967C290.1 309.967 289.414 309.92 288.563 309.719C286.872 309.352 284.365 308.288 282.391 305.77C281.421 304.516 280.605 302.932 280.262 301.087C279.931 299.254 279.978 297.173 280.711 295.186ZM280.818 300.981C281.113 302.742 281.882 304.268 282.781 305.474C282.911 305.639 283.041 305.781 283.171 305.935C283.94 303.688 285.642 301.217 289.462 300.638C287.688 299.893 286.423 298.06 286.411 295.896C286.411 293.07 288.539 290.764 291.188 290.752C293.837 290.74 296.001 293.022 296.013 295.849C296.013 298.024 294.747 299.881 292.95 300.626C296.84 301.217 298.567 303.7 299.359 305.947C299.489 305.793 299.631 305.639 299.761 305.462C300.66 304.244 301.417 302.719 301.724 300.969C302.02 299.23 301.949 297.256 301.239 295.387C300.908 294.453 300.412 293.543 299.785 292.715C299.17 291.875 298.413 291.107 297.526 290.48C295.788 289.179 293.565 288.446 291.271 288.423C288.977 288.446 286.754 289.179 285.016 290.48C284.141 291.107 283.372 291.875 282.757 292.715C282.13 293.543 281.634 294.453 281.303 295.387C280.581 297.256 280.522 299.219 280.818 300.957V300.981Z" fill="#A0AFC7"/>
<path d="M163.504 319.782C163.504 319.782 163.161 319.782 162.522 319.652C161.896 319.522 160.926 319.203 160.004 318.328C159.081 317.476 158.277 315.974 158.407 314.106C158.407 312.226 158.431 310.074 158.443 307.638C158.455 302.766 158.478 296.818 158.502 289.913C158.502 288.186 158.502 286.401 158.514 284.556C158.407 282.759 159.342 280.902 160.985 279.956C162.617 278.927 164.734 279.377 166.791 279.282C168.861 279.282 170.989 279.282 173.153 279.294C207.965 279.318 256.021 279.353 309.103 279.4C310.664 279.4 312.177 280.181 313.064 281.446C313.525 282.073 313.797 282.806 313.904 283.563C313.998 284.296 313.939 285.171 313.963 285.975C313.963 289.25 313.963 292.514 313.963 295.742C313.963 302.199 313.963 308.572 313.963 314.816C313.916 316.282 313.147 317.689 311.953 318.529C311.373 318.954 310.687 319.25 309.978 319.368C309.28 319.498 308.5 319.439 307.731 319.451C304.657 319.451 301.618 319.451 298.602 319.451C292.584 319.451 286.683 319.451 280.936 319.451C257.937 319.475 237.22 319.498 219.814 319.522C202.431 319.569 188.36 319.605 178.604 319.628C173.756 319.652 169.984 319.676 167.406 319.687C166.141 319.699 165.171 319.711 164.497 319.723C163.835 319.723 163.504 319.758 163.504 319.758C163.504 319.758 163.835 319.782 164.497 319.794C165.171 319.794 166.141 319.818 167.406 319.829C169.984 319.841 173.756 319.865 178.604 319.889C188.36 319.912 202.419 319.948 219.814 319.995C237.22 320.019 257.925 320.042 280.936 320.066C286.683 320.066 292.584 320.066 298.602 320.066C301.618 320.066 304.657 320.066 307.731 320.066C308.5 320.054 309.268 320.113 310.096 319.971C310.912 319.829 311.681 319.498 312.355 319.013C313.703 318.056 314.578 316.459 314.637 314.792C314.637 308.525 314.637 302.151 314.649 295.683C314.649 292.455 314.649 289.191 314.649 285.916C314.625 285.088 314.696 284.308 314.59 283.409C314.46 282.546 314.152 281.694 313.632 280.985C312.627 279.542 310.877 278.644 309.103 278.644C256.021 278.679 207.965 278.714 173.153 278.75C170.977 278.75 168.861 278.75 166.791 278.762C165.762 278.762 164.734 278.762 163.729 278.762C162.7 278.726 161.636 278.986 160.772 279.519C158.987 280.547 157.982 282.593 158.112 284.497C158.112 286.342 158.112 288.127 158.124 289.853C158.147 296.759 158.171 302.707 158.183 307.579C158.195 310.003 158.206 312.167 158.218 314.047C158.1 315.963 158.951 317.524 159.921 318.375C160.891 319.262 161.884 319.557 162.522 319.664C163.173 319.77 163.516 319.723 163.516 319.723L163.504 319.782Z" fill="#A0AFC7"/>
<path d="M309.247 319.782C309.247 319.782 309.59 319.782 310.229 319.652C310.855 319.522 311.825 319.203 312.747 318.328C313.67 317.476 314.474 315.974 314.344 314.106C314.344 312.226 314.32 310.074 314.308 307.638C314.296 302.766 314.273 296.818 314.249 289.913C314.249 288.186 314.249 286.401 314.237 284.556C314.344 282.759 313.409 280.902 311.766 279.956C310.134 278.927 308.017 279.377 305.96 279.282C303.89 279.282 301.762 279.282 299.598 279.294C264.786 279.318 216.73 279.353 163.648 279.4C162.087 279.4 160.574 280.181 159.687 281.446C159.226 282.073 158.954 282.806 158.847 283.563C158.753 284.296 158.812 285.171 158.788 285.975C158.788 289.25 158.788 292.514 158.788 295.742C158.788 302.199 158.788 308.572 158.788 314.816C158.835 316.282 159.604 317.689 160.798 318.529C161.378 318.954 162.064 319.25 162.773 319.368C163.471 319.498 164.251 319.439 165.02 319.451C168.094 319.451 171.133 319.451 174.148 319.451C180.167 319.451 186.068 319.451 191.815 319.451C214.814 319.475 235.531 319.498 252.937 319.522C270.32 319.569 284.391 319.605 294.147 319.628C298.995 319.652 302.767 319.676 305.345 319.687C306.61 319.699 307.58 319.711 308.254 319.723C308.916 319.723 309.247 319.758 309.247 319.758C309.247 319.758 308.916 319.782 308.254 319.794C307.58 319.794 306.61 319.818 305.345 319.829C302.767 319.841 298.995 319.865 294.147 319.889C284.391 319.912 270.332 319.948 252.937 319.995C235.531 320.019 214.826 320.042 191.815 320.066C186.068 320.066 180.167 320.066 174.148 320.066C171.133 320.066 168.094 320.066 165.02 320.066C164.251 320.054 163.483 320.113 162.655 319.971C161.839 319.829 161.07 319.498 160.396 319.013C159.048 318.056 158.173 316.459 158.114 314.792C158.114 308.525 158.114 302.151 158.102 295.683C158.102 292.455 158.102 289.191 158.102 285.916C158.126 285.088 158.055 284.308 158.161 283.409C158.291 282.546 158.599 281.694 159.119 280.985C160.124 279.542 161.874 278.644 163.648 278.644C216.73 278.679 264.786 278.714 299.598 278.75C301.774 278.75 303.89 278.75 305.96 278.762C306.988 278.762 308.017 278.762 309.022 278.762C310.051 278.726 311.115 278.986 311.979 279.519C313.764 280.547 314.769 282.593 314.639 284.497C314.639 286.342 314.639 288.127 314.627 289.853C314.604 296.759 314.58 302.707 314.568 307.579C314.556 310.003 314.545 312.167 314.533 314.047C314.651 315.963 313.8 317.524 312.83 318.375C311.86 319.262 310.867 319.557 310.229 319.664C309.578 319.77 309.235 319.723 309.235 319.723L309.247 319.782Z" fill="#A0AFC7"/>
<path d="M231.792 289.641H270.199V292.526H231.792V289.641Z" fill="#A0AFC7"/>
<path d="M202.916 305.912H270.199V308.797H202.916V305.912Z" fill="#A0AFC7"/>
<path d="M172.692 297.575H270.199V300.46H172.692V297.575Z" fill="#A0AFC7"/>
</g>
<defs>
<clipPath id="clip0_985_17994">
<rect width="485" height="390" fill="white" transform="translate(0.5 0.5)"/>
</clipPath>
</defs>
</svg>
