<svg width="20" height="23" viewBox="0 0 20 23" fill="none" xmlns="http://www.w3.org/2000/svg">
<g clip-path="url(#clip0_3909_22893)">
<path d="M9.24554 0.714286C9.24554 0.319821 9.60714 0 9.95982 0C10.3929 0 10.7143 0.319821 10.7143 0.714286V1.46384C14.3259 1.82232 17.1429 4.86607 17.1429 8.57143V9.87054C17.1429 11.8214 17.9196 13.692 19.2991 15.0759L19.4196 15.1964C19.7902 15.567 20 16.0312 20 16.5938C20 17.6875 19.1161 18.5714 18.0223 18.5714H1.97679C0.885268 18.5714 0 17.6875 0 16.5938C0 16.0312 0.208304 15.567 0.579018 15.1964L0.701786 15.0759C2.0817 13.692 2.85714 11.8214 2.85714 9.87054V8.57143C2.85714 4.86607 5.67411 1.82232 9.28571 1.46384L9.24554 0.714286ZM9.95982 2.85714C6.84375 2.85714 4.24554 5.41518 4.24554 8.57143V9.87054C4.24554 12.2009 3.35982 14.4375 1.71205 16.0848L1.58929 16.2054C1.48616 16.308 1.38839 16.4509 1.38839 16.5938C1.38839 16.8973 1.67411 17.1429 1.97679 17.1429H18.0223C18.3259 17.1429 18.5714 16.8973 18.5714 16.5938C18.5714 16.4509 18.5134 16.308 18.4107 16.2054L18.2902 16.0848C16.6384 14.4375 15.7143 12.2009 15.7143 9.87054V8.57143C15.7143 5.41518 13.1563 2.85714 9.95982 2.85714ZM9.95982 21.4286C10.6205 21.4286 11.1518 21.0313 11.3482 20.4777C11.4777 20.1027 11.8884 19.8705 12.2589 20.0402C12.6295 20.1741 12.8259 20.5804 12.6964 20.9509C12.3036 22.0625 11.2455 22.8571 9.95982 22.8571C8.75447 22.8571 7.69643 22.0625 7.30357 20.9509C7.17411 20.5804 7.37054 20.1741 7.74107 20.0402C8.11161 19.8705 8.52232 20.1027 8.65179 20.4777C8.84822 21.0313 9.37947 21.4286 9.95982 21.4286Z" fill="#374355"/>
</g>
<defs>
<clipPath id="clip0_3909_22893">
<rect width="20" height="22.8571" fill="white"/>
</clipPath>
</defs>
</svg>
