<svg width="30" height="30" viewBox="0 0 30 30" fill="none" xmlns="http://www.w3.org/2000/svg">
<g clip-path="url(#clip0_2404_1216)">
<path d="M15 3.75C22.2363 3.75 28.0723 8.37891 28.0723 14.0625C28.0723 19.7461 22.2363 24.375 15 24.375C13.3447 24.375 11.7047 24.126 10.1227 23.6279C9.56509 23.4482 8.95548 23.5424 8.47794 23.8821C7.18302 24.8343 5.04787 25.9499 2.46037 26.2059C3.11076 25.32 4.20353 23.8329 4.84748 22.1266L4.85502 22.1068C5.10597 21.4464 4.9599 20.7533 4.47832 20.1837C2.7838 18.3457 1.87853 16.2656 1.87853 14.0625C1.87853 8.37891 7.76954 3.75 15 3.75ZM15 1.875C6.72072 1.875 0.00160807 7.33008 0.00160807 14.0625C0.00160807 16.8533 1.1688 19.4092 3.1018 21.457C2.23051 23.7715 0.414108 25.7273 0.384811 25.749C-0.00331378 26.1592 -0.105853 26.7598 0.113815 27.2725C0.340854 27.7852 0.842592 28.125 1.40626 28.125C5.00919 28.125 7.79884 26.6162 9.55665 25.415C11.2559 25.9453 13.084 26.25 15 26.25C23.2852 26.25 29.9473 20.7932 29.9473 14.0625C29.9473 7.33184 23.2852 1.875 15 1.875Z" fill="#374355"/>
</g>
<defs>
<clipPath id="clip0_2404_1216">
<rect width="30" height="30" fill="white"/>
</clipPath>
</defs>
</svg>
