<svg width="30" height="28" viewBox="0 0 30 28" fill="none" xmlns="http://www.w3.org/2000/svg">
<path d="M7.5 15.4062V3.21875C7.5 1.92617 6.45117 0.875 5.15625 0.875H2.34375C1.05117 0.875 0 1.92617 0 3.21875V15.4062C0 16.7012 1.05117 17.75 2.34375 17.75H5.15625C6.45117 17.75 7.5 16.7012 7.5 15.4062ZM5.625 15.4062C5.625 15.6641 5.41465 15.875 5.15625 15.875H2.34375C2.08535 15.875 1.875 15.6641 1.875 15.4062V3.21875C1.875 2.96035 2.08535 2.75 2.34375 2.75H5.15625C5.41465 2.75 5.625 2.96035 5.625 3.21875V15.4062ZM28.002 12.8105C28.1466 12.4196 28.2217 12.0037 28.2217 11.5813C28.2217 10.2354 27.4746 9.03711 26.3432 8.4207C26.41 8.14695 26.4448 7.86588 26.4448 7.58457C26.4448 6.29199 25.7545 5.12715 24.6676 4.49082C24.668 2.50625 23.0508 0.875 21.0645 0.875H17.8066C13.2709 0.875 9.375 4.57285 9.375 5.5666C9.375 6.08029 9.79295 6.50176 10.3125 6.50176C11.4727 6.5 13.0195 2.75 17.8066 2.75H21.0662C22.0195 2.75 22.7947 3.52461 22.7947 4.47676C22.7947 4.75953 22.7253 4.85709 22.7253 5.06328C22.7253 6.29023 24.5716 5.77168 24.5716 7.58574C24.5716 8.33809 24.1752 8.4459 24.1752 8.96621C24.1752 9.51389 24.6003 9.8252 24.9404 9.88906C25.7561 10.0411 26.3484 10.7533 26.3484 11.5818C26.3484 12.623 25.6418 12.6629 25.6418 13.3766C25.6418 13.8637 26.0193 14.2777 26.5154 14.3117C27.416 14.375 28.125 15.125 28.125 16.0215C28.125 16.9766 27.3516 17.75 26.3965 17.75H18.8789C18.3942 17.75 17.9941 18.1401 17.9941 18.6881C17.9941 18.8462 18.034 19.0044 18.114 19.1469C19.1529 20.9943 19.6738 22.9783 19.6738 23.5695C19.623 24.2656 19.0781 25.25 17.8652 25.25C16.8867 25.25 16.7133 24.9598 16.1789 23.3293C14.9021 19.4381 14.0613 19.2588 10.9752 16.1516C10.793 15.9688 10.5527 15.875 10.3125 15.875C9.80859 15.875 9.375 16.2793 9.375 16.7598C9.375 18.1221 12.7699 18.9002 14.3982 23.8613C14.8945 25.4199 15.4453 27.125 17.8652 27.125C20.1369 27.125 21.4986 25.318 21.4986 23.5701C21.4986 22.7592 21.0976 21.2105 20.3953 19.625H26.4012C28.3828 19.625 30 18.0078 30 16.0215C30 14.6328 29.1914 13.4023 28.002 12.8105Z" fill="#374355"/>
</svg>
