<svg width="20" height="21" viewBox="0 0 20 21" fill="none" xmlns="http://www.w3.org/2000/svg">
<path d="M9.96484 4.25003L10.4336 3.78206C11.7422 2.50667 13.5547 1.9262 15.3359 2.22269C18.0273 2.67112 20 5.00003 20 7.7305V7.95706C20 9.57816 19.3281 11.1289 18.1406 12.2344L11.082 18.8243C10.7891 19.0977 10.4023 19.25 10 19.25C9.59766 19.25 9.21094 19.0977 8.91797 18.8243L1.85898 12.2344C0.673047 11.1289 0 9.57816 0 7.95706V7.7305C0 5.00003 1.97344 2.67112 4.66406 2.22269C6.41016 1.9262 8.25781 2.50667 9.53125 3.78206L9.96484 4.25003ZM9.96484 6.01956L8.64844 4.66409C7.66016 3.6762 6.25 3.22542 4.87109 3.4555C2.78164 3.80394 1.21484 5.61331 1.21484 7.7305V7.95706C1.21484 9.23441 1.7793 10.4493 2.71172 11.3203L9.76953 17.9102C9.83203 17.9688 9.91406 18 9.96484 18C10.0859 18 10.168 17.9688 10.2305 17.9102L17.2891 11.3203C18.2188 10.4493 18.75 9.23441 18.75 7.95706V7.7305C18.75 5.61331 17.2188 3.80394 15.1289 3.4555C13.7148 3.22542 12.3398 3.6762 11.3516 4.66409L9.96484 6.01956Z" fill="#374355"/>
</svg>
