<svg width="30" height="28" viewBox="0 0 30 28" fill="none" xmlns="http://www.w3.org/2000/svg">
<path d="M5.15625 10.25H2.34375C1.05117 10.25 0 11.2988 0 12.5938V24.7812C0 26.0762 1.05117 27.125 2.34375 27.125H5.15625C6.45117 27.125 7.5 26.0762 7.5 24.7812V12.5938C7.5 11.2988 6.45117 10.25 5.15625 10.25ZM5.625 24.7812C5.625 25.0391 5.41465 25.25 5.15625 25.25H2.34375C2.08535 25.25 1.875 25.0391 1.875 24.7812V12.5938C1.875 12.3359 2.08535 12.125 2.34375 12.125H5.15625C5.41465 12.125 5.625 12.3359 5.625 12.5938V24.7812ZM30 11.9785C30 9.99219 28.3828 8.375 26.3965 8.375H20.3906C21.0926 6.78945 21.4939 5.24141 21.4939 4.42988C21.498 2.68203 20.1328 0.875 17.8652 0.875C15.45 0.875 14.8945 2.58066 14.4012 4.08652C12.7793 9.02539 9.375 9.82812 9.375 11.1875C9.375 11.7207 9.81445 12.125 10.3125 12.125C10.5527 12.125 10.793 12.0312 10.9746 11.8496C14.0613 8.7418 14.9016 8.56191 16.1783 4.67188C16.7168 3.04004 16.8867 2.75 17.8652 2.75C19.0758 2.75 19.6195 3.73262 19.6195 4.42988C19.6195 5.02109 19.0986 7.00508 18.0598 8.85254C17.9797 8.99504 17.9399 9.15318 17.9399 9.31133C17.9414 9.86914 18.3984 10.25 18.8789 10.25H26.3965C27.3516 10.25 28.125 11.0234 28.125 11.9785C28.125 12.8768 27.4172 13.6285 26.5148 13.6895C26.019 13.7235 25.6412 14.1376 25.6412 14.6246C25.6412 15.3389 26.3479 15.3781 26.3479 16.4193C26.3479 17.2479 25.7555 17.9604 24.9398 18.1121C24.6013 18.1755 24.1746 18.4881 24.1746 19.035C24.1746 19.5556 24.571 19.6631 24.571 20.4154C24.571 22.233 22.7247 21.7115 22.7247 22.9379C22.7247 23.1445 22.7941 23.2385 22.7941 23.5244C22.793 24.4766 22.0195 25.25 21.0645 25.25H17.8066C13.0014 25.25 11.4609 21.4988 10.3125 21.4988C9.7926 21.4988 9.375 21.9203 9.375 22.434C9.32227 23.3926 13.1602 27.125 17.8066 27.125H21.0662C23.0531 27.125 24.6697 25.509 24.6697 23.5232C25.7566 22.8869 26.4469 21.7068 26.4469 20.4143C26.4469 20.1332 26.4121 19.8521 26.3453 19.5781C27.4767 18.9617 28.2238 17.7635 28.2238 16.4176C28.2238 15.9946 28.1487 15.5791 28.0041 15.1883C29.1914 14.5977 30 13.373 30 11.9785Z" fill="#374355"/>
</svg>
