<svg width="20" height="24" viewBox="0 0 20 24" fill="none" xmlns="http://www.w3.org/2000/svg">
<path d="M20 5.8572C20 7.83041 18.4018 9.42862 16.4286 9.42862C15.4062 9.42862 14.4821 9.00005 13.8348 8.27237L7.09375 11.6831C7.125 11.8795 7.14286 12.0804 7.14286 12.2858C7.14286 12.4911 7.125 12.692 7.09375 12.8884L13.8348 16.259C14.4821 15.5715 15.4062 15.1429 16.4286 15.1429C18.4018 15.1429 20 16.7411 20 18.7143C20 20.6876 18.4018 22.2858 16.4286 22.2858C14.4554 22.2858 12.8571 20.6876 12.8571 18.7143C12.8571 18.2813 12.933 17.8259 13.0759 17.4777L6.57143 14.2277C5.93304 15.2099 4.83036 15.8572 3.57143 15.8572C1.59911 15.8572 0 14.259 0 12.2858C0 10.3126 1.59911 8.71434 3.57143 8.71434C4.83036 8.71434 5.93304 9.36166 6.57143 10.3438L13.0759 7.0938C12.933 6.70541 12.8571 6.29023 12.8571 5.8572C12.8571 3.88487 14.4554 2.28577 16.4286 2.28577C18.4018 2.28577 20 3.88487 20 5.8572ZM3.53125 14.4286C4.75446 14.4286 5.67411 13.4688 5.67411 12.2858C5.67411 11.1027 4.75446 10.1429 3.53125 10.1429C2.38795 10.1429 1.38839 11.1027 1.38839 12.2858C1.38839 13.4688 2.38795 14.4286 3.53125 14.4286ZM16.4286 3.71434C15.2455 3.71434 14.2857 4.67371 14.2857 5.8572C14.2857 7.04023 15.2455 8.00005 16.4286 8.00005C17.6116 8.00005 18.5714 7.04023 18.5714 5.8572C18.5714 4.67371 17.6116 3.71434 16.4286 3.71434ZM16.4286 20.8572C17.6116 20.8572 18.5714 19.8974 18.5714 18.7143C18.5714 17.5313 17.6116 16.5715 16.4286 16.5715C15.2455 16.5715 14.2857 17.5313 14.2857 18.7143C14.2857 19.8974 15.2455 20.8572 16.4286 20.8572Z" fill="#374355"/>
</svg>
