<svg width="21" height="24" viewBox="0 0 21 24" fill="none" xmlns="http://www.w3.org/2000/svg">
<path d="M0 3.75C0 3.33562 0.335812 3 0.75 3H20.25C20.6625 3 21 3.33562 21 3.75C21 4.16438 20.6625 4.5 20.25 4.5H0.75C0.335812 4.5 0 4.16438 0 3.75ZM0 11.25C0 10.8375 0.335812 10.5 0.75 10.5H20.25C20.6625 10.5 21 10.8375 21 11.25C21 11.6625 20.6625 12 20.25 12H0.75C0.335812 12 0 11.6625 0 11.25ZM20.25 19.5H0.75C0.335812 19.5 0 19.1625 0 18.75C0 18.3375 0.335812 18 0.75 18H20.25C20.6625 18 21 18.3375 21 18.75C21 19.1625 20.6625 19.5 20.25 19.5Z" fill="#374355"/>
</svg>
