<svg width="21" height="24" viewBox="0 0 21 24" fill="none" xmlns="http://www.w3.org/2000/svg">
<g id="bell 6" clip-path="url(#clip0_2540_5344)">
<path id="Vector" d="M10.125 0.375C10.125 0.16875 10.2937 0 10.5 0C10.7063 0 10.875 0.16875 10.875 0.375V1.5V1.50938C14.8406 1.70625 18 4.98281 18 9V10.7156C18 12.675 18.6656 14.5734 19.8891 16.1016L20.6719 17.0812C20.8828 17.3438 20.9953 17.6719 20.9953 18.0094C20.9953 18.8297 20.3297 19.4953 19.5094 19.4953H1.48594C0.665625 19.5 0 18.8344 0 18.0141C0 17.6766 0.1125 17.3484 0.323438 17.0859L1.10625 16.1063C2.33438 14.5781 3 12.675 3 10.7156V9C3 4.98281 6.15938 1.70625 10.125 1.50938V1.5V0.375ZM10.5 2.25C6.77344 2.25 3.75 5.27344 3.75 9V10.7156C3.75 12.8438 3.02344 14.9109 1.69688 16.5703L0.909375 17.5547C0.80625 17.6859 0.75 17.8453 0.75 18.0141C0.75 18.4219 1.07812 18.75 1.48594 18.75H19.5141C19.9219 18.75 20.25 18.4219 20.25 18.0141C20.25 17.8453 20.1938 17.6859 20.0906 17.5547L19.3078 16.575C17.9766 14.9109 17.25 12.8484 17.25 10.7156V9C17.25 5.27344 14.2266 2.25 10.5 2.25ZM8.25 21C8.25 21.5953 8.48906 22.1672 8.91094 22.5891C9.33281 23.0109 9.90469 23.25 10.5 23.25C11.0953 23.25 11.6672 23.0109 12.0891 22.5891C12.5109 22.1672 12.75 21.5953 12.75 21C12.75 20.7938 12.9187 20.625 13.125 20.625C13.3313 20.625 13.5 20.7938 13.5 21C13.5 21.7969 13.1859 22.5609 12.6234 23.1234C12.0609 23.6859 11.2969 24 10.5 24C9.70312 24 8.93906 23.6859 8.37656 23.1234C7.81406 22.5609 7.5 21.7969 7.5 21C7.5 20.7938 7.66875 20.625 7.875 20.625C8.08125 20.625 8.25 20.7938 8.25 21Z" fill="#374355"/>
</g>
<defs>
<clipPath id="clip0_2540_5344">
<rect width="21" height="24" fill="white"/>
</clipPath>
</defs>
</svg>
