<svg width="20" height="24" viewBox="0 0 20 24" fill="none" xmlns="http://www.w3.org/2000/svg">
<path id="Vector" d="M11.6362 0.857143C5.66974 0.857143 0.83302 5.84464 0.83302 12C0.83302 18.1554 5.66974 23.1429 11.6362 23.1429C14.5622 23.1429 17.2175 21.9429 19.1647 19.9929C18.6076 20.0946 18.0349 20.1429 17.4518 20.1429C11.9434 20.1429 7.48156 15.5357 7.48156 9.85714C7.48156 6.01607 9.52767 2.6625 12.5526 0.894643C12.2506 0.867857 11.9434 0.857143 11.6362 0.857143ZM0 12C0 5.37321 5.20637 0 11.6362 0C11.9695 0 12.2975 0.0160714 12.6255 0.0428571C12.9899 0.075 13.2919 0.348214 13.37 0.7125C13.4481 1.07679 13.2867 1.45714 12.9691 1.63929C10.1941 3.25714 8.31979 6.33214 8.31979 9.85179C8.31979 15.0589 12.412 19.2804 17.457 19.2804C17.9932 19.2804 18.5191 19.2321 19.0241 19.1411C19.3833 19.0768 19.7426 19.2589 19.9092 19.5964C20.0758 19.9339 20.0081 20.3357 19.7478 20.5982C17.6496 22.7036 14.7861 24 11.6362 24C5.20637 24 0 18.6268 0 12Z" fill="#374355"/>
</svg>
