<svg width="24" height="24" viewBox="0 0 24 24" fill="none" xmlns="http://www.w3.org/2000/svg">
<g id="mode=Light" clip-path="url(#clip0_2194_50129)">
<path id="Vector" d="M11.625 4.875C11.625 5.08125 11.7937 5.25 12 5.25C12.2063 5.25 12.375 5.08125 12.375 4.875V0.375C12.375 0.16875 12.2063 0 12 0C11.7937 0 11.625 0.16875 11.625 0.375V4.875ZM12 8.25C12.9946 8.25 13.9484 8.64509 14.6517 9.34835C15.3549 10.0516 15.75 11.0054 15.75 12C15.75 12.9946 15.3549 13.9484 14.6517 14.6517C13.9484 15.3549 12.9946 15.75 12 15.75C11.0054 15.75 10.0516 15.3549 9.34835 14.6517C8.64509 13.9484 8.25 12.9946 8.25 12C8.25 11.0054 8.64509 10.0516 9.34835 9.34835C10.0516 8.64509 11.0054 8.25 12 8.25ZM12 16.5C13.1935 16.5 14.3381 16.0259 15.182 15.182C16.0259 14.3381 16.5 13.1935 16.5 12C16.5 10.8065 16.0259 9.66193 15.182 8.81802C14.3381 7.97411 13.1935 7.5 12 7.5C10.8065 7.5 9.66193 7.97411 8.81802 8.81802C7.97411 9.66193 7.5 10.8065 7.5 12C7.5 13.1935 7.97411 14.3381 8.81802 15.182C9.66193 16.0259 10.8065 16.5 12 16.5ZM12 24C12.2063 24 12.375 23.8312 12.375 23.625V19.125C12.375 18.9188 12.2063 18.75 12 18.75C11.7937 18.75 11.625 18.9188 11.625 19.125V23.625C11.625 23.8312 11.7937 24 12 24ZM0 12C0 12.2063 0.16875 12.375 0.375 12.375H4.875C5.08125 12.375 5.25 12.2063 5.25 12C5.25 11.7937 5.08125 11.625 4.875 11.625H0.375C0.16875 11.625 0 11.7937 0 12ZM19.125 11.625C18.9188 11.625 18.75 11.7937 18.75 12C18.75 12.2063 18.9188 12.375 19.125 12.375H23.625C23.8312 12.375 24 12.2063 24 12C24 11.7937 23.8312 11.625 23.625 11.625H19.125ZM3.51562 20.4844C3.66094 20.6297 3.9 20.6297 4.04531 20.4844L7.22812 17.3016C7.37344 17.1562 7.37344 16.9172 7.22812 16.7719C7.08281 16.6266 6.84375 16.6266 6.69844 16.7719L3.51562 19.9547C3.37031 20.1 3.37031 20.3391 3.51562 20.4844ZM16.7719 6.69844C16.6266 6.84375 16.6266 7.08281 16.7719 7.22812C16.9172 7.37344 17.1562 7.37344 17.3016 7.22812L20.4844 4.04531C20.6297 3.9 20.6297 3.66094 20.4844 3.51562C20.3391 3.37031 20.1 3.37031 19.9547 3.51562L16.7719 6.69844ZM3.51562 3.51562C3.37031 3.66094 3.37031 3.9 3.51562 4.04531L6.69844 7.22812C6.84375 7.37344 7.08281 7.37344 7.22812 7.22812C7.37344 7.08281 7.37344 6.84375 7.22812 6.69844L4.04531 3.51562C3.9 3.37031 3.66094 3.37031 3.51562 3.51562ZM17.3016 16.7719C17.1562 16.6266 16.9172 16.6266 16.7719 16.7719C16.6266 16.9172 16.6266 17.1562 16.7719 17.3016L19.9547 20.4844C20.1 20.6297 20.3391 20.6297 20.4844 20.4844C20.6297 20.3391 20.6297 20.1 20.4844 19.9547L17.3016 16.7719Z" fill="white"/>
</g>
<defs>
<clipPath id="clip0_2194_50129">
<rect width="24" height="24" fill="white"/>
</clipPath>
</defs>
</svg>
