<svg width="24" height="24" viewBox="0 0 24 24" fill="none" xmlns="http://www.w3.org/2000/svg">
<g id="magnifying-glass 7" clip-path="url(#clip0_2540_5342)">
<path id="Vector" d="M18.75 9.75C18.75 8.5681 18.5172 7.39778 18.0649 6.30585C17.6126 5.21392 16.9497 4.22177 16.114 3.38604C15.2782 2.55031 14.2861 1.88738 13.1942 1.43508C12.1022 0.982792 10.9319 0.75 9.75 0.75C8.5681 0.75 7.39778 0.982792 6.30585 1.43508C5.21392 1.88738 4.22177 2.55031 3.38604 3.38604C2.55031 4.22177 1.88738 5.21392 1.43508 6.30585C0.982792 7.39778 0.75 8.5681 0.75 9.75C0.75 10.9319 0.982792 12.1022 1.43508 13.1942C1.88738 14.2861 2.55031 15.2782 3.38604 16.114C4.22177 16.9497 5.21392 17.6126 6.30585 18.0649C7.39778 18.5172 8.5681 18.75 9.75 18.75C10.9319 18.75 12.1022 18.5172 13.1942 18.0649C14.2861 17.6126 15.2782 16.9497 16.114 16.114C16.9497 15.2782 17.6126 14.2861 18.0649 13.1942C18.5172 12.1022 18.75 10.9319 18.75 9.75ZM16.3734 16.9031C14.6344 18.5156 12.3094 19.5 9.75 19.5C4.36406 19.5 0 15.1359 0 9.75C0 4.36406 4.36406 0 9.75 0C15.1359 0 19.5 4.36406 19.5 9.75C19.5 12.3094 18.5156 14.6344 16.9031 16.3734L23.8875 23.3578C24.0328 23.5031 24.0328 23.7422 23.8875 23.8875C23.7422 24.0328 23.5031 24.0328 23.3578 23.8875L16.3734 16.9031Z" fill="#374355"/>
</g>
<defs>
<clipPath id="clip0_2540_5342">
<rect width="24" height="24" fill="white"/>
</clipPath>
</defs>
</svg>
