<svg width="16" height="16" viewBox="0 0 16 16" fill="none" xmlns="http://www.w3.org/2000/svg">
<g clip-path="url(#clip0_2404_17085)">
<path d="M15.9279 15.5719L11.2654 10.9094C12.3373 9.75313 12.9716 8.20625 12.9716 6.5C12.9716 2.90937 10.0613 0 6.47164 0C2.88195 0 -0.000244141 2.91031 -0.000244141 6.5C-0.000244141 10.0897 2.90976 13 6.47164 13C8.17632 13 9.72476 12.3384 10.8841 11.2644L15.5466 15.9269C15.6216 15.975 15.6841 16 15.7216 16C15.7591 16 15.8496 15.9756 15.8984 15.9268C16.0248 15.8281 16.0248 15.6719 15.9279 15.5719ZM6.47164 12.5C3.16226 12.5 0.471637 9.80844 0.471637 6.5C0.471637 3.19156 3.1632 0.5 6.47164 0.5C9.78008 0.5 12.4716 3.19156 12.4716 6.5C12.4716 9.80844 9.80914 12.5 6.47164 12.5Z" fill="white"/>
</g>
<defs>
<clipPath id="clip0_2404_17085">
<rect width="16" height="16" fill="white"/>
</clipPath>
</defs>
</svg>
