<svg width="30" height="24" viewBox="0 0 30 24" fill="none" xmlns="http://www.w3.org/2000/svg">
<g id="hands-holding-heart 3" clip-path="url(#clip0_2540_19425)">
<path id="Vector" d="M15 2.19854L14.1703 1.35479C12.7922 -0.0420899 10.5609 -0.0420899 9.18281 1.35479C7.80469 2.75166 7.80469 5.02041 9.18281 6.41729L13.9453 11.2548C14.2359 11.5501 14.6156 11.6954 15 11.6954C15.3844 11.6954 15.7641 11.5501 16.0547 11.2548L20.8172 6.41729C22.1953 5.02041 22.1953 2.75166 20.8172 1.35479C19.4391 -0.0420899 17.2078 -0.0420899 15.8297 1.35479L15 2.19854ZM15.2672 2.99541L16.3641 1.87979C17.4469 0.778223 19.2 0.778223 20.2828 1.87979C21.3703 2.98604 21.3703 4.78135 20.2828 5.8876L15.5203 10.7298C15.375 10.8751 15.1875 10.9501 15 10.9501C14.8125 10.9501 14.625 10.8798 14.4797 10.7298L9.71719 5.89229C8.62969 4.78604 8.62969 2.99072 9.71719 1.88447C10.8 0.78291 12.5531 0.78291 13.6359 1.88447L14.7328 3.0001C14.8781 3.1501 15.1219 3.1501 15.2672 3.0001V2.99541ZM4.5 5.2501C4.5 4.00791 3.49219 3.0001 2.25 3.0001C1.00781 3.0001 0 4.00791 0 5.2501V16.1345C0 17.4282 0.515625 18.6657 1.42969 19.5798L5.7375 23.8876C5.88281 24.0329 6.12187 24.0329 6.26719 23.8876C6.4125 23.7423 6.4125 23.5032 6.26719 23.3579L1.95937 19.0548C1.18594 18.2813 0.75 17.2313 0.75 16.1345V5.2501C0.75 4.42041 1.42031 3.7501 2.25 3.7501C3.07969 3.7501 3.75 4.42041 3.75 5.2501V12.1407C3.75 13.111 4.13438 14.0438 4.82344 14.7282L5.7375 15.6423L8.35781 18.2626L8.73281 18.6376C8.87813 18.7829 9.11719 18.7829 9.2625 18.6376C9.40781 18.4923 9.40781 18.2532 9.2625 18.1079L8.8875 17.7329L6.26719 15.1126C5.77031 14.6157 5.7375 13.8188 6.19687 13.2798C6.70781 12.6845 7.61719 12.647 8.175 13.2048L12.525 17.5501C13.1484 18.1735 13.5 19.022 13.5 19.9079V23.6251C13.5 23.8314 13.6687 24.0001 13.875 24.0001C14.0813 24.0001 14.25 23.8314 14.25 23.6251V19.9126C14.25 18.8298 13.8188 17.7892 13.0547 17.0251L8.70469 12.6751C7.84219 11.8126 6.42188 11.8642 5.62969 12.7923C5.33906 13.1298 5.175 13.5376 5.13281 13.9501C4.725 13.4392 4.5 12.8017 4.5 12.1407V5.2501ZM27.75 3.0001C26.5078 3.0001 25.5 4.00791 25.5 5.2501V12.1407C25.5 12.8017 25.275 13.4438 24.8672 13.9548C24.825 13.5423 24.6609 13.1345 24.3703 12.797C23.5734 11.8688 22.1578 11.8126 21.2953 12.6798L16.95 17.0298C16.1859 17.7938 15.7547 18.8345 15.7547 19.9173V23.6251C15.7547 23.8314 15.9234 24.0001 16.1297 24.0001C16.3359 24.0001 16.5047 23.8314 16.5047 23.6251V19.9126C16.5047 19.0267 16.8562 18.1782 17.4797 17.5548L21.8297 13.2095C22.3828 12.6517 23.2969 12.6892 23.8078 13.2845C24.2672 13.8188 24.2344 14.6157 23.7375 15.1173L21.1172 17.7376L20.7422 18.1126C20.5969 18.2579 20.5969 18.497 20.7422 18.6423C20.8875 18.7876 21.1266 18.7876 21.2719 18.6423L21.6469 18.2673L24.2672 15.647L25.1813 14.7329C25.8656 14.0392 26.25 13.111 26.25 12.1407V5.2501C26.25 4.42041 26.9203 3.7501 27.75 3.7501C28.5797 3.7501 29.25 4.42041 29.25 5.2501V16.1345C29.25 17.2267 28.8141 18.2767 28.0406 19.0501L23.7328 23.3579C23.5875 23.5032 23.5875 23.7423 23.7328 23.8876C23.8781 24.0329 24.1172 24.0329 24.2625 23.8876L28.5703 19.5798C29.4844 18.6657 30 17.4235 30 16.1345V5.2501C30 4.00791 28.9922 3.0001 27.75 3.0001Z" fill="#374355"/>
</g>
<defs>
<clipPath id="clip0_2540_19425">
<rect width="30" height="24" fill="white"/>
</clipPath>
</defs>
</svg>
