<svg width="33" height="26" viewBox="0 0 33 26" fill="none" xmlns="http://www.w3.org/2000/svg">
<g clip-path="url(#clip0_2404_18865)">
<path d="M22.1406 0.891737C20.5817 -0.466864 18.2406 -0.220423 16.8137 1.28377L16.2043 1.87588L15.6863 1.28529C14.2543 -0.219153 11.9184 -0.466864 10.3137 0.891737C8.56681 2.44666 8.46525 5.23557 10.0699 6.9215L15.6 12.7207C15.9555 13.0952 16.5395 13.0952 16.8949 12.7207L22.3844 6.9215C24.0297 5.23557 23.9383 2.44666 22.1406 0.891737Z" fill="#00BFB3"/>
<path opacity="0.4" d="M10.9738 11.736C10.4152 11.0809 9.43516 10.9235 8.73438 11.4821C8.03309 12.0437 7.91934 13.0659 8.48047 13.7672L9.4382 15.3191C9.89016 15.8843 9.84496 16.6988 9.33329 17.2102C8.73458 17.8089 7.74891 17.754 7.22028 17.0931L4.0625 12.8379V5.03284C4.0625 3.91108 3.15301 3.00159 2.03125 3.00159C0.909492 3.00159 0 3.95678 0 5.03284V15.4278C0 16.1661 0.251316 16.8826 0.712461 17.459L6.81129 25.1371C7.11933 25.5224 7.5857 25.747 8.07879 25.747H13C13.8973 25.747 14.6265 25.0173 14.6265 24.12L14.625 17.9973C14.625 16.8908 14.2485 15.8173 13.5576 14.9535L10.9738 11.736ZM30.4688 3.00159C29.347 3.00159 28.4375 3.91108 28.4375 5.03284V12.7922L25.2789 17.0949C24.7503 17.7561 23.7641 17.8104 23.1659 17.212C22.654 16.7006 22.6088 15.8861 23.061 15.3209L24.0187 13.769C24.5799 13.0677 24.4662 12.0455 23.7648 11.4838C23.0656 10.9237 22.0413 11.0395 21.4812 11.7377L18.9426 14.9116C18.2508 15.8188 17.875 16.8903 17.875 17.9973L17.8734 24.1672C17.8734 25.0645 18.6026 25.7942 19.4999 25.7942H24.3759C24.8692 25.7942 25.3357 25.5696 25.6434 25.1844L31.7423 17.5062C32.2512 16.9309 32.5 16.2149 32.5 15.4735V5.03284C32.5 3.95678 31.591 3.00159 30.4688 3.00159Z" fill="#00BFB3"/>
</g>
<defs>
<clipPath id="clip0_2404_18865">
<rect width="32.5" height="26" fill="white"/>
</clipPath>
</defs>
</svg>
