<svg width="28" height="22" viewBox="0 0 28 22" fill="none" xmlns="http://www.w3.org/2000/svg">
<g clip-path="url(#clip0_2404_1446)">
<path d="M13.5145 7.07695C13.7809 6.80625 14.2191 6.80625 14.4855 7.07695L17.923 10.5145C18.1938 10.7809 18.1938 11.2191 17.923 11.4855C17.6566 11.7562 17.2184 11.7562 16.952 11.4855L14.6875 9.22109V15.8125C14.6875 16.1906 14.3781 16.5 14 16.5C13.6219 16.5 13.3125 16.1906 13.3125 15.8125V9.22109L11.048 11.4855C10.7816 11.7562 10.3434 11.7562 10.077 11.4855C9.80625 11.2191 9.80625 10.7809 10.077 10.5145L13.5145 7.07695ZM11.9375 1.375C14.4941 1.375 16.7543 2.64473 18.125 4.58906C18.748 4.29129 19.4484 4.125 20.1875 4.125C22.8473 4.125 25 6.27773 25 8.9375C25 9.39727 24.9355 9.80117 24.8152 10.2609C26.5598 11.1805 27.75 13.0152 27.75 15.125C27.75 18.1629 25.2879 20.625 22.25 20.625H6.4375C3.0202 20.625 0.25 17.8535 0.25 14.4375C0.25 11.7391 1.9752 9.44883 4.3823 8.59805C4.55977 4.58047 7.87266 1.375 11.9375 1.375ZM11.9375 2.75C8.61172 2.75 5.90039 5.37109 5.7543 8.6582C5.73281 9.22109 5.36758 9.67227 4.83906 9.8957C2.96477 10.5574 1.625 12.3406 1.625 14.4375C1.625 17.0973 3.77945 19.25 6.4375 19.25H22.25C24.5273 19.25 26.375 17.4023 26.375 15.125C26.375 13.5437 25.4855 12.1687 24.175 11.477C23.5992 11.1332 23.3156 10.5059 23.4918 9.84414C23.5777 9.58203 23.625 9.26836 23.625 8.9375C23.625 7.03828 22.0867 5.5 20.1875 5.5C19.659 5.5 19.1605 5.62031 18.7137 5.83086C18.1121 6.11875 17.3859 5.92539 16.9992 5.37969C15.8777 3.78641 14.0301 2.75 11.9375 2.75Z" fill="white"/>
</g>
<defs>
<clipPath id="clip0_2404_1446">
<rect width="27.5" height="22" fill="white" transform="translate(0.25)"/>
</clipPath>
</defs>
</svg>
