<svg width="742" height="410" viewBox="0 0 742 410" fill="none" xmlns="http://www.w3.org/2000/svg">
<path d="M639.902 147.192C646.075 143.055 647.722 134.702 643.58 128.536C639.438 122.37 631.075 120.725 624.902 124.862C618.728 129 617.082 137.352 621.224 143.519C625.366 149.685 633.728 151.33 639.902 147.192Z" fill="#E0E0E0"/>
<path d="M592.44 150.338C600.358 150.338 606.777 143.927 606.777 136.018C606.777 128.11 600.358 121.698 592.44 121.698C584.522 121.698 578.104 128.11 578.104 136.018C578.104 143.927 584.522 150.338 592.44 150.338Z" fill="#E0E0E0"/>
<path d="M561.731 125.885C570.133 125.885 576.943 119.082 576.943 110.691C576.943 102.299 570.133 95.4961 561.731 95.4961C553.33 95.4961 546.519 102.299 546.519 110.691C546.519 119.082 553.33 125.885 561.731 125.885Z" fill="#E0E0E0"/>
<path d="M555.493 87.6146C564.269 87.6146 571.384 80.5083 571.384 71.7423C571.384 62.9764 564.269 55.8701 555.493 55.8701C546.717 55.8701 539.603 62.9764 539.603 71.7423C539.603 80.5083 546.717 87.6146 555.493 87.6146Z" fill="#E0E0E0"/>
<path d="M574.963 54.055C584.035 54.055 591.389 46.7089 591.389 37.6471C591.389 28.5853 584.035 21.2393 574.963 21.2393C565.89 21.2393 558.536 28.5853 558.536 37.6471C558.536 46.7089 565.89 54.055 574.963 54.055Z" fill="#E0E0E0"/>
<path d="M612.358 42.064C622.246 42.064 630.262 34.0573 630.262 24.1805C630.262 14.3036 622.246 6.29688 612.358 6.29688C602.47 6.29688 594.454 14.3036 594.454 24.1805C594.454 34.0573 602.47 42.064 612.358 42.064Z" fill="#E0E0E0"/>
<path d="M674.701 113.319C676.342 106.337 672.005 99.3475 665.015 97.7085C658.024 96.0696 651.027 100.401 649.386 107.384C647.745 114.366 652.082 121.355 659.072 122.994C666.063 124.633 673.06 120.301 674.701 113.319Z" fill="#E0E0E0"/>
<path d="M669.037 83.3513C675.698 83.3513 681.097 77.958 681.097 71.3051C681.097 64.6521 675.698 59.2588 669.037 59.2588C662.376 59.2588 656.977 64.6521 656.977 71.3051C656.977 77.958 662.376 83.3513 669.037 83.3513Z" fill="#E0E0E0"/>
<path d="M648.976 48.207C655.063 48.207 659.997 43.2786 659.997 37.1992C659.997 31.1198 655.063 26.1914 648.976 26.1914C642.89 26.1914 637.956 31.1198 637.956 37.1992C637.956 43.2786 642.89 48.207 648.976 48.207Z" fill="#E0E0E0"/>
<path d="M187.142 27.9729C188.364 27.7118 189.62 27.6491 190.863 27.787C194.302 28.1033 197.524 29.6024 199.979 32.0284C201.684 33.6946 202.97 35.7397 203.733 37.9968C204.62 40.6044 204.786 43.4028 204.214 46.0969C203.574 49.0855 202.049 51.8127 199.837 53.9237C197.485 56.2114 194.46 57.6842 191.207 58.125C187.954 58.5658 184.645 57.9514 181.768 56.3723C180.399 55.644 179.157 54.699 178.091 53.5739C177.049 52.5173 176.174 51.3083 175.497 49.9885C174.231 47.5502 173.645 44.8165 173.801 42.0742C173.932 39.6943 174.626 37.3793 175.826 35.3187C177.537 32.3082 180.246 29.9886 183.486 28.7599C184.641 28.2916 185.865 28.0182 187.109 27.951C187.109 28.0603 185.796 28.1696 183.607 29.0441C180.533 30.3485 177.981 32.6365 176.351 35.5482C175.16 37.6854 174.524 40.0861 174.499 42.5317C174.474 44.9773 175.062 47.3903 176.209 49.5512C176.856 50.7994 177.69 51.9421 178.682 52.9399C179.695 53.9982 180.874 54.8843 182.173 55.5634C184.892 57.0509 188.017 57.6296 191.089 57.2145C194.161 56.7994 197.02 55.4125 199.246 53.2569C200.313 52.2495 201.214 51.08 201.916 49.7917C202.607 48.567 203.105 47.2434 203.393 45.8674C203.921 43.4787 203.842 40.9961 203.164 38.6458C202.485 36.2954 201.229 34.152 199.508 32.411C197.164 30.0134 194.08 28.4733 190.753 28.0384C188.488 27.8307 187.142 28.0822 187.142 27.9729Z" fill="#E0E0E0"/>
<path d="M192.843 8.75598C192.758 8.60003 192.681 8.43946 192.613 8.27501L192.044 6.74463C191.508 5.37822 190.753 3.46524 189.757 0.852666L189.91 0.940116L176.055 2.94054L176.241 2.74378C176.033 5.29077 175.793 8.1329 175.541 11.1609V11.3139L175.399 11.3686C172.606 12.5435 169.982 14.0837 167.596 15.9488L167.464 16.0471L167.3 15.9816L159.639 12.4945L160.011 12.407C157.352 15.916 154.539 19.6326 151.574 23.546V23.1415L157.046 29.6019L157.188 29.7659L157.1 29.9627C155.957 32.7648 155.188 35.7051 154.813 38.7077V38.9263L154.594 39.0138L146.682 41.9761L146.933 41.5608C147.524 45.9333 148.17 50.6009 148.827 55.4107L148.466 55.0609L156.881 55.7933H157.133L157.232 56.0228C158.393 58.8037 159.92 61.4175 161.773 63.795L161.927 63.9917L161.817 64.2213L158.315 71.8732L158.195 71.3594L169.325 79.8202H168.788L175.267 74.3546L175.464 74.1906L175.705 74.289C178.491 75.4344 181.417 76.2063 184.405 76.5846C184.559 76.7048 184.055 76.3004 184.756 76.8579V76.9234V77.0437L184.854 77.2951L185.04 77.787L185.412 78.7818L186.146 80.7713C186.649 82.083 187.131 83.4057 187.623 84.7065L187.163 84.4332L201.029 82.564L200.657 82.9466C200.909 80.1154 201.161 77.306 201.401 74.5404V74.2781L201.642 74.1797C204.425 73.0226 207.042 71.5007 209.423 69.6542L209.62 69.5011L209.85 69.6104L217.511 73.1194L217.018 73.2396L225.5 62.1334V62.6253L220.028 56.1431L219.875 55.9682L219.973 55.7496C221.126 52.9492 221.903 50.0086 222.283 47.0045V46.775L222.49 46.6985L230.534 43.911L230.304 44.2936C229.648 39.4182 229.035 34.8271 228.455 30.4436L228.728 30.7934L220.313 30.0283H220.127L220.05 29.8534C218.921 27.041 217.423 24.3907 215.596 21.9719L215.497 21.8407L215.563 21.6877L219.098 14.0358L219.174 14.3419L208.023 5.81547H208.263C205.67 8.00172 203.536 9.72887 201.697 11.1937H201.631H201.555C199.436 10.3111 197.237 9.63386 194.988 9.17137L193.325 8.85436L192.767 8.74505C192.956 8.72754 193.146 8.72754 193.336 8.74505C193.708 8.74505 194.266 8.85436 195.021 8.98554C197.269 9.40062 199.469 10.0415 201.587 10.8985H201.445L207.891 5.43287L208.001 5.33449L208.132 5.43287L219.295 13.839L219.459 13.9593L219.371 14.1451C218.277 16.5281 217.183 19.0423 215.891 21.797V21.5128C217.791 23.9338 219.355 26.5995 220.542 29.438L220.291 29.2412L228.707 29.9627H228.969V30.225C229.571 34.5975 230.195 39.1996 230.874 44.064V44.3482L230.611 44.4466L222.698 47.4199L222.939 47.1138C222.557 50.174 221.769 53.1698 220.597 56.0228L220.531 55.6293L226.003 62.0897L226.211 62.3411L226.014 62.5925L217.555 73.7097L217.358 73.972L217.062 73.8408L209.401 70.3428H209.828C207.39 72.2454 204.707 73.8117 201.85 74.9995L202.113 74.6388C201.872 77.4154 201.62 80.2247 201.38 83.0559V83.3948H201.04L187.262 85.4499H186.923L186.802 85.1328L185.325 81.1866L184.581 79.2081L184.208 78.2133L184.022 77.7105L183.924 77.47V77.3388V77.2732C184.624 77.8198 184.121 77.4154 184.274 77.5465C181.209 77.158 178.21 76.364 175.355 75.1854L175.804 75.1198L169.314 80.5854L169.051 80.8041L168.788 80.5964L157.593 72.0481L157.319 71.8404L157.461 71.5343C158.676 68.889 159.88 66.2545 160.974 63.8824L161.029 64.3088C159.133 61.8753 157.572 59.1988 156.389 56.3508L156.728 56.6022L148.312 55.8479H147.995V55.5309C147.338 50.7321 146.715 46.0426 146.124 41.6919V41.3859L146.408 41.2765L154.321 38.336L154.091 38.6421C154.433 35.5732 155.191 32.5651 156.345 29.7003V30.061L151.026 23.5569L150.851 23.3492L151.026 23.1415L159.53 12.0463L159.672 11.8495L159.902 11.9479L167.563 15.4787H167.267C169.703 13.5984 172.378 12.0507 175.224 10.8766L175.07 11.0953C175.344 8.06731 175.607 5.23611 175.847 2.68912V2.53608H176.022L189.888 0.732422H189.998V0.830803L192.143 6.74463L192.679 8.27501C192.747 8.43051 192.802 8.59139 192.843 8.75598Z" fill="#E0E0E0"/>
<path fill-rule="evenodd" clip-rule="evenodd" d="M125.855 89.494C130.138 90.028 134.33 91.1308 138.321 92.7734L147.481 85.1215L163.218 97.0803L158.26 107.946C160.91 111.352 163.096 115.094 164.761 119.074L176.657 120.167L179.317 139.734L168.121 143.91C167.591 148.192 166.487 152.384 164.838 156.372L172.499 165.521L160.526 181.24L149.648 176.288C146.251 178.921 142.52 181.09 138.55 182.738L137.456 194.631L117.855 197.287L113.675 186.105C109.392 185.569 105.2 184.467 101.21 182.825L92.0495 190.477L76.3121 178.453L81.2697 167.587C78.6376 164.195 76.4699 160.467 74.8237 156.503L62.9167 155.41L60.2573 135.832L71.453 131.656C71.9823 127.377 73.0867 123.189 74.7362 119.205L67.0754 110.045L79.0371 94.4022L89.9154 99.354C93.3244 96.7058 97.0709 94.5223 101.056 92.8609L102.151 80.9786L121.751 78.3223L125.855 89.494ZM117.812 116.68C113.652 117.242 109.752 119.023 106.606 121.799C103.459 124.575 101.208 128.22 100.137 132.274C99.065 136.329 99.2214 140.609 100.586 144.574C101.95 148.54 104.462 152.012 107.802 154.551C111.142 157.091 115.162 158.583 119.352 158.841C123.541 159.098 127.714 158.108 131.34 155.997C134.967 153.885 137.885 150.747 139.726 146.978C141.566 143.21 142.247 138.981 141.68 134.826C140.924 129.265 137.989 124.23 133.52 120.828C129.051 117.426 123.414 115.934 117.844 116.68H117.812Z" fill="#E0E0E0"/>
<path d="M742 409.716C742 409.869 575.882 410 371 410C166.118 410 0 409.869 0 409.716C0 409.563 166.085 409.432 371 409.432C575.915 409.432 742 409.552 742 409.716Z" fill="#374355"/>
<path d="M608.297 86.543H161.598C152.792 86.543 145.653 93.6737 145.653 102.47V386.738C145.653 395.534 152.792 402.665 161.598 402.665H608.297C617.104 402.665 624.243 395.534 624.243 386.738V102.47C624.243 93.6737 617.104 86.543 608.297 86.543Z" fill="#374355"/>
<path d="M126.95 382.256H645.463V390.465C645.463 395.626 643.411 400.575 639.758 404.224C636.104 407.873 631.15 409.923 625.983 409.923H146.43C141.263 409.923 136.309 407.873 132.655 404.224C129.002 400.575 126.95 395.626 126.95 390.465V382.256Z" fill="#374355"/>
<path d="M126.95 382.256H645.463V390.465C645.463 395.626 643.411 400.575 639.758 404.224C636.104 407.873 631.15 409.923 625.983 409.923H146.43C141.263 409.923 136.309 407.873 132.655 404.224C129.002 400.575 126.95 395.626 126.95 390.465V382.256Z" fill="black" fill-opacity="0.25"/>
<path d="M610.059 99.1025H158.501V366.066H610.059V99.1025Z" fill="#374355"/>
<g opacity="0.5">
<path d="M337.774 382.562L344.209 392.794H434.748L440.724 382.562H337.774Z" fill="#374355"/>
<path d="M337.774 382.562L344.209 392.794H434.748L440.724 382.562H337.774Z" fill="white" fill-opacity="0.1"/>
</g>
<path d="M598.109 108.144H171.382C169.406 108.144 167.804 109.744 167.804 111.718V361.64C167.804 363.614 169.406 365.215 171.382 365.215H598.109C600.085 365.215 601.688 363.614 601.688 361.64V111.718C601.688 109.744 600.085 108.144 598.109 108.144Z" fill="#EBEBEB"/>
<path d="M598.087 365.214H171.382C170.433 365.214 169.523 364.838 168.852 364.167C168.181 363.497 167.804 362.588 167.804 361.64V127.36H601.688V361.607C601.689 362.08 601.597 362.549 601.417 362.986C601.236 363.424 600.971 363.822 600.637 364.157C600.302 364.492 599.905 364.758 599.468 364.939C599.03 365.121 598.561 365.214 598.087 365.214Z" fill="#FAFAFA"/>
<path d="M203.382 118.069C203.384 118.755 203.183 119.426 202.802 119.998C202.422 120.569 201.88 121.015 201.246 121.279C200.611 121.542 199.913 121.612 199.239 121.479C198.565 121.345 197.946 121.015 197.46 120.53C196.974 120.044 196.643 119.426 196.51 118.753C196.376 118.08 196.446 117.382 196.71 116.748C196.974 116.115 197.42 115.574 197.992 115.194C198.565 114.814 199.237 114.612 199.924 114.614C200.841 114.614 201.721 114.978 202.369 115.626C203.018 116.274 203.382 117.152 203.382 118.069Z" fill="#374355"/>
<path d="M182.381 118.069C182.383 118.755 182.181 119.426 181.801 119.998C181.42 120.569 180.879 121.015 180.244 121.279C179.61 121.542 178.911 121.612 178.237 121.479C177.564 121.345 176.944 121.015 176.458 120.53C175.973 120.044 175.642 119.426 175.509 118.753C175.375 118.08 175.445 117.382 175.709 116.748C175.972 116.115 176.419 115.574 176.991 115.194C177.563 114.814 178.235 114.612 178.923 114.614C179.84 114.614 180.719 114.978 181.368 115.626C182.016 116.274 182.381 117.152 182.381 118.069Z" fill="#374355"/>
<path d="M192.471 118.069C192.473 118.754 192.272 119.425 191.892 119.997C191.512 120.568 190.971 121.014 190.337 121.278C189.703 121.542 189.006 121.612 188.332 121.479C187.658 121.347 187.039 121.018 186.553 120.534C186.066 120.049 185.735 119.432 185.6 118.76C185.465 118.087 185.533 117.39 185.796 116.756C186.058 116.122 186.503 115.58 187.073 115.199C187.644 114.818 188.315 114.614 189.002 114.614C189.92 114.614 190.801 114.978 191.451 115.625C192.101 116.273 192.468 117.151 192.471 118.069Z" fill="#374355"/>
<path opacity="0.5" d="M624.243 382.256C624.243 382.431 513.906 382.88 382.907 382.88C251.908 382.88 145.653 382.42 145.653 382.256C145.653 382.092 251.809 382.256 382.907 382.256C514.004 382.256 624.243 382.082 624.243 382.256Z" fill="#374355"/>
<path d="M536.614 245.637H241.773C238.31 245.634 234.989 244.258 232.541 241.81C230.093 239.363 228.717 236.045 228.717 232.585C228.717 229.126 230.093 225.809 232.541 223.364C234.99 220.918 238.311 219.544 241.773 219.544H536.614C540.077 219.544 543.398 220.918 545.847 223.364C548.295 225.809 549.671 229.126 549.671 232.585C549.671 236.045 548.295 239.363 545.847 241.81C543.399 244.258 540.078 245.634 536.614 245.637Z" fill="#E0E0E0"/>
<path d="M394.113 245.637H378.365C376.633 245.637 374.918 245.296 373.318 244.634C371.718 243.972 370.265 243.002 369.04 241.779C367.815 240.556 366.844 239.104 366.181 237.506C365.519 235.907 365.177 234.195 365.177 232.465C365.154 230.763 365.472 229.074 366.113 227.497C366.754 225.92 367.706 224.487 368.911 223.284C370.115 222.08 371.55 221.13 373.128 220.49C374.707 219.849 376.398 219.531 378.102 219.555L394.168 219.621C397.691 219.678 401.05 221.119 403.518 223.631C405.986 226.143 407.365 229.525 407.355 233.044C407.301 240.313 401.347 245.637 394.113 245.637Z" fill="#E0E0E0"/>
<mask id="mask0_1015_50320" style="mask-type:luminance" maskUnits="userSpaceOnUse" x="228" y="219" width="172" height="27">
<path d="M389.648 245.637H241.773C238.31 245.634 234.989 244.258 232.541 241.81C230.093 239.363 228.717 236.045 228.717 232.585C228.717 229.126 230.093 225.809 232.541 223.364C234.99 220.918 238.311 219.544 241.773 219.544H389.648C390.876 219.543 392.093 219.783 393.228 220.251C394.363 220.72 395.395 221.407 396.264 222.274C397.133 223.141 397.822 224.171 398.293 225.304C398.763 226.438 399.005 227.652 399.005 228.879V236.291C399.005 237.518 398.763 238.733 398.293 239.867C397.823 241.001 397.133 242.032 396.265 242.899C395.396 243.767 394.364 244.456 393.229 244.925C392.094 245.395 390.877 245.637 389.648 245.637Z" fill="white"/>
</mask>
<g mask="url(#mask0_1015_50320)">
<path d="M385.938 245.637H241.773C238.31 245.634 234.989 244.258 232.541 241.81C230.093 239.363 228.717 236.045 228.717 232.585C228.717 229.126 230.093 225.809 232.541 223.364C234.99 220.918 238.311 219.544 241.773 219.544H385.938C387.654 219.543 389.353 219.879 390.938 220.533C392.523 221.188 393.964 222.149 395.177 223.36C396.391 224.571 397.354 226.009 398.01 227.592C398.667 229.175 399.005 230.871 399.005 232.585C399.005 236.047 397.628 239.366 395.178 241.814C392.727 244.262 389.404 245.637 385.938 245.637Z" fill="#00BFB3"/>
<g opacity="0.2">
<path d="M246.764 219.544L262.72 245.637H274.004L257.413 219.544H246.764Z" fill="white"/>
</g>
<g opacity="0.2">
<path d="M222.622 219.544L238.578 245.637H249.861L233.27 219.544H222.622Z" fill="white"/>
</g>
<g opacity="0.2">
<path d="M270.118 219.544L286.064 245.637H297.358L280.767 219.544H270.118Z" fill="white"/>
</g>
<g opacity="0.2">
<path d="M293.473 219.544L309.418 245.637H320.712L304.121 219.544H293.473Z" fill="white"/>
</g>
<g opacity="0.2">
<path d="M316.816 219.544L332.773 245.637H344.056L327.465 219.544H316.816Z" fill="white"/>
</g>
<g opacity="0.2">
<path d="M340.17 219.544L356.116 245.637H367.41L350.819 219.544H340.17Z" fill="white"/>
</g>
<g opacity="0.2">
<path d="M363.525 219.544L379.47 245.637H390.764L374.173 219.544H363.525Z" fill="white"/>
</g>
<g opacity="0.2">
<path d="M386.868 219.544L402.824 245.637H414.108L397.517 219.544H386.868Z" fill="white"/>
</g>
</g>
<path d="M317.856 270.637C320.625 270.637 322.234 272.003 322.234 274.397C322.234 276.791 320.647 278.332 317.856 278.332H315.317V281.612H313.457V270.637H317.856ZM315.317 276.66H317.779C319.476 276.66 320.439 275.938 320.439 274.474C320.439 273.009 319.476 272.287 317.779 272.287H315.317V276.66Z" fill="#00BFB3"/>
<path d="M324.346 281.644V269.97H326.162V281.644H324.346Z" fill="#00BFB3"/>
<path d="M336.603 278.157H330.277C330.385 278.759 330.707 279.302 331.184 279.686C331.66 280.069 332.259 280.268 332.871 280.245C333.31 280.249 333.746 280.165 334.152 279.998C334.558 279.831 334.926 279.584 335.235 279.272L336.198 280.289C335.753 280.757 335.213 281.125 334.616 281.37C334.018 281.615 333.375 281.731 332.729 281.71C332.152 281.739 331.576 281.651 331.035 281.451C330.493 281.251 329.998 280.943 329.58 280.545C329.162 280.148 328.829 279.67 328.601 279.14C328.373 278.61 328.256 278.04 328.256 277.463C328.256 276.887 328.373 276.316 328.601 275.786C328.829 275.256 329.162 274.778 329.58 274.381C329.998 273.984 330.493 273.676 331.035 273.476C331.576 273.275 332.152 273.187 332.729 273.216C335.684 273.216 336.778 275.129 336.603 278.157ZM335.027 276.867C335.028 276.568 334.967 276.272 334.848 275.997C334.729 275.722 334.555 275.474 334.337 275.269C334.118 275.064 333.86 274.906 333.577 274.805C333.295 274.704 332.995 274.662 332.696 274.681C332.084 274.66 331.487 274.875 331.031 275.282C330.574 275.69 330.292 276.258 330.245 276.867H335.027Z" fill="#00BFB3"/>
<path d="M343.837 280.628C343.488 281.007 343.057 281.302 342.578 281.492C342.098 281.681 341.582 281.759 341.068 281.721C340.701 281.762 340.329 281.726 339.976 281.615C339.624 281.504 339.299 281.321 339.021 281.077C338.744 280.833 338.521 280.534 338.366 280.198C338.212 279.863 338.129 279.499 338.124 279.13C338.124 277.6 339.218 276.627 341.287 276.616H343.815V276.365C343.815 275.272 343.147 274.681 341.823 274.681C340.933 274.709 340.071 275.002 339.35 275.523L338.606 274.266C339.666 273.534 340.928 273.152 342.217 273.173C344.406 273.173 345.588 274.266 345.599 276.113V281.579H343.826L343.837 280.628ZM343.837 278.704V277.961H341.571C340.389 277.961 339.842 278.267 339.842 279.054C339.842 279.841 340.455 280.289 341.462 280.289C342.731 280.289 343.727 279.622 343.815 278.704H343.837Z" fill="#00BFB3"/>
<path d="M353.796 274.047L353.129 275.381C352.402 274.934 351.573 274.681 350.721 274.648C350.009 274.648 349.495 274.878 349.495 275.479C349.495 277.02 353.949 276.19 353.938 279.228C353.938 280.934 352.406 281.71 350.721 281.71C349.494 281.729 348.301 281.314 347.35 280.54L347.996 279.25C348.788 279.899 349.774 280.264 350.797 280.289C351.574 280.289 352.176 280.026 352.176 279.392C352.176 277.676 347.799 278.638 347.799 275.621C347.799 273.927 349.276 273.194 350.885 273.194C351.918 273.188 352.93 273.485 353.796 274.047Z" fill="#00BFB3"/>
<path d="M363.449 278.157H357.123C357.231 278.759 357.553 279.302 358.029 279.686C358.506 280.069 359.105 280.268 359.717 280.245C360.156 280.249 360.591 280.165 360.997 279.998C361.404 279.831 361.772 279.584 362.081 279.272L363.044 280.289C362.599 280.758 362.06 281.127 361.462 281.372C360.864 281.617 360.221 281.732 359.575 281.71C358.998 281.739 358.422 281.651 357.88 281.451C357.339 281.251 356.844 280.943 356.426 280.545C356.007 280.148 355.674 279.67 355.447 279.14C355.219 278.61 355.102 278.04 355.102 277.463C355.102 276.887 355.219 276.316 355.447 275.786C355.674 275.256 356.007 274.778 356.426 274.381C356.844 273.984 357.339 273.676 357.88 273.476C358.422 273.275 358.998 273.187 359.575 273.216C362.475 273.216 363.668 275.129 363.449 278.157ZM361.873 276.867C361.873 276.569 361.813 276.274 361.695 275.999C361.576 275.725 361.403 275.478 361.186 275.273C360.969 275.068 360.712 274.91 360.431 274.808C360.15 274.707 359.851 274.663 359.553 274.681C358.94 274.659 358.342 274.874 357.883 275.282C357.424 275.689 357.141 276.257 357.09 276.867H361.873Z" fill="#00BFB3"/>
<path d="M379.58 281.645L376.975 273.053L374.327 281.645H372.401L368.756 270.637H370.704L373.386 279.589L376.045 270.648H377.873L380.554 279.6L383.213 270.648H385.128L381.451 281.655L379.58 281.645Z" fill="#00BFB3"/>
<path d="M390.962 280.628C390.614 281.008 390.184 281.304 389.704 281.494C389.224 281.683 388.707 281.761 388.193 281.721C387.826 281.762 387.454 281.726 387.101 281.615C386.749 281.504 386.424 281.321 386.146 281.077C385.869 280.833 385.646 280.534 385.491 280.198C385.337 279.863 385.254 279.499 385.249 279.13C385.249 277.6 386.343 276.627 388.412 276.616H390.951V276.365C390.951 275.271 390.272 274.681 388.948 274.681C388.058 274.71 387.197 275.003 386.475 275.523L385.731 274.266C386.791 273.535 388.054 273.153 389.342 273.173C391.531 273.173 392.713 274.266 392.724 276.113V281.579H390.94L390.962 280.628ZM390.962 278.704V277.961H388.696C387.514 277.961 386.956 278.267 386.956 279.054C386.956 279.841 387.569 280.289 388.576 280.289C389.856 280.289 390.852 279.622 390.951 278.704H390.962Z" fill="#00BFB3"/>
<path d="M397.44 270.888C397.44 271.104 397.376 271.316 397.256 271.495C397.136 271.675 396.965 271.815 396.765 271.898C396.565 271.981 396.345 272.002 396.132 271.96C395.92 271.918 395.725 271.814 395.572 271.661C395.419 271.508 395.315 271.313 395.272 271.101C395.23 270.889 395.252 270.669 395.335 270.47C395.418 270.27 395.558 270.099 395.738 269.979C395.918 269.859 396.129 269.795 396.346 269.795C396.636 269.795 396.914 269.91 397.12 270.115C397.325 270.32 397.44 270.598 397.44 270.888ZM395.492 281.644V273.282H397.287V281.644H395.492Z" fill="#00BFB3"/>
<path d="M405.024 281.109C404.403 281.496 403.688 281.708 402.956 281.721C402.634 281.746 402.31 281.699 402.007 281.584C401.705 281.469 401.432 281.288 401.208 281.055C400.984 280.822 400.815 280.543 400.712 280.236C400.609 279.93 400.576 279.605 400.614 279.284V274.911H399.432V273.589H400.614V271.293H402.442V273.589H404.915V274.944H402.442V278.956C402.442 279.819 402.77 280.049 403.339 280.049C403.78 280.021 404.209 279.898 404.598 279.688L405.024 281.109Z" fill="#00BFB3"/>
<path d="M414.82 269.97C413.601 272.035 412.958 274.388 412.958 276.785C412.958 279.182 413.601 281.536 414.82 283.601H413.178C411.927 281.547 411.266 279.189 411.266 276.785C411.266 274.381 411.927 272.024 413.178 269.97H414.82Z" fill="#00BFB3"/>
<path d="M421.123 277.294V274.681H422.853V277.294H424.461V278.944H422.853V281.645H421.123V278.944H415.859V277.556L419.624 270.637H421.419L417.851 277.294H421.123Z" fill="#00BFB3"/>
<path d="M428.106 272.298V274.681H429.616C432.013 274.681 433.556 276.102 433.556 278.037C433.556 280.223 431.947 281.732 429.474 281.732C428.074 281.695 426.715 281.259 425.556 280.475L426.289 278.966C427.122 279.677 428.171 280.085 429.266 280.125C430.699 280.125 431.564 279.382 431.564 278.147C431.564 276.911 430.699 276.332 429.288 276.332C428.62 276.332 427.099 276.397 426.387 276.474V270.637H433.085V272.298H428.106Z" fill="#00BFB3"/>
<path d="M440.975 273.872C440.975 275.938 439.881 277.152 438.064 277.152C436.248 277.152 435.153 275.916 435.153 273.872C435.153 271.828 436.248 270.593 438.064 270.593C439.881 270.593 440.975 271.828 440.975 273.872ZM436.357 273.872C436.357 275.293 436.97 276.113 438.064 276.113C439.159 276.113 439.783 275.293 439.783 273.872C439.783 272.451 439.148 271.686 438.064 271.686C436.981 271.686 436.368 272.495 436.368 273.872H436.357ZM445.342 270.593H447.071L438.973 281.601H437.233L445.342 270.593ZM449.271 278.343C449.271 280.409 448.177 281.622 446.36 281.622C444.543 281.622 443.449 280.398 443.449 278.343C443.449 276.288 444.543 275.064 446.36 275.064C448.177 275.064 449.271 276.343 449.271 278.387V278.343ZM444.664 278.343C444.664 279.764 445.276 280.529 446.36 280.529C447.443 280.529 448.078 279.731 448.078 278.343C448.078 276.955 447.443 276.157 446.36 276.157C445.276 276.157 444.664 276.988 444.664 278.387V278.343Z" fill="#00BFB3"/>
<path d="M453.714 269.97C454.965 272.024 455.626 274.381 455.626 276.785C455.626 279.189 454.965 281.547 453.714 283.601H452.073C453.291 281.536 453.934 279.182 453.934 276.785C453.934 274.388 453.291 272.035 452.073 269.97H453.714Z" fill="#00BFB3"/>
<path d="M336.461 188.663H338.3V199.89H345.249V201.442H336.494L336.461 188.663Z" fill="black"/>
<path d="M346.07 195.08C346.017 193.721 346.372 192.378 347.09 191.222C347.807 190.067 348.854 189.152 350.096 188.595C351.337 188.038 352.717 187.864 354.058 188.096C355.4 188.328 356.641 188.955 357.623 189.897C358.605 190.838 359.283 192.051 359.569 193.38C359.856 194.709 359.739 196.094 359.232 197.356C358.725 198.618 357.853 199.7 356.726 200.463C355.6 201.226 354.271 201.635 352.909 201.638C352.024 201.675 351.141 201.533 350.313 201.22C349.484 200.907 348.727 200.429 348.088 199.817C347.449 199.204 346.941 198.468 346.594 197.654C346.247 196.84 346.069 195.964 346.07 195.08ZM357.878 195.08C357.891 194.09 357.609 193.119 357.068 192.29C356.526 191.462 355.75 190.812 354.838 190.426C353.926 190.039 352.92 189.932 351.947 190.119C350.974 190.305 350.079 190.777 349.375 191.474C348.671 192.17 348.191 193.06 347.996 194.031C347.8 195.001 347.898 196.007 348.277 196.921C348.656 197.836 349.299 198.616 350.124 199.164C350.949 199.712 351.919 200.003 352.909 199.999C353.564 200.02 354.216 199.907 354.825 199.668C355.435 199.429 355.989 199.068 356.454 198.607C356.919 198.147 357.285 197.597 357.53 196.99C357.775 196.383 357.893 195.733 357.878 195.08Z" fill="black"/>
<path d="M370.518 198.282H363.689L362.277 201.442H360.395L366.206 188.619H368.023L373.856 201.442H371.93L370.518 198.282ZM369.872 196.818L367.104 190.51L364.335 196.796L369.872 196.818Z" fill="black"/>
<path d="M375.76 188.663H381.167C385.292 188.663 388.094 191.265 388.094 195.08C388.094 198.895 385.292 201.485 381.167 201.485H375.76V188.663ZM381.057 199.89C384.231 199.89 386.266 197.955 386.266 195.08C386.266 192.205 384.231 190.259 381.057 190.259H377.588V199.89H381.057Z" fill="black"/>
<path d="M390.907 188.663H392.734V201.442H390.907V188.663Z" fill="black"/>
<path d="M407.629 188.663V201.442H406.119L398.458 191.888V201.442H396.62V188.663H398.064L405.725 198.228V188.663H407.629Z" fill="black"/>
<path d="M420.368 195.003H422.141V199.999C420.761 201.092 419.043 201.672 417.282 201.639C415.54 201.639 413.87 200.948 412.639 199.717C411.407 198.487 410.715 196.819 410.715 195.08C410.715 193.34 411.407 191.672 412.639 190.442C413.87 189.212 415.54 188.521 417.282 188.521C418.198 188.48 419.113 188.636 419.964 188.977C420.815 189.318 421.583 189.837 422.217 190.5L421.123 191.593C420.636 191.106 420.055 190.724 419.415 190.468C418.776 190.213 418.091 190.089 417.402 190.106C416.728 190.061 416.051 190.155 415.415 190.382C414.778 190.609 414.195 190.964 413.702 191.425C413.208 191.886 412.815 192.444 412.546 193.063C412.277 193.682 412.138 194.35 412.138 195.025C412.138 195.7 412.277 196.368 412.546 196.987C412.815 197.607 413.208 198.164 413.702 198.625C414.195 199.086 414.778 199.441 415.415 199.668C416.051 199.895 416.728 199.989 417.402 199.944C418.464 199.972 419.511 199.687 420.412 199.124L420.368 195.003Z" fill="black"/>
<path d="M424.735 200.349C424.732 200.184 424.762 200.021 424.824 199.869C424.885 199.716 424.977 199.577 425.093 199.461C425.21 199.345 425.349 199.253 425.501 199.192C425.654 199.13 425.818 199.1 425.982 199.103C426.294 199.132 426.584 199.276 426.795 199.508C427.007 199.739 427.124 200.041 427.124 200.354C427.124 200.668 427.007 200.969 426.795 201.201C426.584 201.432 426.294 201.577 425.982 201.606C425.817 201.607 425.653 201.576 425.5 201.513C425.348 201.45 425.209 201.358 425.093 201.24C424.976 201.123 424.885 200.984 424.823 200.831C424.762 200.678 424.732 200.514 424.735 200.349Z" fill="black"/>
<path d="M428.893 200.349C428.89 200.184 428.921 200.021 428.982 199.869C429.044 199.716 429.136 199.577 429.252 199.461C429.369 199.345 429.507 199.253 429.66 199.192C429.813 199.13 429.976 199.1 430.141 199.103C430.453 199.132 430.743 199.276 430.954 199.508C431.165 199.739 431.282 200.041 431.282 200.354C431.282 200.668 431.165 200.969 430.954 201.201C430.743 201.432 430.453 201.577 430.141 201.606C429.976 201.607 429.812 201.576 429.659 201.513C429.506 201.45 429.368 201.358 429.251 201.24C429.135 201.123 429.044 200.984 428.982 200.831C428.921 200.678 428.89 200.514 428.893 200.349Z" fill="black"/>
<path d="M433.085 200.349C433.082 200.184 433.112 200.021 433.174 199.869C433.236 199.716 433.328 199.577 433.444 199.461C433.56 199.345 433.699 199.253 433.852 199.192C434.005 199.13 434.168 199.1 434.333 199.103C434.645 199.132 434.935 199.276 435.146 199.508C435.357 199.739 435.474 200.041 435.474 200.354C435.474 200.668 435.357 200.969 435.146 201.201C434.935 201.432 434.645 201.577 434.333 201.606C434.168 201.607 434.004 201.576 433.851 201.513C433.698 201.45 433.56 201.358 433.443 201.24C433.327 201.123 433.235 200.984 433.174 200.831C433.112 200.678 433.082 200.514 433.085 200.349Z" fill="black"/>
<path d="M687.849 322.812C692.435 320.44 697.841 320.134 702.93 320.975C705.677 321.423 708.522 322.243 710.394 324.255C712.265 326.266 712.583 329.928 710.47 331.688C709.089 332.621 707.424 333.042 705.764 332.879C701.781 332.879 697.349 332.136 694.164 334.53C692.347 335.896 691.132 338.17 688.965 338.837C687.878 339.091 686.737 338.985 685.716 338.533C684.695 338.081 683.85 337.309 683.307 336.334C682.268 334.335 682.041 332.013 682.673 329.851C682.935 328.359 683.538 326.947 684.436 325.726C685.334 324.505 686.502 323.508 687.849 322.812Z" fill="#00BFB3"/>
<path d="M677.332 302.534C680.134 306.535 685.595 305.213 688.123 302.764C690.651 300.315 691.724 296.785 692.698 293.407C694.886 285.689 697.163 277.589 695.499 269.741C695.105 267.358 694.06 265.13 692.479 263.302C691.676 262.39 690.645 261.707 689.491 261.323C688.338 260.939 687.103 260.867 685.912 261.116C683.165 261.837 681.458 264.526 680.222 267.084C676.583 274.641 674.677 282.912 674.64 291.297C674.64 295.2 675.089 299.288 677.289 302.513" fill="#00BFB3"/>
<path d="M669.628 308.273C672.67 304.666 673.25 299.397 671.893 294.872C670.359 290.361 667.61 286.359 663.948 283.306C659.796 279.615 654.963 276.767 649.721 274.922C647.691 274.1 645.506 273.727 643.318 273.829C642.223 273.896 641.161 274.231 640.224 274.802C639.287 275.374 638.505 276.165 637.945 277.108C636.456 279.961 637.945 283.416 639.444 286.247C642.185 291.219 645.31 295.971 648.79 300.457C651.592 304.065 654.799 307.617 659.078 309.202C663.357 310.788 667.778 310.634 670.022 307.683" fill="#00BFB3"/>
<path d="M677.146 362.93C677.284 362.33 677.368 361.719 677.398 361.104C677.529 359.782 677.683 358.12 677.88 356.142C678.118 353.698 678.484 351.268 678.974 348.861C679.627 345.932 680.513 343.059 681.622 340.269C682.71 337.483 684.184 334.863 686 332.486C687.484 330.556 689.379 328.981 691.549 327.873C693.023 327.144 694.604 326.653 696.233 326.419C696.846 326.397 697.455 326.309 698.049 326.157C697.434 326.093 696.815 326.093 696.2 326.157C694.511 326.292 692.859 326.721 691.319 327.425C689.034 328.506 687.03 330.1 685.464 332.082C683.559 334.486 682.024 337.161 680.911 340.018C679.778 342.85 678.895 345.777 678.274 348.763C677.806 351.198 677.484 353.658 677.31 356.131C677.146 358.24 677.092 359.957 677.059 361.126C677.024 361.729 677.053 362.333 677.146 362.93Z" fill="#00BFB3"/>
<path d="M677.146 362.93C677.284 362.33 677.368 361.719 677.398 361.104C677.529 359.782 677.683 358.12 677.88 356.142C678.118 353.698 678.484 351.268 678.974 348.861C679.627 345.932 680.513 343.059 681.622 340.269C682.71 337.483 684.184 334.863 686 332.486C687.484 330.556 689.379 328.981 691.549 327.873C693.023 327.144 694.604 326.653 696.233 326.419C696.846 326.397 697.455 326.309 698.049 326.157C697.434 326.093 696.815 326.093 696.2 326.157C694.511 326.292 692.859 326.721 691.319 327.425C689.034 328.506 687.03 330.1 685.464 332.082C683.559 334.486 682.024 337.161 680.911 340.018C679.778 342.85 678.895 345.777 678.274 348.763C677.806 351.198 677.484 353.658 677.31 356.131C677.146 358.24 677.092 359.957 677.059 361.126C677.024 361.729 677.053 362.333 677.146 362.93Z" fill="black" fill-opacity="0.25"/>
<path d="M677.485 359.104C677.518 358.824 677.518 358.542 677.485 358.262V355.847C677.485 353.748 677.485 350.72 677.595 346.981C677.781 339.493 678.426 331.437 679.674 320.068C680.845 309.389 682.432 296.96 684.052 288.882C684.413 287.045 684.774 285.384 685.146 283.941C685.518 282.498 685.748 281.23 686.011 280.224C686.273 279.218 686.427 278.486 686.58 277.874C686.66 277.603 686.708 277.325 686.722 277.043C686.596 277.294 686.497 277.558 686.426 277.83L685.726 280.147C685.42 281.153 685.102 282.388 684.73 283.842C684.358 285.296 683.953 286.936 683.559 288.772C681.489 298.331 679.933 307.993 678.897 317.718C677.649 329.098 677.091 339.461 677.037 346.97C677.037 350.72 677.037 353.759 677.168 355.858C677.234 356.83 677.277 357.628 677.321 358.262C677.34 358.549 677.395 358.832 677.485 359.104Z" fill="#00BFB3"/>
<path d="M677.485 359.104C677.518 358.824 677.518 358.542 677.485 358.262V355.847C677.485 353.748 677.485 350.72 677.595 346.981C677.781 339.493 678.426 331.437 679.674 320.068C680.845 309.389 682.432 296.96 684.052 288.882C684.413 287.045 684.774 285.384 685.146 283.941C685.518 282.498 685.748 281.23 686.011 280.224C686.273 279.218 686.427 278.486 686.58 277.874C686.66 277.603 686.708 277.325 686.722 277.043C686.596 277.294 686.497 277.558 686.426 277.83L685.726 280.147C685.42 281.153 685.102 282.388 684.73 283.842C684.358 285.296 683.953 286.936 683.559 288.772C681.489 298.331 679.933 307.993 678.897 317.718C677.649 329.098 677.091 339.461 677.037 346.97C677.037 350.72 677.037 353.759 677.168 355.858C677.234 356.83 677.277 357.628 677.321 358.262C677.34 358.549 677.395 358.832 677.485 359.104Z" fill="black" fill-opacity="0.25"/>
<path d="M677.54 339.111C677.595 338.273 677.595 337.434 677.54 336.596C677.442 334.968 677.223 332.628 676.763 329.764C676.223 326.406 675.492 323.081 674.574 319.806C673.488 315.781 672.094 311.845 670.405 308.033C667.513 301.002 663.367 294.553 658.169 289.002C657.27 288.046 656.309 287.152 655.291 286.323C654.853 285.952 654.459 285.58 654.065 285.285L652.971 284.52C652.279 284.007 651.547 283.55 650.782 283.153C653.232 285.077 655.561 287.151 657.754 289.362C662.781 294.96 666.816 301.374 669.682 308.328C671.341 312.117 672.741 316.014 673.874 319.992C674.826 323.23 675.615 326.513 676.238 329.83C676.763 332.672 677.07 334.989 677.245 336.596C677.274 337.441 677.373 338.282 677.54 339.111Z" fill="#00BFB3"/>
<path d="M677.54 339.111C677.595 338.273 677.595 337.434 677.54 336.596C677.442 334.968 677.223 332.628 676.763 329.764C676.223 326.406 675.492 323.081 674.574 319.806C673.488 315.781 672.094 311.845 670.405 308.033C667.513 301.002 663.367 294.553 658.169 289.002C657.27 288.046 656.309 287.152 655.291 286.323C654.853 285.952 654.459 285.58 654.065 285.285L652.971 284.52C652.279 284.007 651.547 283.55 650.782 283.153C653.232 285.077 655.561 287.151 657.754 289.362C662.781 294.96 666.816 301.374 669.682 308.328C671.341 312.117 672.741 316.014 673.874 319.992C674.826 323.23 675.615 326.513 676.238 329.83C676.763 332.672 677.07 334.989 677.245 336.596C677.274 337.441 677.373 338.282 677.54 339.111Z" fill="black" fill-opacity="0.25"/>
<path d="M658.191 374.375L660.194 401.823H695.488L697.502 374.375H658.191Z" fill="#374355"/>
<path d="M701.705 363.563H654.777V374.385H701.705V363.563Z" fill="#374355"/>
<path opacity="0.5" d="M654.777 400.773V403.769H656.988H700.938V400.773H654.777Z" fill="#374355"/>
<path opacity="0.5" d="M659.143 409.048L656.987 403.769H699.253L696.736 409.048H659.143Z" fill="#374355"/>
<path d="M696.845 383.35L696.681 383.601L696.156 384.301L694.098 386.924L694 387.044L693.912 386.924L688.867 379.939H689.152L684.183 386.979L684.019 387.198L683.855 386.99L677.956 379.983H678.295L677.967 380.398L672.692 386.957L672.517 387.176L672.353 386.946C670.569 384.41 668.894 382.049 667.373 379.917H667.669L661.54 386.891L661.431 387.012L661.343 386.87C660.544 385.514 659.898 384.443 659.428 383.656L658.935 382.792C658.876 382.695 658.825 382.592 658.782 382.486C658.864 382.567 658.934 382.659 658.99 382.759L659.537 383.59C660.03 384.355 660.708 385.416 661.551 386.749H661.354L667.384 379.688L667.581 379.502L667.723 379.688C669.245 381.874 670.941 384.17 672.747 386.684H672.407C674.071 384.585 675.844 382.311 677.671 380.07L677.989 379.655L678.164 379.447L678.328 379.655L684.216 386.673H683.888C685.693 384.137 687.39 381.787 688.911 379.666L689.053 379.469L689.195 379.666L694.142 386.727H693.967L696.101 384.17L696.67 383.503C696.758 383.415 696.834 383.339 696.845 383.35Z" fill="#E0E0E0"/>
<path opacity="0.5" d="M697.994 374.2C697.994 374.32 689.141 374.419 678.295 374.419C667.45 374.419 658.596 374.32 658.596 374.2C658.596 374.08 667.439 373.981 678.295 373.981C689.152 373.981 697.994 374.036 697.994 374.2Z" fill="#374355"/>
<path d="M699.767 404.064C699.767 404.185 690.158 404.283 678.306 404.283C666.454 404.283 656.834 404.185 656.834 404.064C656.834 403.944 666.443 403.846 678.306 403.846C690.169 403.846 699.767 403.944 699.767 404.064Z" fill="#374355"/>
<path d="M6.92773 375.042V409.618H57.5545H113.391V375.042H6.92773Z" fill="#F5F5F5"/>
<path d="M2.4624 365.367V375.041H117.111V365.367H57.5543H2.4624Z" fill="#E0E0E0"/>
<path d="M59.7868 409.617H113.39V375.041H117.111V365.367H57.5542V374.145L59.7868 409.617Z" fill="#E0E0E0"/>
<path d="M43.4147 380.616H21.8223V385.82H43.4147V380.616Z" fill="#E0E0E0"/>
<path d="M46.7635 392.324H19.0425V403.31H46.7635V392.324Z" fill="white"/>
<path d="M23.3105 330.836V365.422H73.9373H129.773V330.836H23.3105Z" fill="#F5F5F5"/>
<path d="M18.8457 321.172V330.835H133.495V321.172H73.9376H18.8457Z" fill="#EBEBEB"/>
<path d="M76.1701 365.422H129.774V330.835H133.494V321.172H73.9375V329.95L76.1701 365.422Z" fill="#EBEBEB"/>
<path d="M59.7868 336.41H38.1943V341.613H59.7868V336.41Z" fill="#E0E0E0"/>
<path d="M63.1356 348.129H35.4146V359.115H63.1356V348.129Z" fill="white"/>
</svg>
