<svg width="22" height="22" viewBox="0 0 22 22" fill="none" xmlns="http://www.w3.org/2000/svg">
<g clip-path="url(#clip0_2404_1443)">
<path d="M11 2.75C16.3067 2.75 20.5863 6.14453 20.5863 10.3125C20.5863 14.4805 16.3067 17.875 11 17.875C9.78614 17.875 8.58345 17.6924 7.42329 17.3271C7.0144 17.1953 6.56735 17.2645 6.21716 17.5135C5.26755 18.2118 3.70177 19.0299 1.80427 19.2177C2.28122 18.568 3.08259 17.4775 3.55482 16.2262L3.56035 16.2116C3.74438 15.7274 3.63726 15.2191 3.2841 14.8014C2.04146 13.4535 1.37759 11.9281 1.37759 10.3125C1.37759 6.14453 5.69767 2.75 11 2.75ZM11 1.375C4.92853 1.375 0.00117925 5.37539 0.00117925 10.3125C0.00117925 12.3591 0.857117 14.2334 2.27466 15.7352C1.63571 17.4324 0.303679 18.8667 0.282195 18.8826C-0.00243011 19.1834 -0.0776254 19.6238 0.0834644 19.9998C0.24996 20.3758 0.617901 20.625 1.03126 20.625C3.67341 20.625 5.71915 19.5186 7.00821 18.6377C8.25431 19.0266 9.59493 19.25 11 19.25C17.0758 19.25 21.9613 15.2483 21.9613 10.3125C21.9613 5.37668 17.0758 1.375 11 1.375Z" fill="white"/>
</g>
<defs>
<clipPath id="clip0_2404_1443">
<rect width="22" height="22" fill="white"/>
</clipPath>
</defs>
</svg>
