<svg width="38" height="37" viewBox="0 0 38 37" fill="none" xmlns="http://www.w3.org/2000/svg">
<g clip-path="url(#clip0_2404_1451)">
<path d="M26.8794 10.8353C27.2127 11.1686 27.2127 11.7141 26.8794 12.0475L20.2124 18.7145L26.8794 25.3815C27.2144 25.7165 27.2148 26.259 26.8798 26.594C26.5447 26.929 26.0005 26.927 25.6672 26.5937L19.0002 19.9266L12.3332 26.5937C11.9982 26.9287 11.4562 26.9289 11.1214 26.594C10.7876 26.2603 10.7861 25.7163 11.121 25.3815L17.788 18.7145L11.121 12.0475C10.786 11.7124 10.7864 11.1707 11.1214 10.8357C11.4564 10.5006 11.9983 10.5004 12.3332 10.8353L19.0002 17.5023L25.6672 10.8353C26.0005 10.5019 26.546 10.5019 26.8794 10.8353Z" fill="white"/>
</g>
<defs>
<clipPath id="clip0_2404_1451">
<rect width="24" height="27.4286" fill="white" transform="translate(0.817383 17.5022) rotate(-45)"/>
</clipPath>
</defs>
</svg>
