<svg width="28" height="22" viewBox="0 0 28 22" fill="none" xmlns="http://www.w3.org/2000/svg">
<g clip-path="url(#clip0_2404_1440)">
<path d="M9.79813 10.6921C9.2075 9.8863 7.72672 9.36739 6.65938 10.5275C6.00125 11.2405 5.98859 12.3374 6.55391 13.1179L7.76005 14.7733C8.03393 15.1476 7.48617 15.5799 7.18587 15.2268L4.57363 12.1307L4.54494 4.99677C4.54494 3.90031 3.64972 2.91946 2.55411 2.90385C1.4218 2.88444 0.5 3.79653 0.5 4.88708L0.529004 13.4216C0.529004 13.8802 0.686954 14.3282 0.971551 14.6868L5.48139 20.3273C5.66647 20.5598 5.79869 20.9053 5.86965 21.2419C5.93377 21.5464 6.21474 21.7558 6.52566 21.7558C6.95513 21.7558 7.27533 21.3582 7.18547 20.9382C7.07153 20.4036 6.85118 19.8746 6.53452 19.484L2.02468 13.8435C1.92973 13.7675 1.87742 13.6115 1.87742 13.4596L1.84831 4.88708C1.84831 4.00156 3.19662 3.97499 3.19662 4.91872L3.22554 12.58L5.94833 15.8487C7.50209 17.715 10.0249 15.738 8.92929 14.0616C8.92402 14.051 8.91347 14.0405 8.9082 14.03L7.61703 12.2825C7.42217 12.0084 7.44326 11.5759 7.76452 11.3443C8.05949 11.1282 8.48593 11.1809 8.71247 11.492L10.4978 13.954C11.0298 14.6657 11.3192 15.5306 11.3192 16.4V21.125C11.3211 21.4963 11.6206 21.8 11.9919 21.8C12.3631 21.8 12.6694 21.4979 12.6694 21.1284V16.4034C12.6694 15.2331 12.2901 14.0996 11.5898 13.1613L9.79813 10.6921ZM27.4663 4.88708C27.4663 3.75899 26.5445 2.84689 25.4121 2.8625C24.3165 2.87832 23.4213 3.86403 23.4213 4.96091L23.4502 12.0864L20.838 15.1813C20.5378 15.5344 19.99 15.1074 20.2638 14.7277L21.4714 13.1136C22.035 12.3336 22.0245 11.2317 21.366 10.525C20.2915 9.37035 18.8116 9.88166 18.2273 10.6937L16.4384 13.1558C15.7381 14.089 15.3589 15.2277 15.3589 16.3979V21.1229C15.3589 21.4923 15.6608 21.7946 16.0296 21.7946C16.3986 21.7946 16.703 21.4933 16.703 21.1238L16.7072 16.3946C16.7072 15.5247 16.9916 14.6602 17.529 13.9485L19.3143 11.4865C19.5408 11.1754 19.9623 11.1174 20.2572 11.3388C20.589 11.576 20.61 12.0033 20.4046 12.2771L19.1196 14.0591C19.1091 14.0696 19.0985 14.0802 19.0985 14.0907C17.9978 15.7672 20.5257 17.7492 22.0795 15.8778L24.8023 12.6091L24.7733 4.94783C24.7733 4.0041 26.1217 4.03067 26.1217 4.91619L26.1507 13.4507C26.1507 13.6036 26.098 13.7565 26.0032 13.8724L21.4933 19.5129C21.1819 19.9025 20.9597 20.4326 20.8445 20.9663C20.7535 21.3866 21.0722 21.7851 21.5018 21.7851C21.8132 21.7851 22.0953 21.5749 22.1582 21.2696C22.228 20.9309 22.3576 20.5891 22.547 20.3566L27.0568 14.7162C27.3439 14.3624 27.5 13.9194 27.5 13.4554L27.4663 4.88708Z" fill="white"/>
</g>
<defs>
<clipPath id="clip0_2404_1440">
<rect width="27" height="21.6" fill="white" transform="translate(0.5 0.199951)"/>
</clipPath>
</defs>
</svg>
