<svg width="30" height="24" viewBox="0 0 30 24" fill="none" xmlns="http://www.w3.org/2000/svg">
<g id="photo-film-music 2" clip-path="url(#clip0_2540_19432)">
<path id="Vector" d="M25.5 0.75H10.5C9.25781 0.75 8.25 1.75781 8.25 3V13.5C8.25 14.3719 8.74687 15.1266 9.46875 15.5016L9.47344 15.4922L9.48281 15.4828L20.2031 4.76719C20.6437 4.32656 21.3562 4.32656 21.7922 4.76719L24.5953 7.57031L23.7984 7.8375L21.2672 5.29688C21.1219 5.15156 20.8828 5.15156 20.7375 5.29688L10.2891 15.7406C10.3594 15.7453 10.4297 15.75 10.5 15.75H18.75V16.5H10.5C8.84531 16.5 7.5 15.1547 7.5 13.5V3C7.5 1.34531 8.84531 0 10.5 0H25.5C27.1547 0 28.5 1.34531 28.5 3V6.31406C28.35 6.3375 28.1953 6.37031 28.0453 6.42188L27.75 6.52031V3C27.75 1.75781 26.7422 0.75 25.5 0.75ZM12.375 4.5C12.375 4.79837 12.4935 5.08452 12.7045 5.2955C12.9155 5.50647 13.2016 5.625 13.5 5.625C13.7984 5.625 14.0845 5.50647 14.2955 5.2955C14.5065 5.08452 14.625 4.79837 14.625 4.5C14.625 4.20163 14.5065 3.91548 14.2955 3.7045C14.0845 3.49353 13.7984 3.375 13.5 3.375C13.2016 3.375 12.9155 3.49353 12.7045 3.7045C12.4935 3.91548 12.375 4.20163 12.375 4.5ZM13.5 6.375C13.0027 6.375 12.5258 6.17746 12.1742 5.82583C11.8225 5.47419 11.625 4.99728 11.625 4.5C11.625 4.00272 11.8225 3.52581 12.1742 3.17417C12.5258 2.82254 13.0027 2.625 13.5 2.625C13.9973 2.625 14.4742 2.82254 14.8258 3.17417C15.1775 3.52581 15.375 4.00272 15.375 4.5C15.375 4.99728 15.1775 5.47419 14.8258 5.82583C14.4742 6.17746 13.9973 6.375 13.5 6.375ZM6 4.5V5.25V9V12.75V16.125V18V20.25H13.8656C13.7437 20.4844 13.65 20.7328 13.5844 21H6H5.625H5.25H3C1.34531 21 0 19.6547 0 18V16.5V16.125V15.75V13.125V12.75V12.375V9.375V9V8.625V7.5C0 5.84531 1.34531 4.5 3 4.5H5.25H5.625H6ZM5.25 13.125H0.75V15.75H5.25V13.125ZM5.25 20.25V16.5H0.75V18C0.75 19.2422 1.75781 20.25 3 20.25H5.25ZM3 5.25C1.75781 5.25 0.75 6.25781 0.75 7.5V8.625H5.25V5.25H3ZM0.75 12.375H5.25V9.375H0.75V12.375ZM29.25 8.91562C29.25 8.65781 28.9969 8.47969 28.7578 8.55938L21.2578 11.0578C21.1031 11.1094 21 11.25 21 11.4141V13.7297L29.25 10.9781V8.91562ZM29.25 11.7703L21 14.5219V21.75C21 22.9922 19.6547 24 18 24C16.3453 24 15 22.9922 15 21.75C15 20.5078 16.3453 19.5 18 19.5C18.8953 19.5 19.7016 19.7953 20.25 20.2594V14.25V11.4141C20.25 10.9312 20.5594 10.5 21.0187 10.3453L28.5188 7.84687C29.2453 7.60312 30 8.14687 30 8.91562V11.25V18.375C30 18.4172 29.9953 18.4547 29.9812 18.4922C29.9953 18.5766 30 18.6609 30 18.75C30 19.9922 28.6547 21 27 21C25.3453 21 24 19.9922 24 18.75C24 17.5078 25.3453 16.5 27 16.5C27.8953 16.5 28.7016 16.7953 29.25 17.2594V11.7703ZM29.25 18.75C29.25 18.4172 29.0719 18.0609 28.6734 17.7609C28.275 17.4609 27.6844 17.25 27 17.25C26.3156 17.25 25.7297 17.4562 25.3266 17.7609C24.9234 18.0656 24.75 18.4219 24.75 18.75C24.75 19.0781 24.9281 19.4391 25.3266 19.7391C25.725 20.0391 26.3156 20.25 27 20.25C27.6844 20.25 28.2703 20.0438 28.6734 19.7391C29.0766 19.4344 29.25 19.0781 29.25 18.75ZM20.25 21.75C20.25 21.4172 20.0719 21.0609 19.6734 20.7609C19.275 20.4609 18.6844 20.25 18 20.25C17.3156 20.25 16.7297 20.4562 16.3266 20.7609C15.9234 21.0656 15.75 21.4219 15.75 21.75C15.75 22.0781 15.9281 22.4391 16.3266 22.7391C16.725 23.0391 17.3156 23.25 18 23.25C18.6844 23.25 19.2703 23.0438 19.6734 22.7391C20.0766 22.4344 20.25 22.0781 20.25 21.75Z" fill="#374355"/>
</g>
<defs>
<clipPath id="clip0_2540_19432">
<rect width="30" height="24" fill="white"/>
</clipPath>
</defs>
</svg>
