<svg width="33" height="26" viewBox="0 0 33 26" fill="none" xmlns="http://www.w3.org/2000/svg">
<g clip-path="url(#clip0_2404_18846)">
<path d="M28.6609 0H11.9641C10.7402 0 9.75 0.969922 9.75 2.2684V13.9836C9.75 15.2344 10.7402 16.25 11.9641 16.25H18.6875V12.9543L15.3004 13C15.0465 13 14.8129 12.8578 14.6961 12.6293C14.5806 12.4022 14.6024 12.1294 14.7525 11.9234L17.7146 7.86094C17.8422 7.686 18.0456 7.58271 18.262 7.58271C18.4784 7.58271 18.6815 7.68595 18.8089 7.86094L19.755 9.1584L22.4103 5.17613C22.5367 4.98824 22.7043 4.875 22.9734 4.875C23.1998 4.875 23.4112 4.98809 23.5366 5.17654L25.6684 8.37423L30.875 6.64219V2.2684C30.875 0.969922 29.8848 0 28.6609 0ZM14.625 6.5C13.7262 6.5 13 5.77383 13 4.875C13 3.97617 13.7277 3.25 14.625 3.25C15.5228 3.25 16.25 3.9777 16.25 4.875C16.25 5.7723 15.5238 6.5 14.625 6.5Z" fill="#00BFB3"/>
<path opacity="0.4" d="M8.9375 19.9062C8.4888 19.9062 8.125 19.5425 8.125 19.0938V4.875H2.04141C0.868359 4.875 0 5.74336 0 6.91641V20.7137C0 21.841 0.910508 22.75 2.03785 22.75H14.723C15.0228 21.4749 16.02 20.443 17.3794 19.9062H8.9375ZM5.28125 19.5C5.28125 19.7244 5.09935 19.9062 4.875 19.9062H3.25C3.02565 19.9062 2.84375 19.7244 2.84375 19.5V17.875C2.84375 17.6506 3.02565 17.4688 3.25 17.4688H4.875C5.09935 17.4688 5.28125 17.6506 5.28125 17.875V19.5ZM5.28125 14.625C5.28125 14.8494 5.09935 15.0312 4.875 15.0312H3.25C3.02555 15.0312 2.84375 14.8484 2.84375 14.625V13C2.84375 12.7756 3.02565 12.5938 3.25 12.5938H4.875C5.09935 12.5938 5.28125 12.7756 5.28125 13V14.625ZM5.28125 9.75C5.28125 9.97435 5.09935 10.1562 4.875 10.1562H3.25C3.02555 10.1562 2.84375 9.97344 2.84375 9.75V8.125C2.84375 7.90065 3.02565 7.71875 3.25 7.71875H4.875C5.09935 7.71875 5.28125 7.90065 5.28125 8.125V9.75ZM31.4285 8.16563L20.866 11.6863C20.5359 11.7965 20.3125 12.1113 20.3125 12.4566V21.2113C20.0535 21.1605 19.7844 21.125 19.5 21.125C17.7049 21.125 16.25 22.2163 16.25 23.5625C16.25 24.9087 17.7049 26 19.5 26C21.2951 26 22.75 24.9087 22.75 23.5625V16.1992L30.0625 13.7617V17.9613C29.8035 17.9105 29.5344 17.875 29.25 17.875C27.4549 17.875 26 18.9663 26 20.3125C26 21.6587 27.4549 22.75 29.25 22.75C31.0451 22.75 32.5 21.6587 32.5 20.3125V8.9375C32.5 8.38398 31.9566 7.99297 31.4285 8.16563ZM15.3004 13L18.6875 12.9543V12.4566C18.6875 11.406 19.3578 10.4767 20.3546 10.1446L25.6714 8.3723L23.5396 5.17461C23.4152 4.98824 23.202 4.875 22.9734 4.875C22.747 4.875 22.5356 4.98809 22.4103 5.17654L19.7549 9.1588L18.8094 7.86094C18.6818 7.686 18.4784 7.58271 18.2625 7.58271C18.0465 7.58271 17.8429 7.68595 17.715 7.86094L14.753 11.9234C14.6029 12.1293 14.581 12.402 14.6966 12.6293C14.8129 12.8578 15.0465 13 15.3004 13Z" fill="#00BFB3"/>
</g>
<defs>
<clipPath id="clip0_2404_18846">
<rect width="32.5" height="26" fill="white"/>
</clipPath>
</defs>
</svg>
