<svg width="26" height="26" viewBox="0 0 26 26" fill="none" xmlns="http://www.w3.org/2000/svg">
<path d="M18.6875 13.5078C18.6875 13.9565 18.3237 14.3203 17.875 14.3203H15.1328V17.0625C15.1328 17.5112 14.769 17.875 14.3203 17.875H11.6797C11.231 17.875 10.8672 17.5112 10.8672 17.0625V14.3203H8.125C7.6763 14.3203 7.3125 13.9565 7.3125 13.5078V10.8672C7.3125 10.4184 7.6763 10.0547 8.125 10.0547H10.8215V7.3125C10.8215 6.8637 11.1853 6.5 11.634 6.5H14.2746C14.7233 6.5 15.0871 6.8637 15.0871 7.3125V10.0547H17.875C18.3237 10.0547 18.6875 10.4184 18.6875 10.8672V13.5078Z" fill="#00BFB3"/>
<path opacity="0.4" d="M13 1.57928C5.81954 1.57928 0.0457127 6.30651 0.0457127 12.1418C0.0457127 14.66 1.13142 16.9203 2.93872 18.7789C2.30395 21.3378 0.180791 23.6183 0.1554 23.6437C9.56655e-06 23.8062 -0.0301443 23.9789 0.0349217 24.1312C0.101547 24.2836 0.244394 24.3748 0.406234 24.3748C3.77354 24.3748 6.29686 22.76 7.54608 21.7642C9.20764 22.3893 11.0505 22.7498 13 22.7498C20.1805 22.7043 26 18.0223 26 12.1418C26 6.26132 20.1805 1.57928 13 1.57928ZM18.6875 13.5078C18.6875 13.9565 18.3237 14.3203 17.875 14.3203H15.1328V17.0625C15.1328 17.5112 14.769 17.875 14.3203 17.875H11.6797C11.231 17.875 10.8672 17.5112 10.8672 17.0625V14.3203H8.12501C7.67631 14.3203 7.31251 13.9565 7.31251 13.5078V10.8672C7.31251 10.4184 7.67631 10.0547 8.12501 10.0547H10.8215V7.31249C10.8215 6.86368 11.1853 6.49999 11.634 6.49999H14.2746C14.7233 6.49999 15.0871 6.86368 15.0871 7.31249V10.0547H17.875C18.3237 10.0547 18.6875 10.4184 18.6875 10.8672V13.5078Z" fill="#00BFB3"/>
</svg>
