<svg width="24" height="24" viewBox="0 0 24 24" fill="none" xmlns="http://www.w3.org/2000/svg">
<g id="comment-medical 3" clip-path="url(#clip0_2540_19428)">
<path id="Vector" d="M7.37344 19.4531C7.13906 19.3687 6.87656 19.4062 6.675 19.5516C6.15937 19.9266 5.29688 20.4562 4.275 20.9016C3.20156 21.375 1.95 21.75 0.75 21.75L0.754688 21.7453L0.76875 21.7313L0.773438 21.7266C0.792188 21.7078 0.815625 21.6844 0.84375 21.6516C0.904688 21.5859 0.99375 21.4828 1.09687 21.3563C1.3125 21.0938 1.59375 20.7188 1.875 20.25C2.37656 19.4109 2.87812 18.2766 2.98125 16.9734C2.99531 16.7719 2.92969 16.5703 2.79844 16.4203C1.49531 14.9437 0.75 13.1578 0.75 11.25C0.75 6.41719 5.63437 2.25 12 2.25C18.3656 2.25 23.25 6.41719 23.25 11.25C23.25 16.0828 18.3656 20.25 12 20.25C10.35 20.25 8.78438 19.9641 7.37344 19.4531ZM0.220312 21.2203C0.0046875 21.4359 -0.05625 21.7547 0.0609375 22.0359C0.178125 22.3172 0.45 22.5 0.754688 22.5C2.1 22.5 3.45469 22.0828 4.57969 21.5953C5.65312 21.1266 6.56719 20.5688 7.125 20.1609C8.61563 20.7 10.2656 21 12.0047 21C18.6328 21 24.0047 16.6359 24.0047 11.25C24.0047 5.86406 18.6281 1.5 12 1.5C5.37188 1.5 0 5.86406 0 11.25C0 13.3641 0.829688 15.3187 2.23594 16.9172C2.14688 18.0656 1.70156 19.0875 1.23281 19.8656C0.975 20.2969 0.7125 20.6437 0.520313 20.8781C0.421875 20.9953 0.346875 21.0844 0.290625 21.1453C0.2625 21.1734 0.24375 21.1969 0.229688 21.2109L0.215625 21.225L0.220312 21.2203ZM10.875 7.125C10.875 6.91875 11.0437 6.75 11.25 6.75H12.75C12.9563 6.75 13.125 6.91875 13.125 7.125V9.75C13.125 9.95625 13.2937 10.125 13.5 10.125H16.125C16.3312 10.125 16.5 10.2937 16.5 10.5V12C16.5 12.2063 16.3312 12.375 16.125 12.375H13.5C13.2937 12.375 13.125 12.5437 13.125 12.75V15.375C13.125 15.5813 12.9563 15.75 12.75 15.75H11.25C11.0437 15.75 10.875 15.5813 10.875 15.375V12.75C10.875 12.5437 10.7063 12.375 10.5 12.375H7.875C7.66875 12.375 7.5 12.2063 7.5 12V10.5C7.5 10.2937 7.66875 10.125 7.875 10.125H10.5C10.7063 10.125 10.875 9.95625 10.875 9.75V7.125ZM11.25 6C10.6266 6 10.125 6.50156 10.125 7.125V9.375H7.875C7.25156 9.375 6.75 9.87656 6.75 10.5V12C6.75 12.6234 7.25156 13.125 7.875 13.125H10.125V15.375C10.125 15.9984 10.6266 16.5 11.25 16.5H12.75C13.3734 16.5 13.875 15.9984 13.875 15.375V13.125H16.125C16.7484 13.125 17.25 12.6234 17.25 12V10.5C17.25 9.87656 16.7484 9.375 16.125 9.375H13.875V7.125C13.875 6.50156 13.3734 6 12.75 6H11.25Z" fill="#374355"/>
</g>
<defs>
<clipPath id="clip0_2540_19428">
<rect width="24" height="24" fill="white"/>
</clipPath>
</defs>
</svg>
