<svg width="24" height="28" viewBox="0 0 24 28" fill="none" xmlns="http://www.w3.org/2000/svg">
<g id="plus 1">
<path id="Vector" d="M23.1426 13.7143C23.1426 14.1858 22.7569 14.5715 22.2855 14.5715H12.8569V24.0001C12.8569 24.4738 12.4736 24.8577 11.9998 24.8577C11.526 24.8577 11.1426 24.4715 11.1426 24.0001V14.5715H1.71408C1.24029 14.5715 0.856934 14.1884 0.856934 13.7149C0.856934 13.2429 1.24051 12.8572 1.71408 12.8572H11.1426V3.42863C11.1426 2.95484 11.526 2.57202 11.9998 2.57202C12.4736 2.57202 12.8569 2.95506 12.8569 3.42863V12.8572H22.2855C22.7569 12.8572 23.1426 13.2429 23.1426 13.7143Z" fill="white"/>
</g>
</svg>
