<svg width="24" height="24" viewBox="0 0 24 24" fill="none" xmlns="http://www.w3.org/2000/svg">
<g id="circle-user 3" clip-path="url(#clip0_2540_19435)">
<path id="Vector" d="M12 23.25C9.46875 23.25 7.12969 22.4109 5.25 21C5.25 18.0984 7.59844 15.75 10.5 15.75H13.5C16.4016 15.75 18.75 18.0984 18.75 21C18.9984 20.8125 19.2375 20.6156 19.4719 20.4094C19.1766 17.3719 16.6172 15 13.5 15H10.5C7.38281 15 4.82344 17.3719 4.52812 20.4094C2.2125 18.3516 0.75 15.3469 0.75 12C0.75 5.78906 5.78906 0.75 12 0.75C18.2109 0.75 23.25 5.78906 23.25 12C23.25 18.2109 18.2109 23.25 12 23.25ZM12 24C15.1826 24 18.2348 22.7357 20.4853 20.4853C22.7357 18.2348 24 15.1826 24 12C24 8.8174 22.7357 5.76516 20.4853 3.51472C18.2348 1.26428 15.1826 0 12 0C8.8174 0 5.76516 1.26428 3.51472 3.51472C1.26428 5.76516 0 8.8174 0 12C0 15.1826 1.26428 18.2348 3.51472 20.4853C5.76516 22.7357 8.8174 24 12 24ZM15.75 9.75C15.75 8.75544 15.3549 7.80161 14.6517 7.09835C13.9484 6.39509 12.9946 6 12 6C11.0054 6 10.0516 6.39509 9.34835 7.09835C8.64509 7.80161 8.25 8.75544 8.25 9.75C8.25 10.7446 8.64509 11.6984 9.34835 12.4017C10.0516 13.1049 11.0054 13.5 12 13.5C12.9946 13.5 13.9484 13.1049 14.6517 12.4017C15.3549 11.6984 15.75 10.7446 15.75 9.75ZM12 6.75C12.7956 6.75 13.5587 7.06607 14.1213 7.62868C14.6839 8.19129 15 8.95435 15 9.75C15 10.5456 14.6839 11.3087 14.1213 11.8713C13.5587 12.4339 12.7956 12.75 12 12.75C11.2044 12.75 10.4413 12.4339 9.87868 11.8713C9.31607 11.3087 9 10.5456 9 9.75C9 8.95435 9.31607 8.19129 9.87868 7.62868C10.4413 7.06607 11.2044 6.75 12 6.75Z" fill="#374355"/>
</g>
<defs>
<clipPath id="clip0_2540_19435">
<rect width="24" height="24" fill="white"/>
</clipPath>
</defs>
</svg>
