<svg width="26" height="26" viewBox="0 0 26 26" fill="none" xmlns="http://www.w3.org/2000/svg">
<g clip-path="url(#clip0_2404_18855)">
<path d="M13 13.8125C15.0196 13.8125 16.6563 12.1753 16.6563 10.1562C16.6563 8.13719 15.0211 6.5 13 6.5C10.9789 6.5 9.34377 8.13516 9.34377 10.1562C9.34377 12.1773 10.9789 13.8125 13 13.8125ZM14.625 16.25H11.375C8.96088 16.25 6.92963 17.7673 6.10901 19.8915C7.8762 21.6582 10.3137 22.75 13 22.75C15.6864 22.75 18.1239 21.6567 19.891 19.8915C19.0684 17.7684 17.0371 16.25 14.625 16.25Z" fill="#00BFB3"/>
<path opacity="0.4" d="M13 0C5.81953 0 0 5.81953 0 13C0 20.1805 5.81953 26 13 26C20.1805 26 26 20.1805 26 13C26 5.81953 20.1805 0 13 0ZM13 6.5C15.0196 6.5 16.6562 8.13719 16.6562 10.1562C16.6562 12.1753 15.0211 13.8125 13 13.8125C10.9809 13.8125 9.34375 12.1753 9.34375 10.1562C9.34375 8.13719 10.9789 6.5 13 6.5ZM13 22.75C10.3121 22.75 7.87617 21.6567 6.10898 19.8915C6.93164 17.7684 8.96289 16.25 11.375 16.25H14.625C17.0391 16.25 19.0704 17.7673 19.891 19.8915C18.1238 21.6582 15.6863 22.75 13 22.75Z" fill="#00BFB3"/>
</g>
<defs>
<clipPath id="clip0_2404_18855">
<rect width="26" height="26" fill="white"/>
</clipPath>
</defs>
</svg>
