<svg width="28" height="22" viewBox="0 0 28 22" fill="none" xmlns="http://www.w3.org/2000/svg">
<path id="Vector" d="M9.4375 9.28125C8.96313 9.28125 8.57812 9.66595 8.57812 10.1406C8.57812 10.6133 8.92617 11 9.4375 11C9.94883 11 10.2969 10.6152 10.2969 10.1406C10.2969 9.6293 9.91016 9.28125 9.4375 9.28125ZM10.1508 2.75H8.58672C7.53828 2.75 6.6875 3.6025 6.6875 4.64922C6.6875 5.02923 6.99498 5.33672 7.375 5.33672C7.75502 5.33672 8.0625 5.02923 8.0625 4.64922C8.0625 4.36133 8.29883 4.125 8.58672 4.125H10.1491C10.516 4.125 10.8125 4.42148 10.8125 4.78672C10.8125 5.03916 10.6722 5.26625 10.4372 5.38355L9.11953 6.06719C8.8918 6.14883 8.75 6.41953 8.75 6.67734V7.5625C8.75 7.94063 9.05937 8.25 9.4375 8.25C9.81563 8.25 10.125 7.94062 10.125 7.5582V7.09414L11.0609 6.60816C11.7191 6.26484 12.1875 5.56445 12.1875 4.78672C12.1875 3.66395 11.2723 2.75 10.1508 2.75ZM25.25 5.5H19.75V6.875H25.25C26.008 6.875 26.625 7.49203 26.625 8.25V16.5C26.625 17.258 26.008 17.875 25.25 17.875H22.5V20.005L18.7359 17.875H14.25C13.492 17.875 12.875 17.258 12.875 16.5V15.125L11.5 15.1248V16.499C11.5 18.0136 12.7354 19.2103 14.2113 19.2103L18.375 19.25L23.0543 21.8982C23.1488 21.9699 23.2563 22 23.3594 22C23.6301 22 23.875 21.7895 23.875 21.4844V19.2487H25.25C26.7646 19.2487 28 18.0134 28 16.5374V8.21133C28 6.7332 26.7668 5.5 25.25 5.5ZM18.375 11V2.71133C18.375 1.23535 17.1418 0 15.625 0H3.25C1.73535 0 0.5 1.23535 0.5 2.71133V10.9613C0.5 12.5168 1.73535 13.75 3.25 13.75L4.625 13.7505V15.9844C4.625 16.2895 4.87422 16.5 5.14062 16.5C5.24268 16.5 5.3501 16.4678 5.44678 16.3979L10.125 13.75L15.625 13.7468C17.1418 13.7457 18.375 12.5168 18.375 11ZM9.76406 12.375L6 14.5063V12.375H3.25C2.49203 12.375 1.875 11.7563 1.875 11V2.75C1.875 1.99203 2.49203 1.375 3.25 1.375H15.625C16.383 1.375 17 1.99203 17 2.75V11C17 11.758 16.383 12.375 15.625 12.375H9.76406Z" fill="#374355"/>
</svg>
