<svg width="22" height="18" viewBox="0 0 22 18" fill="none" xmlns="http://www.w3.org/2000/svg">
<path d="M7.15 8.21644C6.93347 8.21644 6.75778 8.39193 6.75778 8.60866C6.75812 8.82488 6.93344 9.0002 7.15 9.0002C7.36656 9.0002 7.54222 8.82464 7.54222 8.60798C7.54188 8.39176 7.36656 8.21644 7.15 8.21644ZM7.86156 2.6752H6.30094C5.47938 2.6752 4.8125 3.34138 4.8125 4.1602C4.8125 4.3122 4.93549 4.4352 5.0875 4.4352C5.23951 4.4352 5.3625 4.3122 5.3625 4.1602C5.3625 3.64457 5.78531 3.2252 6.30094 3.2252H7.86294C8.42531 3.2252 8.9375 3.67551 8.9375 4.2977C8.9375 4.70607 8.70977 5.07285 8.34006 5.2571L7.02281 5.93738C6.93344 5.98551 6.875 6.07832 6.875 6.18145V7.0752C6.875 7.2272 6.99799 7.3502 7.15 7.3502C7.30201 7.3502 7.425 7.2272 7.425 7.0752V6.34988L8.58894 5.74729C9.11281 5.46988 9.4875 4.91301 9.4875 4.2977C9.4875 3.40257 8.75875 2.6752 7.86156 2.6752ZM19.8 4.6002H16.225C16.0731 4.6002 15.95 4.72333 15.95 4.8752C15.95 5.02706 16.0731 5.1502 16.225 5.1502H19.8C20.7113 5.1502 21.45 5.88891 21.45 6.8002V13.3693C21.45 14.2805 20.7113 14.9883 19.8003 14.9883H18.15V16.9731L15.5062 14.9883H11C10.0887 14.9883 9.35 14.2496 9.35 13.3383V13.0643C9.35 12.9124 9.22687 12.7893 9.075 12.7893C8.92313 12.7893 8.8 12.9124 8.8 13.0643V13.3387C8.8 14.5487 9.79 15.5078 10.9691 15.5078L15.2934 15.5075L18.138 17.6429C18.2291 17.7796 18.2978 17.8002 18.3631 17.8002C18.535 17.8002 18.7 17.6318 18.7 17.4633V15.5988H19.8C21.01 15.5988 22 14.6088 22 13.4298V6.76926C22 5.5902 21.01 4.6002 19.8 4.6002ZM12.1 11.1968C13.3083 11.1968 14.3 10.2085 14.3 8.99951V2.36926C14.3 1.18848 13.3134 0.200195 12.1 0.200195H2.2C0.988281 0.200195 0 1.18848 0 2.36926V8.96926C0 10.2102 0.988281 11.2002 2.2 11.2002L3.3 11.2006V13.0654C3.3 13.2627 3.465 13.4036 3.63688 13.4036C3.7036 13.4036 3.77183 13.3831 3.83278 13.3377L6.67731 11.2023L12.1 11.1968ZM6.67562 10.6502H6.49344L3.85 12.6371V10.6502H2.2C1.29009 10.6502 0.55 9.9101 0.55 9.03113V2.39985C0.55 1.49029 1.29009 0.750195 2.2 0.750195H12.1C13.0099 0.750195 13.75 1.49029 13.75 2.39985V8.99985C13.75 9.90735 13.0133 10.6454 12.0997 10.6454L6.67562 10.6502Z" fill="black"/>
</svg>
