<svg width="22" height="20" viewBox="0 0 22 20" fill="none" xmlns="http://www.w3.org/2000/svg">
<path id="Vector" d="M7.5625 18.25H3.4375C2.30012 18.25 1.375 17.3262 1.375 16.1875V3.8125C1.375 2.67512 2.30012 1.75 3.4375 1.75H7.5625C7.94063 1.75 8.25 1.44234 8.25 1.0625C8.25 0.682656 7.94063 0.375 7.5625 0.375H3.4375C1.54172 0.375 0 1.91672 0 3.8125V16.1875C0 18.0824 1.54172 19.625 3.4375 19.625H7.5625C7.94063 19.625 8.25 19.3156 8.25 18.9375C8.25 18.5594 7.94063 18.25 7.5625 18.25ZM21.5961 9.02891L16.0961 3.52891C15.7027 3.13548 15.1117 3.01715 14.5973 3.23079C14.0852 3.44297 13.75 3.9457 13.75 4.5L13.7539 7.21133L7.5625 7.25C6.42383 7.25 5.5 8.17383 5.5 9.3125V10.6875C5.5 11.8262 6.42383 12.75 7.5625 12.75L13.7543 12.75L13.75 15.5C13.75 16.056 14.085 16.5579 14.5986 16.7702C15.113 16.9837 15.7038 16.8655 16.0974 16.472L21.5974 10.972C21.8668 10.7047 22 10.3523 22 10C22 9.64766 21.8668 9.29531 21.5961 9.02891ZM15.125 15.5V11.375H7.5625C7.18437 11.375 6.875 11.0656 6.875 10.6875V9.3125C6.875 8.93437 7.18437 8.625 7.5625 8.625H15.125L15.1248 4.5L20.6248 10L15.125 15.5Z" fill="#374355"/>
</svg>
