<svg width="22" height="22" viewBox="0 0 22 22" fill="none" xmlns="http://www.w3.org/2000/svg">
<path d="M1.71875 20.625H5.15625C5.34531 20.625 5.5 20.4703 5.5 20.2812C5.5 20.0922 5.34531 19.9375 5.15625 19.9375H1.71875C1.15027 19.9375 0.6875 19.4747 0.6875 18.9062V3.09375C0.6875 2.52527 1.15027 2.0625 1.71875 2.0625H5.15625C5.34531 2.0625 5.5 1.90867 5.5 1.71875C5.5 1.52883 5.34531 1.375 5.15625 1.375H1.71875C0.770859 1.375 0 2.14586 0 3.09375V18.9062C0 19.8559 0.770859 20.625 1.71875 20.625ZM21.5961 10.0289L16.0961 4.52891C15.7027 4.13548 15.1117 4.01715 14.5973 4.23079C14.0852 4.44297 13.75 4.9457 13.75 5.5L13.7539 8.21133L6.875 8.25C6.11445 8.25 5.5 8.86445 5.5 9.625V12.375C5.5 13.1343 6.11574 13.75 6.875 13.75L13.7543 13.75L13.75 16.5C13.75 17.056 14.085 17.5579 14.5986 17.7702C15.113 17.9837 15.7038 17.8655 16.0974 17.472L21.5974 11.972C21.8668 11.7047 22 11.3523 22 11C22 10.6477 21.8668 10.2953 21.5961 10.0289ZM21.1105 11.4855L15.6105 16.9855C15.4131 17.1831 15.119 17.2417 14.8607 17.1343C14.6051 17.0285 14.4375 16.7793 14.4375 16.5V13.0625H6.875C6.49687 13.0625 6.1875 12.7531 6.1875 12.375V9.625C6.1875 9.24593 6.49593 8.9375 6.875 8.9375H14.4375V5.5C14.4375 5.22062 14.6037 4.97148 14.8622 4.86449C15.1195 4.75767 15.4135 4.81624 15.6112 5.01381L21.1112 10.5138C21.2395 10.6434 21.3125 10.8152 21.3125 11C21.3125 11.1848 21.2395 11.3566 21.1105 11.4855Z" fill="#374355"/>
</svg>
