<svg width="28" height="22" viewBox="0 0 28 22" fill="none" xmlns="http://www.w3.org/2000/svg">
<path d="M28 16.8438C28 17.2238 27.6925 17.5312 27.3125 17.5312H25.25C24.355 17.5312 23.5987 16.9546 23.3143 16.1562H21.953C21.8802 16.3482 21.8014 16.54 21.6656 16.708L21.2748 17.1914C20.6733 17.9364 19.6339 18.1315 18.808 17.7057L17.937 18.7786C17.1623 19.7227 15.7684 19.8636 14.8299 19.0969L14.5681 18.8699C14.0894 19.2567 13.4887 19.5093 12.8395 19.5763C12.7246 19.5895 12.6086 19.5938 12.4926 19.5938C11.7372 19.5938 11.011 19.3359 10.4159 18.8525L6.92383 16.1562H5.18789C4.9 16.9555 4.14504 17.5312 3.25 17.5312H1.875C1.49498 17.5312 1.1875 17.2238 1.1875 16.8438C1.1875 16.4637 1.49516 16.1562 1.875 16.1562L3.25 16.1536C3.62933 16.1536 3.9375 15.8474 3.9375 15.4687V6.53125H1.1875C0.807484 6.53125 0.5 6.22187 0.5 5.84375C0.5 5.46563 0.807484 5.15625 1.1875 5.15625H6.12461C7.56621 3.72969 9.43106 2.78824 11.4012 2.50207C11.7785 2.4423 12.1256 2.7075 12.1798 3.08344C12.2348 3.45898 11.9727 3.80832 11.5988 3.86246C9.84141 4.11641 8.17852 4.98867 6.91523 6.31211L6.71328 6.52266L5.3125 6.53125V14.7812H7.39176L11.2718 17.7757C11.6854 18.1101 12.1836 18.2591 12.6984 18.208C13.2089 18.1556 13.6678 17.9072 13.9913 17.5085L14.4446 17.056L14.9869 17.4132L15.7152 18.0469C16.0523 18.3221 16.5785 18.2658 16.8707 17.9099L18.5894 15.7937L19.3439 16.4262C19.5997 16.629 19.9923 16.5914 20.2046 16.3268L20.5954 15.8434C20.8082 15.5803 20.7679 15.1907 20.5047 14.9759L15.8426 11.1899C15.5479 10.9502 15.5036 10.517 15.7426 10.2223C15.981 9.92819 16.4138 9.88256 16.7103 10.1222L21.3724 13.9095C21.6613 14.1446 21.8343 14.4539 21.9533 14.7809H23.1875V6.53125H21.7992L21.5971 6.32513C20.0121 4.70938 17.8895 3.78125 15.7797 3.78125H15.4285C15.2755 3.78125 15.1298 3.83964 15.0089 3.94977L11.0016 7.7C10.5676 8.1168 10.632 8.72695 10.9457 9.075C11.0531 9.19102 11.3238 9.37148 11.6375 9.38867C11.8577 9.3927 12.0719 9.31954 12.2657 9.14362L12.2932 9.17383C12.6473 8.78281 13.498 7.99219 15.5434 6.09297C15.8213 5.83584 16.2558 5.84994 16.5149 6.12855C16.7734 6.40652 16.7573 6.8414 16.4793 7.10007L13.193 10.1578C12.759 10.5531 12.2348 10.7637 11.6805 10.7637C11.6435 10.7637 11.6066 10.7623 11.569 10.761C10.834 10.725 10.2367 10.3426 9.92734 9.99453C9.08086 9.06254 9.11609 7.65145 10.0019 6.75512L10.0176 6.7375L14.0768 2.94164C14.4563 2.59359 14.9332 2.40625 15.4273 2.40625H15.7785C18.1641 2.40625 20.548 3.40527 22.3699 5.15625H27.3125C27.6906 5.15625 28 5.46563 28 5.84375C28 6.22187 27.6906 6.53125 27.3125 6.53125H24.5625V15.4688C24.5625 15.8474 24.8706 16.1567 25.2113 16.1567L27.3125 16.1562C27.6906 16.1562 28 16.4656 28 16.8438Z" fill="#374355"/>
</svg>
