<svg width="22" height="22" viewBox="0 0 22 22" fill="none" xmlns="http://www.w3.org/2000/svg">
<path d="M21.725 6.325L17.7134 6.32392C16.2525 4.90492 14.3296 4.12839 12.2891 4.12839L11.99 4.125C11.65 4.125 11.3228 4.25178 11.0629 4.48491L7.67697 7.58622L7.645 7.62094C7.00562 8.25 6.97813 9.21594 7.58656 9.90344C7.84867 10.1903 8.3215 10.4363 8.83541 10.4363C9.17861 10.4363 9.54009 10.3267 9.86975 10.0451L12.6672 7.49375C12.7795 7.39169 12.7875 7.21765 12.6849 7.10497C12.5829 6.99432 12.4094 6.98466 12.2965 7.08778C9.25031 9.845 9.64219 9.51844 9.44625 9.68344C8.85844 10.1131 8.20875 9.76938 7.99219 9.53219C7.57969 9.08531 7.60719 8.41156 8.05062 7.99563L11.4318 4.89431C11.5878 4.75234 11.7872 4.675 11.9934 4.675H12.2894C14.2223 4.675 16.0397 5.42713 17.4078 6.79353L17.4884 6.87411H18.425V14.0138H18.0941C17.9421 14.0138 17.8191 14.1373 17.8191 14.2888C17.8191 14.4403 17.9421 14.5638 18.0941 14.5638H18.4781C18.6038 15.1903 19.1366 15.675 19.8 15.675H21.725C21.877 15.675 22 15.5515 22 15.4V6.6C22 6.44875 21.8763 6.325 21.725 6.325ZM21.45 15.125L19.8 15.1255C19.3463 15.125 18.975 14.7537 18.975 14.3V6.88188L21.45 6.875V15.125ZM11.6772 9.46C11.5596 9.36547 11.3866 9.38159 11.2905 9.50084C11.1943 9.61792 11.2126 9.79196 11.3302 9.88756L16.4624 14.0538C16.8141 14.3395 16.8684 14.8585 16.5838 15.2109L16.2545 15.6168C15.9704 15.9682 15.4488 16.0228 15.0982 15.7425L14.6991 15.4085L13.4454 16.9522C13.2751 17.1596 13.0339 17.2895 12.7665 17.3173C12.5012 17.342 12.2378 17.2679 12.0377 17.1035L11.2024 16.4322L11.0214 16.6137C10.697 17.0121 10.2377 17.2603 9.72685 17.3129C9.21501 17.3677 8.71451 17.2162 8.32504 16.9004L5.13573 14.016H3.575V6.84406L4.51928 6.83869L4.59986 6.75812C5.96406 5.42437 7.7825 4.675 9.71094 4.675C9.86294 4.675 9.98594 4.55146 9.98594 4.4C9.98594 4.24854 9.83469 4.125 9.71094 4.125C7.6725 4.125 5.75437 4.90291 4.28656 6.29406L0.275 6.325C0.143584 6.325 0 6.42813 0 6.6V15.4C0 15.5515 0.122994 15.675 0.275 15.675H2.2C2.86344 15.675 3.39247 15.1934 3.52103 14.5674H4.92181L7.96503 17.3195C8.41156 17.6825 8.95469 17.875 9.52188 17.875C9.60781 17.875 9.6943 17.8707 9.7813 17.8621C10.3506 17.803 10.8706 17.5549 11.2639 17.1629L11.6812 17.5249C12.0013 17.787 12.4058 17.904 12.8211 17.8654C13.2336 17.8224 13.6059 17.6227 13.8688 17.3003L14.7722 16.1886C15.3641 16.6396 16.2122 16.542 16.6793 15.9641L17.0086 15.5581C17.4833 14.9707 17.3925 14.1048 16.8066 13.6276L11.6772 9.46ZM3.025 14.3C3.025 14.7544 2.65478 15.1229 2.2 15.1229L0.55 15.125V6.875L3.025 6.88252V14.3Z" fill="#374355"/>
</svg>
