<svg width="22" height="20" viewBox="0 0 22 20" fill="none" xmlns="http://www.w3.org/2000/svg">
<path id="Vector" d="M10.9613 2.90678L11.477 2.39202C12.9164 0.989089 14.9102 0.350574 16.8695 0.676707C19.8301 1.16999 22 3.73178 22 6.7353V6.98452C22 8.76772 21.2609 10.4736 19.9547 11.6896L12.1902 18.9384C11.868 19.2392 11.4426 19.4068 11 19.4068C10.5574 19.4068 10.132 19.2392 9.80977 18.9384L2.04488 11.6896C0.740352 10.4736 0 8.76772 0 6.98452V6.7353C0 3.73178 2.17078 1.16999 5.13047 0.676707C7.05117 0.350574 9.08359 0.989089 10.4844 2.39202L10.9613 2.90678ZM10.9613 4.85327L9.51328 3.36225C8.42617 2.27557 6.875 1.77971 5.3582 2.0328C3.0598 2.41608 1.33633 4.40639 1.33633 6.7353V6.98452C1.33633 8.3896 1.95723 9.72593 2.98289 10.6841L10.7465 17.933C10.8152 17.9974 10.9055 18.0318 10.9613 18.0318C11.0945 18.0318 11.1848 17.9974 11.2535 17.933L19.018 10.6841C20.0406 9.72593 20.625 8.3896 20.625 6.98452V6.7353C20.625 4.40639 18.9406 2.41608 16.6418 2.0328C15.0863 1.77971 13.5738 2.27557 12.4867 3.36225L10.9613 4.85327Z" fill="#374355"/>
</svg>
