<svg width="22" height="22" viewBox="0 0 22 22" fill="none" xmlns="http://www.w3.org/2000/svg">
<path d="M11 4.57041L11.6102 3.80557C12.8949 2.15557 15.0434 1.34818 17.1273 1.6958C19.9375 2.16459 22 4.59619 22 7.44932V7.96064C22 9.74385 21.2609 11.4497 19.9547 12.6657L12.1902 19.9146C11.868 20.2153 11.4426 20.3829 11 20.3829C10.5574 20.3829 10.132 20.2153 9.80977 19.9146L2.04488 12.6657C0.740352 11.4497 0 9.74385 0 7.96064V7.44932C0 4.59619 2.06164 2.16459 4.87266 1.6958C6.95664 1.34818 9.06641 2.15514 10.3898 3.80557L11 4.57041ZM11 5.67041L9.85273 4.23525C8.68828 2.77947 6.82773 2.06748 4.98867 2.37385C2.50594 2.78721 0.6875 4.93564 0.6875 7.44932V7.96064C0.6875 9.51611 1.34879 11.0759 2.5141 12.163L10.2781 19.4118C10.4758 19.5923 10.7336 19.6954 11 19.6954C11.2664 19.6954 11.5242 19.5923 11.7219 19.4118L19.4863 12.163C20.6508 11.0759 21.3125 9.51611 21.3125 7.96064V7.44932C21.3125 4.93564 19.4949 2.78721 17.0113 2.37385C15.1723 2.06748 13.3117 2.77947 12.1473 4.23525L11 5.67041Z" fill="#374355"/>
</svg>
