<svg width="28" height="22" viewBox="0 0 28 22" fill="none" xmlns="http://www.w3.org/2000/svg">
<path id="Vector" d="M26.1566 14.5234H25.8129V14.1797C25.8129 13.1828 25.0438 12.375 24.0469 12.375H22.3281C21.333 12.375 20.5234 13.1845 20.5234 14.1797V14.5234H20.1797C19.1828 14.5234 18.375 15.3313 18.375 16.3281V18.0469C18.375 19.042 19.1845 19.8516 20.141 19.8516H20.4848V20.1953C20.4848 21.1905 21.2943 22 22.2895 22H24.0082C25.0034 22 25.7742 21.1905 25.7742 20.1953V19.8516H26.118C27.1922 19.8516 28 19.0438 28 18.0469V16.3281C28 15.3313 27.1922 14.5234 26.1566 14.5234ZM26.625 18.0469C26.625 18.2841 26.4326 18.4766 26.1953 18.4766H24.4766V20.1953C24.4766 20.4325 24.2842 20.625 24.0855 20.625H22.3668C22.1296 20.625 21.9371 20.4325 21.9371 20.1953V18.4766H20.2184C19.9434 18.4766 19.75 18.2832 19.75 18.0469V16.3281C19.75 16.0908 19.9425 15.8984 20.141 15.8984H21.8598V14.1797C21.8598 13.9424 22.0522 13.75 22.2895 13.75H24.0082C24.2455 13.75 24.3992 13.9424 24.3992 14.1797V15.8984H26.118C26.4316 15.8984 26.625 16.0918 26.625 16.3281V18.0469ZM21.8125 8.25C21.3484 8.25 20.8938 8.35063 20.4603 8.54953C20.1277 8.70212 19.9391 9.08707 20.0674 9.42953C20.2108 9.81123 20.6479 9.98297 21.0067 9.81148C21.2668 9.68945 21.5375 9.625 21.8125 9.625H24.6089C25.3243 9.625 25.9513 10.0306 26.3083 10.6391C26.4359 10.8582 26.6594 11 26.9129 11C27.4466 11 27.7693 10.4208 27.5016 9.9593C26.9043 8.89883 25.8344 8.25 24.6098 8.25H21.8125ZM22.5 6.875C24.3984 6.875 25.9375 5.33586 25.9375 3.4375C25.9375 1.53914 24.3992 0 22.5 0C20.6016 0 19.0625 1.53914 19.0625 3.4375C19.0625 5.33586 20.6008 6.875 22.5 6.875ZM22.5 1.375C23.6374 1.375 24.5625 2.30012 24.5625 3.4375C24.5625 4.57488 23.6387 5.5 22.5 5.5C21.3613 5.5 20.4375 4.57488 20.4375 3.4375C20.4375 2.30012 21.3613 1.375 22.5 1.375ZM17.6875 20.625H7.38359C7.5134 18.33 9.58316 16.5 12.0715 16.5H16.3125C16.6922 16.5 17 16.1922 17 15.8125C17 15.4327 16.6922 15.125 16.3125 15.125H12.1059C8.73281 15.125 6 17.6902 6 20.8527C6 21.4887 6.5457 22 7.22031 22H17.6875C18.0672 22 18.375 21.6922 18.375 21.3125C18.375 20.9344 18.0656 20.625 17.6875 20.625ZM7.49531 9.80977C7.8364 9.97292 8.24855 9.82588 8.41098 9.48346C8.57413 9.14104 8.42776 8.73065 8.08467 8.5678C7.63711 8.35742 7.16875 8.25 6.6875 8.25H3.89109C2.02152 8.25 0.5 9.84414 0.5 11.8035V12.375C0.5 12.755 0.807484 13.0625 1.1875 13.0625C1.56752 13.0625 1.875 12.7531 1.875 12.375V11.8035C1.875 10.6004 2.77949 9.625 3.89109 9.625H6.6875C6.9625 9.625 7.2332 9.68945 7.49531 9.80977ZM6 6.875C7.89836 6.875 9.4375 5.33586 9.4375 3.4375C9.4375 1.53914 7.89922 0 6 0C4.10164 0 2.5625 1.53914 2.5625 3.4375C2.5625 5.33586 4.10164 6.875 6 6.875ZM6 1.375C7.13738 1.375 8.0625 2.30012 8.0625 3.4375C8.0625 4.57488 7.13867 5.5 6 5.5C4.86133 5.5 3.9375 4.57617 3.9375 3.4375C3.9375 2.29883 4.86133 1.375 6 1.375ZM14.2457 13.75C16.7125 13.75 18.6758 11.7494 18.6758 9.28125C18.6758 6.81313 16.676 4.8125 14.2457 4.8125C11.7789 4.8125 9.81563 6.81313 9.81563 9.28125C9.77695 11.7477 11.7793 13.75 14.2457 13.75ZM14.2457 6.1875C15.9507 6.1875 17.3377 7.57539 17.3377 9.28125C17.3377 10.9871 15.9473 12.375 14.2457 12.375C12.5441 12.375 11.152 10.9871 11.152 9.28125C11.152 7.57539 12.5398 6.1875 14.2457 6.1875Z" fill="#374355"/>
</svg>
