<svg width="22" height="18" viewBox="0 0 22 18" fill="none" xmlns="http://www.w3.org/2000/svg">
<path d="M16.5 6.8002C16.2948 6.8002 16.0885 6.82436 15.8868 6.87218C15.739 6.9071 15.6477 7.05533 15.6826 7.20304C15.7172 7.35095 15.8656 7.44621 16.0157 7.40654C16.2113 7.35363 16.4312 7.3502 16.6341 7.3502H19.1307C20.4084 7.3502 21.45 8.46051 21.45 9.8252C21.45 9.97645 21.34 10.1002 21.2059 10.1002H20.625C20.4731 10.1002 20.35 10.2233 20.35 10.3752C20.35 10.5271 20.4731 10.6502 20.625 10.6502H21.2063C21.6425 10.6502 22 10.2789 22 9.8252C22 8.15801 20.7109 6.8002 19.1297 6.8002H16.5ZM10.9966 11.2002C12.97 11.2002 14.5406 9.5997 14.5406 7.6252C14.5406 5.6507 12.9408 4.0502 10.9966 4.0502C9.02309 4.0502 7.4525 5.6507 7.4525 7.6252C7.42156 9.59832 9.02344 11.2002 10.9966 11.2002ZM10.9966 4.6002C12.6637 4.6002 14.0202 5.95732 14.0202 7.6252C14.0202 9.29307 12.6637 10.6502 10.9966 10.6502C9.32938 10.6502 7.97156 9.29238 7.97156 7.6252C7.97156 5.95801 9.32938 4.6002 10.9966 4.6002ZM17.6 5.7002C19.1187 5.7002 20.35 4.46888 20.35 2.9502C20.35 1.43151 19.1194 0.200195 17.6 0.200195C16.0813 0.200195 14.85 1.43151 14.85 2.9502C14.85 4.46888 16.0806 5.7002 17.6 5.7002ZM17.6 0.750195C18.8131 0.750195 19.8 1.7371 19.8 2.9502C19.8 4.16329 18.8131 5.1502 17.6 5.1502C16.3869 5.1502 15.4 4.16329 15.4 2.9502C15.4 1.7371 16.3866 0.750195 17.6 0.750195ZM21.45 13.1252H20.075V11.7502C20.075 11.4465 19.8288 11.2002 19.525 11.2002H17.875C17.5713 11.2002 17.325 11.4465 17.325 11.7502V13.1252H15.95C15.6463 13.1252 15.4 13.3715 15.4 13.6752V15.3252C15.4 15.6289 15.6463 15.8752 15.95 15.8752H17.325V17.2502C17.325 17.5539 17.5713 17.8002 17.875 17.8002H19.525C19.8288 17.8002 20.075 17.5539 20.075 17.2502V15.8752H21.45C21.7538 15.8752 22 15.6289 22 15.3252V13.6752C22 13.3727 21.7525 13.1252 21.45 13.1252ZM21.45 15.3252H19.525V17.2502H17.875V15.3252H15.95V13.6752H17.875V11.7502H19.525V13.6752H21.45V15.3252ZM15.9775 17.2502H5.37969C5.1425 17.2502 4.95 17.0852 4.95 16.8824C4.95 14.6583 6.89563 12.8502 9.28469 12.8502H12.7153C13.2175 12.8502 13.6995 12.9307 14.1484 13.0777C14.2768 13.1197 14.4195 13.0666 14.479 12.9453C14.4782 12.9469 14.4798 12.9436 14.479 12.9453C14.5542 12.7935 14.4846 12.6102 14.3238 12.5572C13.8188 12.393 13.2791 12.3002 12.7153 12.3002H9.28469C6.58625 12.3002 4.4 14.3524 4.4 16.8824C4.4 17.3911 4.83656 17.8002 5.37625 17.8002H15.9775C16.1435 17.8002 16.2718 17.6501 16.245 17.4862C16.2447 17.4844 16.2454 17.4881 16.245 17.4862C16.2216 17.3224 16.1116 17.2502 15.9775 17.2502ZM4.4 5.7002C5.91869 5.7002 7.15 4.46888 7.15 2.9502C7.15 1.43151 5.91937 0.200195 4.4 0.200195C2.88131 0.200195 1.65 1.43151 1.65 2.9502C1.65 4.46888 2.88131 5.7002 4.4 5.7002ZM4.4 0.750195C5.61309 0.750195 6.6 1.7371 6.6 2.9502C6.6 4.16329 5.61309 5.1502 4.4 5.1502C3.18691 5.1502 2.2 4.16329 2.2 2.9502C2.2 1.7371 3.18691 0.750195 4.4 0.750195ZM6.875 10.3752C6.875 10.2239 6.75125 10.1002 6.6 10.1002H0.793719C0.659656 10.1002 0.55 9.97645 0.55 9.8252C0.55 8.46051 1.59088 7.3502 2.87031 7.3502H5.5C5.66273 7.3502 5.82656 7.36953 5.98675 7.40712C6.13594 7.44645 6.28375 7.3502 6.31813 7.20238C6.35305 7.05467 6.26172 6.90645 6.11401 6.87152C5.88156 6.82426 5.67531 6.8002 5.5 6.8002H2.87031C1.28734 6.8002 0 8.15801 0 9.8252C0 10.2789 0.356125 10.6502 0.793719 10.6502H6.6C6.75125 10.6502 6.875 10.5264 6.875 10.3752Z" fill="#374355"/>
</svg>
