<svg width="22" height="20" viewBox="0 0 22 20" fill="none" xmlns="http://www.w3.org/2000/svg">
<path id="Vector" d="M16.5 10C16.5 9.64817 16.3657 9.29617 16.0972 9.02805L10.5972 3.52805C10.2051 3.13445 9.61211 3.01629 9.10078 3.22984C8.58516 3.44297 8.25 3.9457 8.25 4.5V7.25H2.0625C0.923398 7.25 0 8.17383 0 9.3125V10.6875C0 11.8262 0.923398 12.75 2.0625 12.75H8.25V15.5C8.25 16.056 8.58503 16.5579 9.09863 16.7702C9.61297 16.9837 10.2038 16.8655 10.5974 16.472L16.0974 10.972C16.3668 10.7047 16.5 10.3523 16.5 10ZM9.625 15.5V11.375H2.0625C1.68352 11.375 1.375 11.0656 1.375 10.6875V9.3125C1.375 8.93437 1.68352 8.625 2.0625 8.625H9.625L9.58633 4.5L15.0863 10L9.625 15.5ZM18.5625 0.375H14.4375C14.0594 0.375 13.75 0.682656 13.75 1.0625C13.75 1.44234 14.0594 1.75 14.4375 1.75H18.5625C19.7012 1.75 20.625 2.67512 20.625 3.8125V16.1875C20.625 17.3249 19.6999 18.25 18.5625 18.25H14.4375C14.0575 18.25 13.75 18.5575 13.75 18.9375C13.75 19.3175 14.0575 19.625 14.4375 19.625H18.5625C20.4587 19.625 22 18.0833 22 16.1875V3.8125C22 1.91672 20.4574 0.375 18.5625 0.375Z" fill="#374355"/>
</svg>
