<svg width="22" height="22" viewBox="0 0 22 22" fill="none" xmlns="http://www.w3.org/2000/svg">
<path d="M6.1875 22H15.8125C16.9512 22 17.875 21.0762 17.875 19.9375V2.0625C17.875 0.923828 16.9512 0 15.8125 0H6.1875C5.04883 0 4.125 0.923828 4.125 2.0625V19.9375C4.125 21.0762 5.04883 22 6.1875 22ZM4.8125 2.0625C4.8125 1.30453 5.42953 0.6875 6.1875 0.6875H15.8125C16.5705 0.6875 17.1875 1.30453 17.1875 2.0625V19.9375C17.1875 20.6955 16.5705 21.3125 15.8125 21.3125H6.1875C5.42953 21.3125 4.8125 20.6955 4.8125 19.9375V2.0625ZM8.9375 19.5938H13.0625C13.2518 19.5938 13.4062 19.44 13.4062 19.25C13.4062 19.06 13.2518 18.9062 13.0625 18.9062H8.9375C8.74818 18.9062 8.59375 19.06 8.59375 19.25C8.59375 19.44 8.74844 19.5938 8.9375 19.5938Z" fill="#374355"/>
</svg>
