<svg width="22" height="20" viewBox="0 0 22 20" fill="none" xmlns="http://www.w3.org/2000/svg">
<path d="M21.6483 12.5824C21.3565 12.1859 20.9287 11.9285 20.4433 11.8555C19.9559 11.7791 19.4766 11.9033 19.0843 12.1945L14.5633 15.5004H10.0563C9.8904 15.5004 9.75076 15.3608 9.75076 15.1961C9.75076 15.0301 9.8904 14.8905 10.0563 14.8905H13.0443C13.8219 14.8905 14.4991 14.3439 14.6202 13.6171C14.693 13.1695 14.5683 12.7161 14.277 12.3746C13.9858 12.0321 13.5605 11.8353 13.111 11.8353H7.00076C5.90381 11.8353 4.83017 12.2161 3.97767 12.9059L2.28604 14.2798H0.31291C0.144014 14.2798 0.00735474 14.417 0.00735474 14.5853C0.00735474 14.7536 0.144014 14.8909 0.31291 14.8909H2.53659L4.39628 13.3811C5.14031 12.7784 6.07722 12.4464 7.03475 12.4464H13.1115C13.3818 12.4464 13.6374 12.5646 13.812 12.7699C13.9892 12.9788 14.062 13.2451 14.0178 13.5181C13.9456 13.9528 13.5274 14.2797 13.0446 14.2797H10.0563C9.551 14.2797 9.17402 14.6915 9.17402 15.1964C9.17402 15.7013 9.5827 16.1115 10.0563 16.1115H14.7619L19.414 12.6847C19.6759 12.4902 19.9987 12.4138 20.3188 12.4579C20.6422 12.5069 20.9276 12.6787 21.1228 12.9438C21.3161 13.2064 21.3961 13.5285 21.3472 13.8509C21.2982 14.1744 21.1269 14.4586 20.8636 14.6518L15.7036 18.4522C15.1133 18.9112 14.3417 19.1671 13.532 19.1671H0.31291C0.144014 19.1671 0.00735474 19.3046 0.00735474 19.4727C0.00735474 19.6407 0.144014 19.7782 0.31291 19.7782H13.532C14.438 19.7782 15.3398 19.4822 16.07 18.944L21.2301 15.1437C21.6239 14.8536 21.8817 14.4276 21.955 13.9429C22.0608 13.4609 21.9386 12.9758 21.6483 12.5824ZM10.591 5.26432L10.8906 5.35087C12.242 5.73816 13.0616 6.02691 12.8851 7.04938C12.7121 8.05007 11.4647 8.21966 10.448 8.06039C10.0449 7.99523 9.54451 7.81571 9.09763 7.6553L8.86847 7.57127C8.70805 7.48342 8.53617 7.598 8.47888 7.75842C8.42159 7.91884 8.50562 8.09071 8.66603 8.148L8.89283 8.22917C9.36186 8.39867 9.89544 8.59083 10.3885 8.66497C10.4955 8.68273 10.5949 8.68273 10.7018 8.69036V9.69488C10.7018 9.86293 10.8393 10.0004 11.0074 10.0004C11.1754 10.0004 11.3129 9.86293 11.3129 9.69488V8.7171C12.5076 8.66355 13.3586 8.09339 13.5198 7.15609C13.8003 5.54123 12.2987 5.11155 11.0921 4.76665L10.7973 4.67995C9.54871 4.31294 8.94371 3.96304 9.09763 3.06929C9.27069 2.06783 10.5169 1.90016 11.5337 2.05828C11.813 2.10186 12.1494 2.19315 12.5901 2.34474C12.7465 2.39844 12.9232 2.3155 12.9782 2.15556C13.0331 1.99622 12.9483 1.82197 12.7884 1.76713C12.3133 1.603 11.9447 1.50393 11.6281 1.45439C11.5192 1.43762 11.416 1.43418 11.3129 1.42464V0.528212C11.3129 0.359316 11.1759 0.222656 11.0076 0.222656C10.8393 0.222656 10.7018 0.359316 10.7018 0.528212V1.40821C9.50669 1.46222 8.65611 2.02773 8.49492 2.96578C8.18478 4.56154 9.72402 5.00078 10.591 5.26432Z" fill="#374355"/>
</svg>
