<svg width="25" height="22" viewBox="0 0 25 22" fill="none" xmlns="http://www.w3.org/2000/svg">
<path id="Vector" d="M24.2938 14.3344C23.8855 13.964 23.3484 13.7599 22.7847 13.7599C22.2476 13.7599 21.7156 13.9424 21.2971 14.2807L18.6567 16.3952C18.5738 16.4615 18.4709 16.4976 18.3647 16.4976H16.5763C16.7751 16.0843 16.8556 15.6065 16.7804 15.1128C16.6109 13.909 15.5066 13.0625 14.2992 13.0625H8.09453C7.20293 13.0625 6.37148 13.3524 5.62383 13.8892L3.96953 15.1237H0.996094C0.617926 15.1237 0.308594 15.4329 0.308594 15.8108C0.308594 16.1887 0.617883 16.4613 0.957422 16.4613L4.39535 16.4618L6.40887 14.9455C6.88668 14.5912 7.46676 14.398 8.05758 14.398H14.3611C14.9304 14.398 15.3923 14.8595 15.3923 15.4289C15.3923 15.9982 14.9304 16.4592 14.3611 16.4592H10.5824C10.2064 16.4592 9.89492 16.7706 9.89492 17.1463C9.89492 17.5221 10.2064 17.8334 10.5824 17.8334H18.3254C18.739 17.8334 19.1418 17.6938 19.4692 17.4361L22.117 15.3212C22.2996 15.1762 22.5252 15.0957 22.7452 15.0957C22.96 15.0957 23.1695 15.1709 23.336 15.3212C23.7708 15.713 23.7388 16.373 23.2984 16.7224L18.9714 20.1848C18.6455 20.4454 18.2405 20.5874 17.8233 20.5874H0.996094C0.617926 20.5874 0.308594 20.8963 0.308594 21.274C0.308594 21.6518 0.617883 22 0.957422 22H17.8227C18.5531 22 19.257 21.7477 19.8259 21.2966L24.1614 17.829C24.6878 17.4103 24.9993 16.7823 24.9821 16.1111C25.0801 15.4387 24.7621 14.7898 24.2938 14.3344ZM12.1293 8.19844C11.8328 8.15117 11.5922 8.08242 10.4965 7.71289C10.1398 7.58828 9.74883 7.78594 9.62422 8.14688C9.50391 8.50352 9.69727 8.89453 10.0582 9.01484C11.3189 9.44328 11.63 9.50684 11.9957 9.55926V10.3125C11.9957 10.6925 12.304 11 12.684 11C13.0641 11 13.3707 10.6925 13.3707 10.3125V9.59062C14.6477 9.43981 15.5445 8.76176 15.7352 7.71203C16.0996 5.71484 14.1488 5.18633 12.8598 4.83398L12.5504 4.74805C11.0852 4.30117 10.8875 4.05539 10.9863 3.53332C11.1152 2.81832 12.1907 2.6516 13.1979 2.8007C13.4799 2.84233 13.8223 2.93163 14.2747 3.08069C14.6346 3.19954 15.0254 3.00283 15.1423 2.64241C15.2618 2.28186 15.0657 1.89303 14.7044 1.77444C14.1755 1.60054 13.7338 1.49213 13.3724 1.43842V0.6875C13.3724 0.307484 13.0657 0 12.6857 0C12.3058 0 11.9574 0.307484 11.9574 0.6875V1.40937C10.7156 1.56062 9.82188 2.23824 9.59414 3.28797C9.27188 5.25938 11.2355 5.80938 12.1766 6.07148L12.4988 6.16172C14.1411 6.60902 14.493 6.85266 14.3813 7.46711C14.252 8.18125 13.182 8.35313 12.1293 8.19844Z" fill="#374355"/>
</svg>
