<svg width="20" height="20" viewBox="0 0 20 20" fill="none" xmlns="http://www.w3.org/2000/svg">
<path d="M17.1429 0H2.85714C1.27902 0 0 1.27902 0 2.85714V17.1429C0 18.721 1.27902 20 2.85714 20H17.1429C18.721 20 20 18.721 20 17.1429V2.85714C20 1.27902 18.7188 0 17.1429 0ZM16.4286 19.2857H3.57143V18.5714C3.57143 15.8143 5.81429 13.5714 8.57143 13.5714H11.4286C14.1857 13.5714 16.4286 15.8143 16.4286 18.5714V19.2857ZM19.2857 17.1429C19.2857 18.3246 18.3246 19.2857 17.1429 19.2857V18.5714C17.1429 15.4156 14.5844 12.8571 11.4286 12.8571H8.57143C5.41562 12.8571 2.85714 15.4156 2.85714 18.5714V19.2857C1.67545 19.2857 0.714286 18.3246 0.714286 17.1429V2.85714C0.714286 1.67545 1.67545 0.714286 2.85714 0.714286H17.1429C18.3246 0.714286 19.2857 1.67545 19.2857 2.85714V17.1429ZM10 4.28571C8.02679 4.28571 6.42857 5.88393 6.42857 7.85714C6.42857 9.83036 8.02679 11.4286 10 11.4286C11.9723 11.4286 13.5714 9.82946 13.5714 7.85714C13.5714 5.88393 11.9732 4.28571 10 4.28571ZM10 10.7143C8.42455 10.7143 7.14286 9.43259 7.14286 7.85714C7.14286 6.2817 8.42455 5 10 5C11.5754 5 12.8571 6.2817 12.8571 7.85714C12.8571 9.43304 11.5759 10.7143 10 10.7143Z" fill="#374355"/>
</svg>
