<svg width="22" height="22" viewBox="0 0 22 22" fill="none" xmlns="http://www.w3.org/2000/svg">
<path d="M21.9999 9.99092C21.9999 9.79331 21.8384 9.64722 21.6564 9.64722C21.5683 9.64722 21.4802 9.68083 21.4132 9.7478L20.9015 10.2596L11.7405 1.09863L12.2523 0.586867C12.3193 0.519836 12.3529 0.431793 12.3529 0.343707C12.3529 0.146094 12.1914 0 12.0094 0C11.9213 0 11.8332 0.0336102 11.7662 0.10059L5.93389 5.93467C5.86514 6.00342 5.83077 6.08936 5.83077 6.17959C5.83077 6.36195 5.97733 6.52317 6.17434 6.52317C6.26243 6.52317 6.35047 6.48956 6.41746 6.42254L6.87895 5.96148L11.2145 10.297L8.00498 13.5058L8.49096 13.9917L11.7012 10.7815L16.0367 15.1171L15.5752 15.5786C15.5082 15.6456 15.4746 15.7337 15.4746 15.8217C15.4746 16.0194 15.6364 16.1653 15.8182 16.1653C15.9063 16.1653 15.9943 16.1317 16.0613 16.0647L21.8964 10.2295C21.9655 10.1671 21.9999 10.0769 21.9999 9.99092ZM7.36475 5.47491L11.2539 1.5858L12.1532 2.48514L8.26709 6.37295L7.36475 5.47491ZM8.75264 6.8585L12.6417 2.9694L19.0312 9.35885L15.1421 13.248L8.75264 6.8585ZM16.5257 14.6358L15.6264 13.7365L19.5155 9.84741L20.4148 10.7467L16.5257 14.6358ZM7.27881 12.7796C7.00811 12.5089 6.65577 12.3757 6.30342 12.3757C5.95168 12.3757 5.60002 12.51 5.33147 12.7784L0.402954 17.7069C0.134399 17.9754 0.00012207 18.3269 0.00012207 18.6789C0.00012207 19.0308 0.134399 19.3823 0.402954 19.6508L2.34729 21.5951C2.61542 21.8675 2.96733 22.0007 3.31924 22.0007C3.67116 22.0007 4.02264 21.8664 4.2912 21.5979L9.21971 16.6693C9.48827 16.4008 9.62259 16.0489 9.62259 15.6974C9.62259 15.3457 9.48831 14.994 9.2198 14.7254L7.27881 12.7796ZM8.89874 15.6972C8.89874 15.8732 8.83175 16.0491 8.69781 16.1831L3.7693 21.1117C3.67502 21.2401 3.50272 21.3132 3.31924 21.3132C3.13572 21.3132 2.96316 21.2417 2.83327 21.1117L0.888931 19.1674C0.759036 19.0376 0.687493 18.8651 0.687493 18.6819C0.687493 18.4986 0.758993 18.3259 0.888974 18.1959L5.81749 13.2674C5.95108 13.1362 6.12295 13.0632 6.30342 13.0632C6.48694 13.0632 6.6595 13.1347 6.7894 13.2645L8.73374 15.2088C8.86866 15.3448 8.89874 15.521 8.89874 15.6972Z" fill="#374355"/>
</svg>
