<svg width="22" height="22" viewBox="0 0 22 22" fill="none" xmlns="http://www.w3.org/2000/svg">
<path id="Vector" d="M22 8.95039C22 8.55925 21.6807 8.26289 21.3129 8.26289C21.1371 8.26289 20.9613 8.33001 20.827 8.46433L20.2812 9.01003L12.9937 1.71875L13.5386 1.17348C13.6727 1.03941 13.7414 0.863242 13.7414 0.6875C13.7414 0.296355 13.4221 0 13.0543 0C12.8786 0 12.7027 0.0671172 12.5684 0.201438L6.38516 6.38894C6.25195 6.52266 6.1832 6.69883 6.1832 6.875C6.1832 7.26614 6.50246 7.5625 6.87027 7.5625C7.04606 7.5625 7.22189 7.49538 7.35625 7.36106L7.90109 6.81579L11.0546 9.97141L7.81215 13.3277L7.40781 12.9207C7.04447 12.5582 6.56734 12.3763 6.09125 12.3763C5.61301 12.3763 5.13477 12.5582 4.77082 12.9207L0.546562 17.148C0.181844 17.5141 0 17.991 0 18.468C0 18.9449 0.181844 19.4232 0.545703 19.7871L2.21117 21.4534C2.56309 21.8066 3.03145 22 3.52945 22C4.02789 22 4.49625 21.8066 4.84816 21.4534L9.07242 17.2279C9.43611 16.864 9.61812 16.3861 9.61812 15.9087C9.61812 15.4314 9.43594 14.9531 9.0707 14.5879L8.78234 14.2992L12.0252 10.9425L15.186 14.105L14.642 14.6494C14.5078 14.7837 14.4407 14.9596 14.4407 15.1354C14.4407 15.5265 14.7599 15.8229 15.1277 15.8229C15.3036 15.8229 15.4794 15.7557 15.6137 15.6214L21.7969 9.43392C21.9312 9.30273 22 9.12656 22 8.95039ZM8.2457 15.907C8.2457 16.0326 8.19788 16.1581 8.10227 16.2541L3.87759 20.4797C3.78568 20.5723 3.65866 20.6186 3.53152 20.6186C3.40437 20.6186 3.27701 20.5723 3.18441 20.4797L1.51895 18.8134C1.42334 18.7174 1.37552 18.5918 1.37552 18.4663C1.37552 18.3407 1.42334 18.2151 1.51895 18.1191L5.7432 13.8919C5.83851 13.7965 5.96398 13.7496 6.09013 13.7496C6.2156 13.7496 6.34176 13.7966 6.43771 13.8933L8.10232 15.5596C8.19414 15.6578 8.2457 15.7824 8.2457 15.907ZM8.87305 5.84375L12.0239 2.6907L19.3114 9.9825L16.1605 13.1355L8.87305 5.84375Z" fill="#374355"/>
</svg>
