<svg width="21" height="22" viewBox="0 0 21 22" fill="none" xmlns="http://www.w3.org/2000/svg">
<path id="Vector" d="M6.85922 10.9613C6.85922 8.91172 8.55219 7.18008 10.6405 7.18008C12.7288 7.18008 14.4217 8.91172 14.4217 10.9613C14.4217 13.0883 12.7288 14.7812 10.6405 14.7812C8.55219 14.7812 6.85922 13.0883 6.85922 10.9613ZM10.6405 8.55508C9.31274 8.55508 8.23422 9.67227 8.23422 10.9613C8.23422 12.3277 9.31274 13.3676 10.6405 13.3676C11.9682 13.3676 13.0467 12.3277 13.0467 10.9613C13.0467 9.67227 11.9682 8.55508 10.6405 8.55508ZM2.46223 9.90859L0.729299 8.32734C0.251486 7.89336 0.141486 7.18437 0.464611 6.62578L1.76399 4.37422C2.08711 3.81477 2.75613 3.55566 3.37188 3.75203L5.60453 4.46445C6.18031 4.02016 6.81625 3.65062 7.49516 3.37004L7.99789 1.08109C8.13539 0.449883 8.69399 0 9.34281 0H11.9381C12.587 0 13.1455 0.449883 13.283 1.08109L13.7858 3.37004C14.426 3.65062 15.1006 4.02016 15.6764 4.46445L17.9108 3.75203C18.5252 3.55566 19.1955 3.81477 19.5178 4.37422L20.8155 6.62578C21.1377 7.18437 21.0303 7.89336 20.5534 8.32734L18.8174 9.90859C18.8647 10.2652 18.8905 10.6305 18.8905 10.9613C18.8905 11.3695 18.8647 11.7348 18.8174 12.0914L20.5534 13.6727C21.0303 14.1066 21.1377 14.8156 20.8155 15.3742L19.5178 17.6258C19.1955 18.1844 18.5252 18.4422 17.9108 18.2488L15.6764 17.5355C15.1006 17.9781 14.426 18.3477 13.7858 18.6313L13.283 20.9172C13.1455 21.5488 12.587 22 11.9381 22H9.34281C8.69399 22 8.13539 21.5488 7.99789 20.9172L7.49516 18.6313C6.81625 18.3477 6.18031 17.9781 5.60453 17.5355L3.37188 18.2488C2.75613 18.4422 2.08711 18.1844 1.76399 17.6258L0.464611 15.3742C0.141486 14.8156 0.251486 14.1066 0.729299 13.6727L2.46223 12.0914C2.41496 11.7348 2.39047 11.3695 2.39047 10.9613C2.39047 10.6305 2.41496 10.2652 2.46223 9.90859ZM6.44672 5.55156L5.87524 5.99414L2.95465 5.06172L1.65528 7.31328L3.9193 9.37578L3.8252 10.0891C3.78567 10.3855 3.76547 10.6906 3.76547 10.9613C3.76547 11.3094 3.78567 11.6145 3.8252 11.9109L3.9193 12.6242L1.65528 14.6867L2.95465 16.9383L5.87524 16.0059L6.44672 16.4484C6.92367 16.818 7.45649 17.1273 8.01938 17.3207L8.68539 17.6344L9.34281 20.625H11.9381L12.5955 17.6344L13.2229 17.3207C13.8245 17.1273 14.3573 16.818 14.8342 16.4484L15.4057 16.0059L18.3276 16.9383L19.6252 14.6867L17.3608 12.6242L17.4553 11.9109C17.494 11.6145 17.5155 11.3094 17.5155 11C17.5155 10.6906 17.494 10.3855 17.4553 10.0891L17.3608 9.37578L19.6252 7.31328L18.3276 5.06172L15.4057 5.99414L14.8342 5.55156C14.3573 5.18203 13.8245 4.87266 13.2229 4.64062L12.5955 4.36562L11.9381 1.375H9.34281L8.68539 4.36562L8.01938 4.64062C7.45649 4.87266 6.92367 5.18203 6.44672 5.55156Z" fill="#374355"/>
</svg>
