<svg width="22" height="22" viewBox="0 0 22 22" fill="none" xmlns="http://www.w3.org/2000/svg">
<path d="M7.5628 10.9613C7.5628 9.10078 9.10108 7.52383 11.0003 7.52383C12.8995 7.52383 14.4378 9.10078 14.4378 10.9613C14.4378 12.8992 12.8995 14.4375 11.0003 14.4375C9.10108 14.4375 7.5628 12.8992 7.5628 10.9613ZM11.0003 8.21133C9.48351 8.21133 8.2503 9.4832 8.2503 10.9613C8.2503 12.5168 9.48351 13.7113 11.0003 13.7113C12.5171 13.7113 13.7503 12.5168 13.7503 10.9613C13.7503 9.4832 12.5171 8.21133 11.0003 8.21133ZM18.2706 3.75203C18.8851 3.55566 19.5554 3.81477 19.8776 4.37422L21.1753 6.62578C21.4976 7.18437 21.3901 7.89336 20.9132 8.32734L19.1773 9.90859C19.2245 10.2652 19.2503 10.6305 19.2503 10.9613C19.2503 11.3695 19.2245 11.7348 19.1773 12.0914L20.9132 13.6727C21.3901 14.1066 21.4976 14.8156 21.1753 15.3742L19.8776 17.6258C19.5554 18.1844 18.8851 18.4422 18.2706 18.2488L16.0362 17.5355C15.4605 17.9781 14.7858 18.3477 14.1456 18.6313L13.6429 20.9172C13.5054 21.5488 12.9468 22 12.298 22H9.70265C9.05382 22 8.49522 21.5488 8.35772 20.9172L7.85499 18.6313C7.17608 18.3477 6.54015 17.9781 5.96437 17.5355L3.73171 18.2488C3.11597 18.4422 2.44694 18.1844 2.12382 17.6258L0.824444 15.3742C0.501319 14.8156 0.611319 14.1066 1.08913 13.6727L2.82206 12.0914C2.7748 11.7348 2.7503 11.3695 2.7503 10.9613C2.7503 10.6305 2.7748 10.2652 2.82206 9.90859L1.08913 8.32734C0.611319 7.89336 0.501319 7.18437 0.824444 6.62578L2.12382 4.37422C2.44694 3.81477 3.11597 3.55566 3.73171 3.75203L5.96437 4.46445C6.54015 4.02016 7.17608 3.65062 7.85499 3.37004L8.35772 1.08109C8.49522 0.449883 9.05382 0 9.70265 0H12.298C12.9468 0 13.5054 0.449883 13.6429 1.08109L14.1456 3.37004C14.7858 3.65062 15.4605 4.02016 16.0362 4.46445L18.2706 3.75203ZM6.38546 5.00586L6.06319 5.2293L3.52331 4.40859C3.21522 4.30977 2.88093 4.43867 2.71937 4.71797L1.41956 6.96953C1.258 7.24883 1.313 7.5668 1.5519 7.82031L3.55038 9.64219L3.50355 9.99883C3.46015 10.3254 3.4378 10.6605 3.4378 11C3.4378 11.3395 3.46015 11.6746 3.50355 12.0012L3.55038 12.3578L1.5519 14.141C1.31343 14.3945 1.258 14.7512 1.41956 15.0305L2.71937 17.282C2.88093 17.5613 3.21522 17.6902 3.52331 17.5914L6.06319 16.7707L6.38546 16.9941C6.91397 17.398 7.49405 17.7375 8.1171 17.9953L8.45226 18.0941L9.02804 20.7711C9.09679 21.0891 9.37608 21.3125 9.70265 21.3125H12.298C12.6245 21.3125 12.9038 21.0891 12.9726 20.7711L13.5483 18.0941L13.8835 17.9953C14.5066 17.7375 15.0866 17.398 15.6151 16.9941L15.8987 16.7707L18.4769 17.5914C18.7862 17.6902 19.0827 17.5613 19.2804 17.282L20.5437 15.0305C20.7413 14.7512 20.6855 14.3945 20.4491 14.141L18.4511 12.3578L18.4983 12.0012C18.5413 11.6746 18.5628 11.3395 18.5628 11C18.5628 10.6605 18.5413 10.3254 18.4983 9.99883L18.4511 9.64219L20.4491 7.82031C20.6855 7.5668 20.7413 7.24883 20.5437 6.96953L19.2804 4.71797C19.0827 4.43867 18.7862 4.30977 18.4769 4.40859L15.8987 5.2293L15.6151 5.00586C15.0866 4.60195 14.5066 4.26293 13.8835 4.00555L13.5483 3.86848L12.9726 1.22805C12.9038 0.912227 12.6245 0.648828 12.298 0.648828H9.70265C9.37608 0.648828 9.09679 0.912227 9.02804 1.22805L8.45226 3.86848L8.1171 4.00555C7.49405 4.26293 6.91397 4.60195 6.38546 5.00586Z" fill="#374355"/>
</svg>
