<svg width="24" height="22" viewBox="0 0 24 22" fill="none" xmlns="http://www.w3.org/2000/svg">
<path id="Vector" d="M3.75 0.5C1.67812 0.5 0 2.17812 0 4.25V17.75C0 19.8219 1.67812 21.5 3.75 21.5H20.25C22.3219 21.5 24 19.8219 24 17.75V7.25C24 5.17812 22.3219 3.5 20.25 3.5H5.25C4.8375 3.5 4.5 3.8375 4.5 4.25C4.5 4.6625 4.8375 5 5.25 5H20.25C21.4922 5 22.5 6.00781 22.5 7.25V17.75C22.5 18.9922 21.4922 20 20.25 20H3.75C2.50781 20 1.5 18.9922 1.5 17.75V4.25C1.5 3.00781 2.50781 2 3.75 2H21.75C22.1625 2 22.5 1.6625 22.5 1.25C22.5 0.8375 22.1625 0.5 21.75 0.5H3.75ZM18 13.625C18.2984 13.625 18.5845 13.5065 18.7955 13.2955C19.0065 13.0845 19.125 12.7984 19.125 12.5C19.125 12.2016 19.0065 11.9155 18.7955 11.7045C18.5845 11.4935 18.2984 11.375 18 11.375C17.7016 11.375 17.4155 11.4935 17.2045 11.7045C16.9935 11.9155 16.875 12.2016 16.875 12.5C16.875 12.7984 16.9935 13.0845 17.2045 13.2955C17.4155 13.5065 17.7016 13.625 18 13.625Z" fill="#374355"/>
</svg>
