<svg width="110" height="110" viewBox="0 0 110 110" fill="none" xmlns="http://www.w3.org/2000/svg">
<g filter="url(#filter0_d_2375_31071)">
<g clip-path="url(#clip0_2375_31071)">
<rect x="10" y="6" width="90" height="90" rx="45" fill="#00BFB3"/>
<path opacity="0.15" d="M62.2187 95.9997C61.9228 95.8412 61.8154 95.8148 61.4825 95.665C56.2846 94.6504 51.9903 92.0168 48.5661 88.0232C45.6176 84.5828 43.9214 80.5611 43.3947 76.032C42.942 72.1266 43.4035 68.3427 45.0275 64.793C48.073 58.1395 52.8058 53.3004 60.1473 51.4912C61.8312 51.0755 63.5485 50.9733 65.2853 50.998C70.6293 51.0737 87.2281 49.5006 91.4061 46.1694C95.4397 42.951 98.1611 38.8394 99.3641 33.7696C99.505 33.1777 99.6547 32.8641 99.9982 32.0273C99.9982 32.0273 100.028 74.7602 100.028 75.9352C100.028 77.1101 100.028 77.6968 100.028 78.4895C100.028 83.8148 100.028 92.1154 100.028 96.0174C97.7383 96.0174 87.5223 96.0033 84.3518 95.9997C82.5744 95.9978 81.9739 96.0033 79.9659 96.0033H62.2187V95.9997Z" fill="black"/>
<path opacity="0.25" d="M9.96483 68.8203C9.96482 68.468 9.9701 68.0417 9.9701 67.6629C9.96658 54.4862 10.0229 41.2901 10.0247 28.1116C10.0247 22.8814 9.93311 10.8444 9.93311 6.00001C13.632 6.00001 22.1748 6.00884 27.6351 6.00882C29.0442 6.00881 30.4128 6.00881 31.7003 6.00881C47.2464 6.0141 61.2986 6.01233 76.8464 6C77.41 6 77.9243 6.09797 78.4827 6.21315C79.1573 6.35232 79.5976 6.52848 80.0732 6.70464C85.176 8.3394 88.8203 13.4815 88.66 18.828C88.461 25.4956 83.7087 30.4598 77.2937 31.2965C76.8323 31.3564 76.3584 31.3212 75.8899 31.3212C67.4282 31.3212 60.4621 31.33 52.0004 31.3194C47.338 31.3141 42.7989 31.943 38.406 33.5972C25.7433 38.3605 16.961 46.9712 12.3427 59.7411C11.3545 62.4751 10.7116 65.2971 10.3664 68.1844C10.3382 68.4187 10.2748 68.6776 10.0212 68.8009L9.96483 68.8203Z" fill="white"/>
<g clip-path="url(#clip1_2375_31071)">
<path d="M54.8491 27.5996C53.2396 27.5996 51.9393 28.8999 51.9393 30.5094V32.2553C45.3012 33.6011 40.3 39.4753 40.3 46.5135V48.223C40.3 52.4968 38.7268 56.6251 35.8898 59.826L35.2169 60.5807C34.453 61.4355 34.2712 62.663 34.7349 63.7088C35.1987 64.7545 36.2444 65.4274 37.3901 65.4274H72.3081C73.4538 65.4274 74.4904 64.7545 74.9633 63.7088C75.4361 62.663 75.2452 61.4355 74.4813 60.5807L73.8085 59.826C70.9714 56.6251 69.3982 52.5059 69.3982 48.223V46.5135C69.3982 39.4753 64.397 33.6011 57.7589 32.2553V30.5094C57.7589 28.8999 56.4586 27.5996 54.8491 27.5996ZM58.9683 72.4564C60.0595 71.3652 60.6688 69.8831 60.6688 68.3372H54.8491H49.0294C49.0294 69.8831 49.6387 71.3652 50.7299 72.4564C51.8211 73.5476 53.3033 74.1569 54.8491 74.1569C56.3949 74.1569 57.8771 73.5476 58.9683 72.4564Z" fill="white"/>
</g>
</g>
</g>
<defs>
<filter id="filter0_d_2375_31071" x="0" y="0" width="110" height="110" filterUnits="userSpaceOnUse" color-interpolation-filters="sRGB">
<feFlood flood-opacity="0" result="BackgroundImageFix"/>
<feColorMatrix in="SourceAlpha" type="matrix" values="0 0 0 0 0 0 0 0 0 0 0 0 0 0 0 0 0 0 127 0" result="hardAlpha"/>
<feOffset dy="4"/>
<feGaussianBlur stdDeviation="5"/>
<feComposite in2="hardAlpha" operator="out"/>
<feColorMatrix type="matrix" values="0 0 0 0 0 0 0 0 0 0 0 0 0 0 0 0 0 0 0.25 0"/>
<feBlend mode="normal" in2="BackgroundImageFix" result="effect1_dropShadow_2375_31071"/>
<feBlend mode="normal" in="SourceGraphic" in2="effect1_dropShadow_2375_31071" result="shape"/>
</filter>
<clipPath id="clip0_2375_31071">
<rect x="10" y="6" width="90" height="90" rx="45" fill="white"/>
</clipPath>
<clipPath id="clip1_2375_31071">
<rect width="40.7376" height="46.5573" fill="white" transform="translate(34.48 27.5996)"/>
</clipPath>
</defs>
</svg>
