<svg width="40" height="40" viewBox="0 0 40 40" fill="none" xmlns="http://www.w3.org/2000/svg">
<rect width="40" height="40" rx="20" fill="#FF4D6D"/>
<path d="M25.5208 26.4625C25.7792 26.7208 26.2042 26.7208 26.4625 26.4625C26.7208 26.2042 26.7208 25.7792 26.4625 25.5208L20.9417 20L26.4625 14.4792C26.7208 14.2208 26.7208 13.7958 26.4625 13.5375C26.2042 13.2792 25.7792 13.2792 25.5208 13.5375L20 19.0583L14.4792 13.5375C14.2208 13.2792 13.7958 13.2792 13.5375 13.5375C13.2792 13.7958 13.2792 14.2208 13.5375 14.4792L19.0583 20L13.5375 25.5208C13.2792 25.7792 13.2792 26.2042 13.5375 26.4625C13.7958 26.7208 14.2208 26.7208 14.4792 26.4625L20 20.9417L25.5208 26.4625Z" fill="white"/>
</svg>
