<svg width="18" height="18" viewBox="0 0 18 18" fill="none" xmlns="http://www.w3.org/2000/svg">
<rect width="18" height="18" rx="9" fill="#A0AFC7"/>
<path d="M11.4843 11.9081C11.6006 12.0244 11.7918 12.0244 11.9081 11.9081C12.0243 11.7919 12.0243 11.6006 11.9081 11.4844L9.4237 9.00001L11.9081 6.51564C12.0243 6.39939 12.0243 6.20814 11.9081 6.09189C11.7918 5.97564 11.6006 5.97564 11.4843 6.09189L8.99995 8.57626L6.51558 6.09189C6.39933 5.97564 6.20808 5.97564 6.09183 6.09189C5.97558 6.20814 5.97558 6.39939 6.09183 6.51564L8.5762 9.00001L6.09183 11.4844C5.97558 11.6006 5.97558 11.7919 6.09183 11.9081C6.20808 12.0244 6.39933 12.0244 6.51558 11.9081L8.99995 9.42376L11.4843 11.9081Z" fill="white"/>
</svg>
