<svg width="40" height="40" viewBox="0 0 40 40" fill="none" xmlns="http://www.w3.org/2000/svg">
<rect width="40" height="40" fill="#F5F9FF"/>
<path fill-rule="evenodd" clip-rule="evenodd" d="M25.625 16.025C25.625 19.1313 23.107 21.65 20 21.65C16.8906 21.65 14.375 19.1344 14.375 16.025C14.375 12.9156 16.8906 10.4 20 10.4C23.1093 10.4 25.625 12.9188 25.625 16.025ZM26.9735 26.1581C21.1585 22.8789 10.4594 24.3268 9.21188 30.5642C9.00904 31.5785 9.05803 32.9776 9.12436 33.893C9.16327 34.4299 9.61605 34.8309 10.1543 34.8309H24.2292C24.7625 34.8453 25.2918 34.8487 25.8046 34.8309H29.6278C30.1553 34.8309 30.6023 34.4451 30.6484 33.9197C30.7096 33.2229 30.759 32.2313 30.6665 31.3274C30.5848 28.5466 29.0147 26.9743 26.9735 26.1581Z" fill="#A0AFC7"/>
</svg>
