<svg width="40" height="40" viewBox="0 0 40 40" fill="none" xmlns="http://www.w3.org/2000/svg">
<rect width="40" height="40" rx="20" fill="#00BFB3"/>
<g clip-path="url(#clip0_787_16788)">
<g clip-path="url(#clip1_787_16788)">
<path d="M27.8524 27.1469L23.4305 22.725C24.4055 21.5875 24.9711 20.1156 24.9711 18.5C24.9711 14.9094 22.0608 12 18.4711 12C14.8815 12 11.9993 14.9103 11.9993 18.5C11.9993 22.0897 14.9093 25 18.4711 25C20.0861 25 21.5602 24.4075 22.6961 23.4328L27.118 27.8547C27.243 27.95 27.3711 28 27.4993 28C27.6274 28 27.7551 27.9512 27.8527 27.8535C28.0493 27.6594 28.0493 27.3406 27.8524 27.1469ZM18.4993 24C15.4399 24 12.9993 21.5312 12.9993 18.5C12.9993 15.4688 15.4399 13 18.4993 13C21.5586 13 23.9993 15.4406 23.9993 18.5C23.9993 21.5594 21.5305 24 18.4993 24Z" fill="#F5F9FF"/>
</g>
</g>
<defs>
<clipPath id="clip0_787_16788">
<rect width="16.0008" height="16" fill="white" transform="translate(11.9995 12)"/>
</clipPath>
<clipPath id="clip1_787_16788">
<rect width="16.0008" height="16" fill="white" transform="translate(11.9995 12)"/>
</clipPath>
</defs>
</svg>
