<svg width="147" height="145" viewBox="0 0 147 145" fill="none" xmlns="http://www.w3.org/2000/svg">
<g id="Component 2" clip-path="url(#clip0_3203_2012)">
<rect width="146.485" height="146.485" transform="translate(0 0.612549)" fill="#00A6ED"/>
<path id="Vector" opacity="0.15" d="M84.9916 147.097C84.51 146.839 84.3352 146.796 83.7933 146.553C75.3332 144.901 68.3438 140.615 62.7706 134.115C57.9715 128.515 55.2107 121.969 54.3535 114.598C53.6167 108.241 54.3678 102.082 57.0111 96.3051C61.9679 85.4757 69.6711 77.5995 81.6202 74.6549C84.3609 73.9783 87.1561 73.812 89.9828 73.8521C98.6808 73.9754 125.697 71.415 132.497 65.9931C139.062 60.7548 143.492 54.0628 145.45 45.811C145.679 44.8476 145.923 44.3373 146.482 42.9753C146.482 42.9753 146.531 112.528 146.531 114.44C146.531 116.352 146.531 117.307 146.531 118.598C146.531 127.265 146.531 140.775 146.531 147.126C142.804 147.126 126.176 147.103 121.016 147.097C118.123 147.094 117.145 147.103 113.877 147.103H84.9916V147.097Z" fill="black"/>
<path id="Vector_2" opacity="0.25" d="M-0.0572615 102.859C-0.0572823 102.286 -0.0486828 101.592 -0.0486828 100.976C-0.0544165 79.5291 0.0372803 58.051 0.0401471 36.6015C0.0401471 28.0888 -0.108887 8.49733 -0.108887 0.612558C5.91151 0.612558 19.8157 0.626931 28.703 0.626903C30.9964 0.626894 33.224 0.626894 35.3197 0.626894C60.6225 0.635495 83.494 0.632619 108.8 0.612549C109.717 0.612549 110.554 0.771999 111.463 0.959479C112.561 1.18599 113.278 1.47271 114.052 1.75943C122.357 4.42018 128.289 12.7895 128.028 21.4914C127.704 32.3438 119.969 40.4235 109.528 41.7854C108.777 41.8829 108.006 41.8255 107.243 41.8255C93.4706 41.8255 82.1325 41.8399 68.3602 41.8227C60.7716 41.8141 53.3837 42.8376 46.2338 45.5299C25.624 53.2828 11.3298 67.2977 3.81293 88.082C2.20462 92.5318 1.15822 97.1251 0.596317 101.824C0.550447 102.206 0.447283 102.627 0.034456 102.828L-0.0572615 102.859Z" fill="white"/>
<path id="Vector_3" d="M77.3726 40.8681C79.0718 41.6377 80.1652 43.3249 80.1652 45.1897V102.022C80.1652 103.887 79.0718 105.574 77.3726 106.343C75.6734 107.113 73.6786 106.802 72.2897 105.559L52.3573 87.8137H42.3394C37.1236 87.8137 32.8829 83.5661 32.8829 78.3417V68.8697C32.8829 63.6453 37.1236 59.3977 42.3394 59.3977H52.3573L72.2897 41.6525C73.6786 40.4093 75.6734 40.1133 77.3726 40.8681ZM102.787 51.5537C109.17 56.7633 113.263 64.7109 113.263 73.6057C113.263 82.5005 109.17 90.4481 102.787 95.6577C101.265 96.9009 99.0337 96.6641 97.7926 95.1397C96.5514 93.6153 96.7878 91.3805 98.3097 90.1373C103.112 86.2301 106.17 80.2805 106.17 73.6057C106.17 66.9309 103.112 60.9813 98.3097 57.0593C96.7878 55.8161 96.5662 53.5813 97.7926 52.0569C99.019 50.5325 101.265 50.3105 102.787 51.5389V51.5537ZM93.8475 62.5797C97.0242 65.1845 99.0781 69.1509 99.0781 73.6057C99.0781 78.0605 97.0242 82.0269 93.8475 84.6317C92.3256 85.8749 90.0944 85.6381 88.8533 84.1137C87.6121 82.5893 87.8485 80.3545 89.3704 79.1113C90.9662 77.8089 91.9857 75.8257 91.9857 73.6057C91.9857 71.3857 90.9662 69.4025 89.3704 68.0853C87.8485 66.8421 87.6269 64.6073 88.8533 63.0829C90.0797 61.5585 92.3256 61.3365 93.8475 62.5649V62.5797Z" fill="white"/>
</g>
<defs>
<clipPath id="clip0_3203_2012">
<rect width="146.485" height="146.485" fill="white" transform="translate(0 0.612549)"/>
</clipPath>
</defs>
</svg>
