<svg width="11" height="13" viewBox="0 0 11 13" fill="none" xmlns="http://www.w3.org/2000/svg">
<g id="calendar 1" clip-path="url(#clip0_2934_10867)">
<path id="Vector" d="M2.625 0.5C2.83125 0.5 3 0.667906 3 0.875V2H7.5V0.875C7.5 0.667906 7.66875 0.5 7.875 0.5C8.08125 0.5 8.25 0.667906 8.25 0.875V2H9C9.82734 2 10.5 2.67148 10.5 3.5V11C10.5 11.8273 9.82734 12.5 9 12.5H1.5C0.671485 12.5 0 11.8273 0 11V3.5C0 2.67148 0.671485 2 1.5 2H2.25V0.875C2.25 0.667906 2.41875 0.5 2.625 0.5ZM9.75 5H0.75V11C0.75 11.4148 1.08586 11.75 1.5 11.75H9C9.41485 11.75 9.75 11.4148 9.75 11V5ZM9 2.75H1.5C1.08586 2.75 0.75 3.08516 0.75 3.5V4.25H9.75V3.5C9.75 3.08516 9.41485 2.75 9 2.75Z" fill="#A0AFC7"/>
</g>
<defs>
<clipPath id="clip0_2934_10867">
<rect width="10.5" height="12" fill="white" transform="translate(0 0.5)"/>
</clipPath>
</defs>
</svg>
