<svg width="24" height="24" viewBox="0 0 24 24" fill="none" xmlns="http://www.w3.org/2000/svg">
<path d="M9.33281 1.5C8.20312 1.5 7.2 2.22188 6.84375 3.29531L6.44062 4.5H3C1.34531 4.5 0 5.84531 0 7.5V19.5C0 21.1547 1.34531 22.5 3 22.5H21C22.6547 22.5 24 21.1547 24 19.5V7.5C24 5.84531 22.6547 4.5 21 4.5H17.5594L17.1562 3.29531C16.8 2.22188 15.7969 1.5 14.6672 1.5H9.33281ZM8.97656 4.00781C9.02812 3.85313 9.16875 3.75 9.33281 3.75H14.6672C14.8266 3.75 14.9719 3.85313 15.0234 4.00781L15.6797 5.98125C15.8344 6.44062 16.2609 6.75 16.7484 6.75H21C21.4125 6.75 21.75 7.0875 21.75 7.5V19.5C21.75 19.9125 21.4125 20.25 21 20.25H3C2.5875 20.25 2.25 19.9125 2.25 19.5V7.5C2.25 7.0875 2.5875 6.75 3 6.75H7.25156C7.73438 6.75 8.16562 6.44062 8.32031 5.98125L8.97656 4.00781ZM12 18.75C12.6894 18.75 13.3721 18.6142 14.0091 18.3504C14.646 18.0865 15.2248 17.6998 15.7123 17.2123C16.1998 16.7248 16.5865 16.146 16.8504 15.5091C17.1142 14.8721 17.25 14.1894 17.25 13.5C17.25 12.8106 17.1142 12.1279 16.8504 11.4909C16.5865 10.854 16.1998 10.2752 15.7123 9.78769C15.2248 9.30018 14.646 8.91347 14.0091 8.64963C13.3721 8.3858 12.6894 8.25 12 8.25C11.3106 8.25 10.6279 8.3858 9.99091 8.64963C9.35395 8.91347 8.7752 9.30018 8.28769 9.78769C7.80018 10.2752 7.41347 10.854 7.14963 11.4909C6.8858 12.1279 6.75 12.8106 6.75 13.5C6.75 14.1894 6.8858 14.8721 7.14963 15.5091C7.41347 16.146 7.80018 16.7248 8.28769 17.2123C8.7752 17.6998 9.35395 18.0865 9.99091 18.3504C10.6279 18.6142 11.3106 18.75 12 18.75ZM9 13.5C9 12.7044 9.31607 11.9413 9.87868 11.3787C10.4413 10.8161 11.2044 10.5 12 10.5C12.7956 10.5 13.5587 10.8161 14.1213 11.3787C14.6839 11.9413 15 12.7044 15 13.5C15 14.2956 14.6839 15.0587 14.1213 15.6213C13.5587 16.1839 12.7956 16.5 12 16.5C11.2044 16.5 10.4413 16.1839 9.87868 15.6213C9.31607 15.0587 9 14.2956 9 13.5Z" fill="#00A6ED"/>
</svg>
