<svg width="25" height="25" viewBox="0 0 25 25" fill="none" xmlns="http://www.w3.org/2000/svg">
<path d="M7.03125 14.0625C7.03125 11.04 9.47754 8.59375 12.5 8.59375C15.5225 8.59375 17.9688 11.04 17.9688 14.0625C17.9688 17.085 15.5225 19.5312 12.5 19.5312C9.47754 19.5312 7.03125 17.085 7.03125 14.0625ZM12.5 10.1562C10.3418 10.1562 8.59375 11.9043 8.59375 14.0625C8.59375 16.2207 10.3418 17.9688 12.5 17.9688C14.6582 17.9688 16.4062 16.2207 16.4062 14.0625C16.4062 11.9043 14.6582 10.1562 12.5 10.1562ZM17.7197 3.16504L18.2275 4.6875H21.875C23.5986 4.6875 25 6.08887 25 7.8125V20.3125C25 22.0361 23.5986 23.4375 21.875 23.4375H3.125C1.39893 23.4375 0 22.0361 0 20.3125V7.8125C0 6.08887 1.39893 4.6875 3.125 4.6875H6.77246L7.28027 3.16504C7.59766 2.20801 8.49121 1.5625 9.50195 1.5625H15.498C16.5088 1.5625 17.4023 2.20801 17.7197 3.16504ZM3.125 6.25C2.26221 6.25 1.5625 6.94824 1.5625 7.8125V20.3125C1.5625 21.1768 2.26221 21.875 3.125 21.875H21.875C22.7393 21.875 23.4375 21.1768 23.4375 20.3125V7.8125C23.4375 6.94824 22.7393 6.25 21.875 6.25H17.1045L16.2402 3.65918C16.1328 3.34033 15.835 3.125 15.498 3.125H9.50195C9.16504 3.125 8.86719 3.34033 8.75977 3.65918L7.89551 6.25H3.125Z" fill="#00BFB3"/>
</svg>
