<svg width="156" height="120" viewBox="0 0 156 120" fill="none" xmlns="http://www.w3.org/2000/svg">
<path d="M135.334 60C135.334 92.4404 109.154 118.729 76.8717 118.729C44.5891 118.729 18.4093 92.4404 18.4093 60C18.4093 27.5596 44.5891 1.27114 76.8717 1.27114C109.154 1.27114 135.334 27.5596 135.334 60Z" stroke="#FF4D6D" stroke-width="2.54229"/>
<path d="M132.157 59.9998C132.157 90.6734 107.402 115.534 76.8719 115.534C46.3414 115.534 21.5867 90.6734 21.5867 59.9998C21.5867 29.3262 46.3414 4.46516 76.8719 4.46516C107.402 4.46516 132.157 29.3262 132.157 59.9998Z" stroke="#FF4D6D" stroke-width="1.27114"/>
<path d="M115.432 59.9998C115.432 81.3966 98.1646 98.7358 76.8718 98.7358C55.5791 98.7358 38.3116 81.3966 38.3116 59.9998C38.3116 38.6029 55.5791 21.2637 76.8718 21.2637C98.1646 21.2637 115.432 38.6029 115.432 59.9998Z" stroke="#FF4D6D" stroke-width="1.67683"/>
<path d="M113.336 60.0001C113.336 80.2316 97.0088 96.6293 76.8717 96.6293C56.7345 96.6293 40.407 80.2316 40.407 60.0001C40.407 39.7686 56.7345 23.3709 76.8717 23.3709C97.0088 23.3709 113.336 39.7686 113.336 60.0001Z" stroke="#FF4D6D" stroke-width="0.838414"/>
<g clip-path="url(#clip0_3203_21501)">
<rect width="149.072" height="48.1746" rx="2.54229" transform="matrix(0.923299 -0.384083 0.381287 0.924457 0 65.1685)" fill="#FF4D6D"/>
<path d="M41.838 81.833C40.8929 82.2359 39.9825 82.3072 39.1068 82.0472C38.2311 81.7871 37.3016 81.1832 36.3184 80.2355L30.3556 74.5767L32.0335 72.4614L37.8335 78.0896C38.298 78.5583 38.7231 78.8355 39.1089 78.9211C39.4887 78.9925 39.9536 78.911 40.5037 78.6765L40.7788 78.5593L41.6197 80.0759L42.113 81.7158L41.838 81.833ZM35.0697 84.8431C33.9694 85.3121 32.9568 85.5354 32.0317 85.513C31.1067 85.4906 30.2654 85.3909 29.508 85.2137L29.7103 82.5023L29.8129 82.5086C30.3175 82.5602 30.8766 82.5635 31.4902 82.5186C32.1179 82.4677 32.7844 82.292 33.4897 81.9913C34.3784 81.6125 35.0481 81.1687 35.4989 80.6599C35.9638 80.145 36.2817 79.6761 36.4526 79.2533L36.477 79.1929L38.6736 80.4317L38.646 80.5435C38.5294 80.9765 38.3664 81.4377 38.157 81.927C37.9618 82.4102 37.6064 82.9284 37.0911 83.4814C36.5898 84.0284 35.916 84.4823 35.0697 84.8431ZM52.3527 73.6257L52.4161 73.5987C52.8252 73.4243 53.0989 73.166 53.2372 72.8236C53.3755 72.4813 53.3641 72.1195 53.2029 71.7382C53.0477 71.371 52.6749 70.8632 52.0845 70.2148C51.4882 69.5523 50.9477 68.9826 50.4632 68.5058L52.1199 66.3995C52.6408 66.8441 53.2572 67.5148 53.9691 68.4114C54.6952 69.302 55.2194 70.1286 55.5418 70.8912C55.8761 71.6821 56.0283 72.4756 55.9986 73.2717C55.977 74.0476 55.7747 74.7505 55.3917 75.3805C55.0028 75.9963 54.4557 76.4545 53.7504 76.7552L53.6869 76.7822L52.3527 73.6257ZM46.6822 76.0428L46.788 75.9978C47.1547 75.8414 47.4303 75.6073 47.6147 75.2953C47.8133 74.9773 47.9307 74.5856 47.967 74.1201C47.987 73.6949 47.9579 73.2322 47.8798 72.7322C47.8016 72.2321 47.7231 71.7906 47.6444 71.4074C47.6525 71.3873 47.6566 71.3772 47.6566 71.3772C47.6506 71.3631 47.6447 71.349 47.6387 71.3348L49.8628 70.5118C49.8785 70.5884 49.8913 70.658 49.9011 70.7205C49.9782 71.021 50.0702 71.3568 50.1771 71.7279C50.278 72.0849 50.3763 72.3764 50.4718 72.6024C50.6807 73.0967 50.9477 73.4329 51.2727 73.611C51.5977 73.7892 51.9789 73.7851 52.4161 73.5987L52.4585 73.5806L53.2993 75.0973L53.7927 76.7371L53.7504 76.7552C53.2426 76.9716 52.7453 77.0752 52.2587 77.066C51.7861 77.0508 51.3341 76.9267 50.9028 76.6939C50.4714 76.4611 50.0808 76.1276 49.7308 75.6934L50.2418 75.4256C50.1827 76.0341 50.0686 76.5911 49.8994 77.0966C49.7383 77.582 49.5021 78.0077 49.1907 78.3738C48.8874 78.7197 48.5101 78.9889 48.0587 79.1813L48.0164 79.1994L46.6822 76.0428ZM41.1332 80.2833L40.6308 78.6223L40.7366 78.5772C41.1739 78.3908 41.5653 78.1156 41.9109 77.7517C42.2505 77.3735 42.4664 76.9982 42.5586 76.6255C42.6833 76.1723 42.7408 75.6978 42.7309 75.202C42.7211 74.7061 42.676 74.2253 42.5957 73.7595C42.612 73.7192 42.6141 73.685 42.6022 73.6567L44.9012 72.9518L44.9272 73.1907C44.9821 73.5173 45.0418 73.8752 45.1064 74.2644C45.165 74.6394 45.241 74.957 45.3344 75.2173C45.4874 75.6187 45.6763 75.8883 45.9009 76.0259C46.1396 76.1574 46.4142 76.1571 46.7245 76.0248L46.7668 76.0068L47.6077 77.5235L48.1011 79.1633L47.9953 79.2084C47.4028 79.4609 46.8082 79.531 46.2114 79.4187C45.6227 79.2863 45.1202 78.9838 44.7041 78.5112C44.4974 79.2826 44.1636 79.95 43.7025 80.5132C43.2495 81.0563 42.6915 81.4692 42.0286 81.7518L41.9651 81.7788L41.1332 80.2833ZM42.9637 67.7773C43.1101 67.4148 43.2199 67.143 43.2932 66.9618C43.3664 66.7806 43.4792 66.5158 43.6316 66.1675C43.7374 65.9057 43.8432 65.6439 43.9489 65.3822C44.1698 65.4714 44.3635 65.5555 44.53 65.6345C44.7047 65.6934 44.9025 65.7674 45.1233 65.8566C45.5389 66.0128 45.9475 66.172 46.349 66.3342C46.2308 66.6846 46.0854 67.03 45.9129 67.3702C45.7969 67.6863 45.7063 67.925 45.6412 68.086C45.5842 68.227 45.4977 68.4555 45.3817 68.7717C45.0746 68.6359 44.8437 68.5427 44.6891 68.4919C44.5426 68.421 44.3158 68.3177 44.0087 68.1819C43.6592 68.0642 43.3109 67.9293 42.9637 67.7773ZM46.9415 66.0817C47.0776 65.7736 47.1741 65.5491 47.2311 65.4082C47.2962 65.2471 47.3857 65.0256 47.4996 64.7437C47.646 64.3813 47.7955 64.0259 47.9479 63.6776C48.2089 63.783 48.4026 63.8671 48.529 63.9299C48.6635 63.9725 48.8684 64.0436 49.1435 64.143C49.4104 64.2625 49.6041 64.3467 49.7246 64.3953C49.8591 64.438 50.0599 64.5191 50.3268 64.6386C50.1966 64.9608 50.0665 65.283 49.9363 65.6051C49.8121 65.9414 49.7174 66.1901 49.6524 66.3512C49.5873 66.5123 49.4967 66.7509 49.3806 67.0671C49.0193 66.9211 48.6579 66.7751 48.2965 66.6291C47.9954 66.5075 47.7675 66.4213 47.6129 66.3705C47.4664 66.2996 47.2426 66.2033 46.9415 66.0817ZM44.0863 64.3485C44.2816 63.8653 44.431 63.5099 44.5346 63.2824C44.6323 63.0408 44.7746 62.6884 44.9618 62.2253C45.3172 62.3571 45.6685 62.499 46.0157 62.651C46.2507 62.7342 46.4213 62.8032 46.5277 62.8579C46.6481 62.9065 46.8288 62.9795 47.0697 63.0768C46.9173 63.4252 46.8115 63.6869 46.7524 63.8621C46.6933 64.0373 46.5986 64.286 46.4684 64.6082C46.444 64.6686 46.3627 64.87 46.2244 65.2123C45.9433 65.0987 45.7325 65.0136 45.592 64.9568C45.4515 64.9 45.2407 64.8149 44.9596 64.7013C44.773 64.6142 44.6324 64.5574 44.538 64.531C44.4377 64.4905 44.2871 64.4296 44.0863 64.3485ZM71.8887 75.5489C70.6897 76.06 69.489 76.2718 68.2867 76.1842C67.0985 76.0907 66.0364 75.685 65.1004 74.9673C64.1704 74.2636 63.4962 73.2593 63.0777 71.9542C62.8058 71.1534 62.6288 70.2621 62.5468 69.2803C62.4588 68.2845 62.4288 67.3472 62.4569 66.4685L64.9033 66.5257L64.9025 66.7011C64.8864 67.608 64.909 68.3901 64.9703 69.0473C65.0317 69.7045 65.1837 70.3398 65.4263 70.9531C65.6629 71.5523 66.0349 72.0188 66.5422 72.3525C67.0496 72.6863 67.6461 72.857 68.3319 72.8647C69.0378 72.8805 69.7786 72.7231 70.5544 72.3924C71.9932 71.7791 72.9171 70.9519 73.326 69.9109C73.7491 68.8638 73.6331 67.6048 72.9781 66.1339C71.8927 63.7631 70.8426 61.5939 69.8278 59.6263C69.214 58.3711 68.6119 57.2027 68.0215 56.121C67.4251 55.0251 66.9283 54.1451 66.5311 53.4811L68.9341 51.7817C69.5908 52.9019 70.6601 55.0379 72.1422 58.1897C72.7516 59.5134 73.2794 60.6635 73.7255 61.6401C74.1716 62.6167 74.6774 63.7345 75.2428 64.9935C75.9456 66.5774 76.2808 68.0596 76.2484 69.4402C76.2302 70.8148 75.8516 72.0262 75.1128 73.0745C74.3739 74.1228 73.2992 74.9476 71.8887 75.5489ZM82.9544 64.3065C81.9106 64.7515 80.9807 64.9145 80.1647 64.7957C79.3568 64.6567 78.6376 64.2548 78.0071 63.5902C77.3766 62.9256 76.8046 61.986 76.2912 60.7714C75.5629 59.0484 74.7733 57.3182 73.9224 55.5808C73.0714 53.8433 72.3106 52.4175 71.6399 51.3034L74.0218 49.613C74.6485 50.6626 75.4281 52.1721 76.3604 54.1415C77.3009 56.0907 78.0675 57.8058 78.6601 59.2866C78.9504 60.0129 79.2155 60.5416 79.4554 60.8727C79.6952 61.2039 79.982 61.39 80.3157 61.4311C80.6493 61.4722 81.0842 61.3785 81.6202 61.15L81.726 61.1049L82.5669 62.6216L83.0602 64.2614L82.9544 64.3065ZM81.5207 61.1924L82.092 60.9489L82.3036 60.8587C84.0608 60.093 85.4271 59.2689 86.4025 58.3864C87.3921 57.498 88.0685 56.6762 88.4319 55.9213C88.8035 55.1462 89.0006 54.4704 89.0234 53.8941C88.7087 53.6615 88.2141 53.614 87.5397 53.7514C86.8594 53.8748 86.1763 54.1492 85.4906 54.5749C84.819 54.9945 84.3079 55.479 83.9575 56.0284C84.9711 56.4965 85.9108 56.8293 86.7767 57.0269C87.6568 57.2184 88.5344 57.286 89.4095 57.2297C90.2787 57.1592 91.1937 56.9609 92.1545 56.6346C92.4426 56.5285 92.7488 56.4063 93.0733 56.268L93.7292 55.9884L94.57 57.5051L95.0634 59.1449L94.4075 59.4245C92.9405 60.0498 91.5993 60.4215 90.384 60.5395C89.1828 60.6515 87.9344 60.5336 86.6388 60.1859C85.3512 59.818 83.8477 59.1754 82.1283 58.2583L81.3518 57.8392L80.55 55.7058C81.0929 54.391 82.0694 53.2747 83.4794 52.357C84.8894 51.4393 86.3287 50.9258 87.7974 50.8164C89.2661 50.7071 90.3303 51.0785 90.9902 51.9306C91.6679 52.8251 91.7527 54.0891 91.2445 55.7224C90.7363 57.3558 89.7767 58.9649 88.3657 60.5498C86.9488 62.1205 85.3023 63.3057 83.4262 64.1054L82.8549 64.3489L81.5207 61.1924ZM93.505 56.084L93.8224 55.9487C95.3599 55.2933 96.5744 54.7006 97.4657 54.1706C98.3652 53.6205 99.0043 53.0648 99.3829 52.5034C99.7697 51.9218 99.864 51.2982 99.6659 50.6326C99.3614 49.9123 98.9542 49.2442 98.4441 48.6283C97.9422 47.9922 97.4104 47.5021 96.8488 47.1581C96.2872 46.8141 95.7629 46.696 95.2757 46.8036C94.8508 46.9014 94.5359 47.1606 94.3309 47.5814C94.1258 48.0021 94.0535 48.4414 94.1137 48.899C94.174 49.3567 94.3395 49.6695 94.6103 49.8374C94.8892 49.9852 95.273 50.0466 95.7619 50.0216C96.2507 49.9966 96.7933 49.882 97.3895 49.6778C97.9857 49.4737 98.5581 49.213 99.1066 48.8959C99.2135 48.8337 99.3315 48.7584 99.4606 48.67L100.652 51.4876C100.537 51.5699 100.336 51.7055 100.049 51.8943C98.8352 52.6451 97.6205 53.0796 96.4052 53.1976C95.204 53.3096 94.2227 53.0362 93.4615 52.3773C92.6942 51.7043 92.1895 50.786 91.9474 49.6224C91.7194 48.4529 91.7969 47.3365 92.1798 46.2732C92.5627 45.2099 93.2196 44.4798 94.1506 44.083C94.997 43.7222 95.9049 43.7436 96.8745 44.147C97.8582 44.5444 98.7722 45.2298 99.6165 46.2034C100.455 47.1627 101.113 48.2658 101.59 49.5126C102.315 51.3867 102.159 53.1449 101.122 54.7871C100.079 56.4152 98.0765 57.8605 95.1143 59.1232L94.8393 59.2405L93.505 56.084ZM90.3929 41.8095C90.6592 41.1793 90.8534 40.7132 90.9754 40.4111C91.1056 40.089 91.2927 39.6258 91.5368 39.0218C91.9584 39.1921 92.2696 39.3178 92.4703 39.3989C92.6711 39.48 92.9722 39.6017 93.3737 39.7639C93.689 39.8795 94.0001 40.0052 94.3072 40.141C94.055 40.7652 93.8638 41.2384 93.7336 41.5606C93.6116 41.8626 93.4285 42.3157 93.1845 42.9197C92.7629 42.7494 92.4517 42.6237 92.251 42.5426C92.0502 42.4615 91.742 42.3428 91.3264 42.1867C91.0193 42.0509 90.7081 41.9252 90.3929 41.8095ZM111.324 52.2137C110.675 52.4903 110.032 52.5643 109.395 52.4358C108.772 52.3013 108.169 52.0167 107.586 51.5819C107.011 51.1271 106.42 50.5371 105.814 49.8121L107.226 47.8352C107.561 48.2754 107.877 48.6077 108.171 48.8322C108.466 49.0566 108.756 49.1913 109.041 49.2363C109.335 49.2612 109.651 49.2015 109.989 49.0572L110.201 48.967L111.042 50.4837L111.535 52.1235L111.324 52.2137ZM104.283 59.3651C105.059 58.601 105.72 57.8025 106.267 56.9693C106.828 56.1302 107.23 55.3673 107.472 54.6806C107.715 53.9938 107.761 53.4739 107.612 53.1209C107.469 52.7819 107.064 52.1793 106.398 51.313C105.741 50.4267 105.081 49.5745 104.419 48.7566L104.209 48.4961L106.185 46.5539C106.941 47.3982 107.651 48.329 108.314 49.3465C108.977 50.3639 109.491 51.3033 109.855 52.1648C110.249 53.097 110.371 54.095 110.221 55.1588C110.086 56.2166 109.713 57.284 109.103 58.3608C108.492 59.4377 107.692 60.4788 106.702 61.4842L104.283 59.3651ZM109.994 49.0552L110.121 49.0011C111.221 48.5321 112.057 48.1259 112.628 47.7826C113.192 47.4252 113.557 47.0865 113.721 46.7664C113.886 46.4463 113.921 46.0977 113.829 45.7206C113.74 45.3919 113.59 45.0388 113.381 44.6614C113.18 44.2638 112.929 43.8289 112.63 43.3565L112.564 43.2596L114.585 41.8979C115.23 42.873 115.819 43.989 116.35 45.246C116.554 45.4923 116.826 45.6431 117.165 45.6984C117.505 45.7536 117.893 45.688 118.331 45.5016L118.437 45.4565L119.277 46.9732L119.771 48.613L119.644 48.6672C118.995 48.9438 118.321 49.0228 117.621 48.9042C116.916 48.7715 116.289 48.4888 115.74 48.0562L116.323 47.9578C116.248 48.4897 116.041 48.986 115.703 49.4468C115.365 49.9075 114.857 50.3578 114.177 50.7976C113.491 51.2232 112.584 51.6765 111.455 52.1576L111.329 52.2117L109.994 49.0552ZM120.202 52.7046C119.96 53.2744 119.782 53.7003 119.668 53.9822C119.554 54.2641 119.383 54.6869 119.155 55.2507C118.573 55.0155 118.142 54.8412 117.861 54.7276C117.594 54.6081 117.182 54.4418 116.626 54.2288C116.862 53.6449 117.03 53.215 117.13 52.9391C117.243 52.6572 117.414 52.2343 117.642 51.6705C118.224 51.9057 118.656 52.0801 118.937 52.1937C119.218 52.3072 119.64 52.4775 120.202 52.7046ZM116.478 54.292C116.236 54.8618 116.058 55.2877 115.944 55.5696C115.83 55.8515 115.659 56.2743 115.432 56.8381C115.11 56.7083 114.796 56.5756 114.489 56.4398C114.128 56.2938 113.857 56.1843 113.676 56.1113C113.501 56.0525 113.243 55.9541 112.902 55.8162C113.138 55.2323 113.306 54.8024 113.406 54.5265C113.52 54.2446 113.69 53.8217 113.918 53.2579C114.5 53.4931 114.932 53.6675 115.213 53.781C115.494 53.8946 115.916 54.0649 116.478 54.292ZM118.218 45.5499L118.471 45.4417C120.771 44.4616 122.681 43.5471 124.204 42.6982C125.734 41.8291 126.973 40.9594 127.92 40.0889L129.695 42.6328C128.735 43.5919 127.458 44.5694 125.865 45.5652C124.28 46.541 122.26 47.552 119.806 48.5982L119.552 48.7064L118.218 45.5499ZM126.453 44.8894C125.58 45.3449 124.642 45.5865 123.638 45.6143C122.635 45.6421 121.707 45.4374 120.857 45C120 44.5484 119.343 43.8616 118.887 42.9394C118.484 42.1443 118.305 41.2873 118.35 40.3683C118.394 39.4493 118.643 38.6014 119.097 37.8245C119.565 37.0415 120.188 36.4263 120.964 35.9787C121.696 35.5834 122.498 35.3747 123.371 35.3526C124.244 35.3305 125.114 35.4596 125.982 35.7398L125.862 38.2912C125.23 38.2937 124.633 38.3567 124.069 38.4804C123.499 38.5898 122.987 38.775 122.531 39.036C122.112 39.2647 121.764 39.5461 121.489 39.88C121.214 40.2139 121.035 40.5571 120.951 40.9097C120.861 41.248 120.883 41.5383 121.019 41.7805C121.171 42.0993 121.467 42.348 121.909 42.5264C122.344 42.6907 122.845 42.7524 123.41 42.7114C123.97 42.6563 124.522 42.4873 125.069 42.2044L126.453 44.8894ZM117.715 33.3134C117.981 32.6832 118.175 32.217 118.297 31.915C118.427 31.5928 118.615 31.1297 118.859 30.5256C119.28 30.696 119.591 30.8217 119.792 30.9028C119.993 30.9839 120.294 31.1055 120.696 31.2677C121.011 31.3834 121.322 31.5091 121.629 31.6449C121.377 32.2691 121.186 32.7423 121.056 33.0644C120.933 33.3665 120.75 33.8195 120.506 34.4236C120.085 34.2533 119.774 34.1276 119.573 34.0465C119.372 33.9654 119.064 33.8467 118.648 33.6905C118.341 33.5547 118.03 33.429 117.715 33.3134Z" fill="white"/>
</g>
<defs>
<clipPath id="clip0_3203_21501">
<rect width="149.072" height="48.1746" rx="2.54229" transform="matrix(0.923299 -0.384083 0.381287 0.924457 0 65.1685)" fill="white"/>
</clipPath>
</defs>
</svg>
