<svg width="15" height="12" viewBox="0 0 15 12" fill="none" xmlns="http://www.w3.org/2000/svg">
<g id="photo-film-music 1" clip-path="url(#clip0_3266_5955)">
<path id="Vector" d="M14.5336 3.96328C14.2366 3.74941 13.8677 3.69305 13.5195 3.80873L10.5195 4.80858C10.0594 4.96172 9.75 5.39062 9.75 5.87578V9.55781C9.52969 9.42422 9.27422 9.375 9 9.375C8.17148 9.375 7.5 9.96258 7.5 10.6875C7.5 11.4124 8.17266 12 9 12C9.82734 12 10.5 11.4124 10.5 10.6875V7.94062L14.25 6.6907V8.05664C14.0297 7.92422 13.7742 7.875 13.5 7.875C12.6715 7.875 12 8.46258 12 9.1875C12 9.91242 12.6727 10.5 13.5 10.5C14.3273 10.5 15 9.91242 15 9.1875V4.875C15 4.50938 14.8289 4.17656 14.5336 3.96328ZM9 11.25C8.59336 11.25 8.25 10.9924 8.25 10.6875C8.25 10.3826 8.59336 10.125 9 10.125C9.40664 10.125 9.75 10.3826 9.75 10.6875C9.75 10.9924 9.40547 11.25 9 11.25ZM13.5 9.75C13.0934 9.75 12.75 9.49242 12.75 9.1875C12.75 8.88258 13.0934 8.625 13.5 8.625C13.9066 8.625 14.25 8.88258 14.25 9.1875C14.25 9.49242 13.9055 9.75 13.5 9.75ZM14.25 5.90156L10.5 7.15148V5.87578C10.5 5.71427 10.6029 5.57109 10.7564 5.51977L13.7564 4.52039C13.8721 4.48083 13.9952 4.50061 14.0944 4.57167C14.1937 4.64297 14.25 4.75313 14.25 4.875V5.90156ZM7.88672 4.82578C7.98863 4.95574 8.29922 5.07539 8.48648 4.81328L9.76242 2.96758L10.3547 3.79352C10.4505 3.92707 10.6221 3.98268 10.778 3.93072C11.0175 3.85087 11.1129 3.56135 10.9656 3.35603L10.3724 2.52869C10.1081 2.15814 9.47009 2.1551 9.22165 2.52796L8.1897 3.96772L8.02636 3.75817C7.73925 3.38973 7.18214 3.38879 6.89386 3.75639L5.41472 5.64217C5.22656 5.85703 5.20312 6.14766 5.33203 6.38203C5.45625 6.58828 5.69766 6.75 5.9625 6.75H8.625C8.83125 6.75 9 6.58125 9 6.375C9 6.16875 8.83212 5.9993 8.625 5.9993L6.05156 5.99766L7.4168 4.22555L7.88672 4.82578ZM5.25 8.25H8.625C8.83125 8.25 9 8.08125 9 7.875C9 7.66875 8.83125 7.5 8.625 7.5H5.25C4.83586 7.5 4.5 7.16414 4.5 6.75V1.5C4.5 1.08586 4.83586 0.75 5.25 0.75H12.75C13.1641 0.75 13.5 1.08586 13.5 1.5V2.625C13.5 2.83125 13.6687 3 13.875 3C14.0813 3 14.25 2.83125 14.25 2.625V1.5C14.25 0.671484 13.5785 0 12.75 0H5.25C4.42266 0 3.75 0.671484 3.75 1.5V6.75C3.75 7.57734 4.42266 8.25 5.25 8.25ZM6.5625 2.25C6.5625 1.93945 6.31078 1.6875 6 1.6875C5.68828 1.6875 5.4375 1.93945 5.4375 2.25C5.4375 2.56055 5.68828 2.8125 6 2.8125C6.31172 2.8125 6.5625 2.56172 6.5625 2.25ZM3 2.25H1.5C0.671484 2.25 0 2.92266 0 3.75V9C0 9.82852 0.671484 10.5 1.5 10.5H6.375C6.58125 10.5 6.75 10.3313 6.75 10.125C6.75 9.91875 6.58125 9.75 6.375 9.75H3V2.25ZM2.25 9.75H1.5C1.08656 9.75 0.75 9.41344 0.75 9V8.25H2.25V9.75ZM2.25 7.5H0.75V5.25H2.25V7.5ZM2.25 4.5H0.75V3.75C0.75 3.33656 1.08656 3 1.5 3H2.25V4.5Z" fill="#374355"/>
</g>
<defs>
<clipPath id="clip0_3266_5955">
<rect width="15" height="12" fill="white"/>
</clipPath>
</defs>
</svg>
