<svg width="620" height="439" viewBox="0 0 620 439" fill="none" xmlns="http://www.w3.org/2000/svg">
<rect width="620" height="439" rx="16" fill="#F5F9FF"/>
<rect width="477" height="439" transform="translate(71.5)" fill="#F5F9FF"/>
<path opacity="0.25" d="M281.915 182.185C273.503 182.185 266.684 188.081 266.684 195.355C266.684 202.629 273.503 208.525 281.915 208.525C290.327 208.525 297.146 202.629 297.146 195.355C297.146 188.081 290.324 182.185 281.915 182.185ZM375.555 158.04H253.705C242.774 158.04 233.68 165.901 233.68 175.6V263.4C233.68 273.099 242.771 280.96 253.703 280.96H375.552C386.769 280.96 395.86 273.099 395.86 263.4V175.6C395.863 165.901 387.041 158.04 375.555 158.04ZM380.632 261.562L337.223 210.555C336.43 209.293 334.621 208.525 332.685 208.525C330.746 208.525 328.935 209.285 327.859 210.55L294.033 250.087L282.264 237.438C281.172 236.264 279.429 235.57 277.577 235.57C275.723 235.57 273.982 236.264 272.887 237.438L248.923 263.178C248.923 263.169 248.923 263.186 248.923 263.178L248.911 175.6C248.911 173.18 251.188 171.21 253.988 171.21H375.837C378.636 171.21 380.914 173.18 380.914 175.6V261.562H380.632Z" fill="#A0AFC7"/>
</svg>
