<svg width="150" height="150" viewBox="0 0 150 150" fill="none" xmlns="http://www.w3.org/2000/svg">
<g id="circle-user 2" clip-path="url(#clip0_3722_18458)">
<path id="Vector" opacity="0.5" d="M75 79.6875C86.6514 79.6875 96.0938 70.2422 96.0938 58.5938C96.0938 46.9453 86.6602 37.5 75 37.5C63.3398 37.5 53.9062 46.9336 53.9062 58.5938C53.9062 70.2539 63.3398 79.6875 75 79.6875ZM84.375 93.75H65.625C51.6973 93.75 39.9785 102.504 35.2441 114.759C45.4395 124.951 59.502 131.25 75 131.25C90.498 131.25 104.561 124.942 114.756 114.759C110.01 102.51 98.291 93.75 84.375 93.75Z" fill="#A0AFC7"/>
<path id="Vector_2" d="M75 0C33.5742 0 0 33.5742 0 75C0 116.426 33.5742 150 75 150C116.426 150 150 116.426 150 75C150 33.5742 116.426 0 75 0ZM75 37.5C86.6514 37.5 96.0938 46.9453 96.0938 58.5938C96.0938 70.2422 86.6602 79.6875 75 79.6875C63.3516 79.6875 53.9062 70.2422 53.9062 58.5938C53.9062 46.9453 63.3398 37.5 75 37.5ZM75 131.25C59.4932 131.25 45.4395 124.942 35.2441 114.759C39.9902 102.51 51.709 93.75 65.625 93.75H84.375C98.3027 93.75 110.021 102.504 114.756 114.759C104.561 124.951 90.498 131.25 75 131.25Z" fill="white"/>
</g>
<defs>
<clipPath id="clip0_3722_18458">
<rect width="150" height="150" fill="white"/>
</clipPath>
</defs>
</svg>
