<svg width="16" height="16" viewBox="0 0 16 16" fill="none" xmlns="http://www.w3.org/2000/svg">
<g id="reply 1" clip-path="url(#clip0_2934_10875)">
<path id="Vector" d="M6.75 4.62514C6.33437 4.62514 6 4.29077 6 3.87514V3.62514V3.12514V1.62514L1 6.12514L6 10.6251V9.12514V8.62514V8.37514C6 7.95952 6.33437 7.62514 6.75 7.62514H7H10C12.2094 7.62514 14 9.41577 14 11.6251C14 11.8845 13.9781 12.1283 13.9375 12.3501C14.5063 11.6189 15 10.5658 15 9.12514C15 6.64077 12.9844 4.62514 10.5 4.62514H7H6.75ZM7 9.12514V9.62514V10.6251C7 11.0189 6.76875 11.3783 6.40625 11.5376C6.04375 11.697 5.625 11.6314 5.33125 11.3689L0.33125 6.86889C0.121875 6.67827 0 6.40952 0 6.12514C0 5.84077 0.121875 5.57202 0.33125 5.38139L5.33125 0.881391C5.625 0.615766 6.04688 0.550141 6.40625 0.712641C6.76562 0.875141 7 1.23139 7 1.62514V2.62514V3.12514V3.62514H8H10.5C13.5375 3.62514 16 6.08764 16 9.12514C16 12.6658 13.4531 14.247 12.8687 14.5658C12.7906 14.6095 12.7031 14.6251 12.6156 14.6251C12.275 14.6251 12 14.347 12 14.0095C12 13.7751 12.1344 13.5595 12.3062 13.4001C12.6 13.1251 13 12.5751 13 11.6283C13 9.97202 11.6562 8.62827 10 8.62827H8H7V9.12827V9.12514Z" fill="#374355"/>
</g>
<defs>
<clipPath id="clip0_2934_10875">
<rect width="16" height="15" fill="white" transform="translate(0 0.5)"/>
</clipPath>
</defs>
</svg>
