<svg width="200" height="200" viewBox="0 0 200 200" fill="none" xmlns="http://www.w3.org/2000/svg">
<g id="Component 2" clip-path="url(#clip0_3203_21536)">
<rect width="204" height="204" fill="#00BFB3"/>
<path id="Vector" opacity="0.15" d="M118.362 204C117.692 203.64 117.448 203.58 116.694 203.241C104.912 200.941 95.178 194.972 87.4167 185.92C80.7332 178.121 76.8885 169.005 75.6947 158.74C74.6686 149.887 75.7147 141.31 79.3957 133.265C86.2988 118.183 97.0266 107.215 113.667 103.114C117.484 102.171 121.377 101.94 125.313 101.996C137.427 102.167 175.05 98.6017 184.521 91.051C193.663 83.7559 199.832 74.4364 202.559 62.9446C202.878 61.603 203.217 60.8923 203.996 58.9956C203.996 58.9956 204.064 155.857 204.064 158.52C204.064 161.183 204.064 162.513 204.064 164.31C204.064 176.38 204.064 195.195 204.064 204.04C198.874 204.04 175.717 204.008 168.531 204C164.502 203.995 163.141 204.008 158.589 204.008H118.362V204Z" fill="black"/>
<path id="Vector_2" opacity="0.25" d="M-0.079472 142.393C-0.079501 141.594 -0.067525 140.628 -0.067525 139.769C-0.07551 109.902 0.0521903 79.9908 0.0561828 50.1195C0.0561828 38.2645 -0.151367 10.9806 -0.151367 1.22873e-05C8.23285 1.22873e-05 27.5963 0.0200289 39.973 0.0199905C43.167 0.0199771 46.2692 0.0199772 49.1877 0.0199772C84.4254 0.031956 116.277 0.0279507 151.519 0C152.796 0 153.962 0.222056 155.228 0.483147C156.757 0.798591 157.755 1.19789 158.833 1.59718C170.399 5.30264 178.66 16.9581 178.296 29.0767C177.845 44.19 167.073 55.4421 152.533 57.3388C151.487 57.4745 150.413 57.3947 149.351 57.3947C130.171 57.3947 114.381 57.4147 95.2011 57.3907C84.633 57.3787 74.3444 58.8042 64.3871 62.5536C35.6851 73.3505 15.7786 92.8682 5.31029 121.813C3.07051 128.01 1.61325 134.407 0.830725 140.951C0.766845 141.482 0.623175 142.069 0.048257 142.349L-0.079472 142.393Z" fill="white"/>
<path id="Vector_3" d="M55.5859 67.0306C55.5859 60.6643 60.7619 55.4883 67.1283 55.4883H136.382C142.748 55.4883 147.924 60.6643 147.924 67.0306V118.971C147.924 125.337 142.748 130.513 136.382 130.513H111.368L89.0587 147.25C88.193 147.899 87.0207 148.007 86.0288 147.52C85.0369 147.033 84.4417 146.041 84.4417 144.941V130.513H67.1283C60.7619 130.513 55.5859 125.337 55.5859 118.971V67.0306ZM82.9989 81.4585C80.6003 81.4585 78.6706 83.3882 78.6706 85.7869C78.6706 88.1855 80.6003 90.1152 82.9989 90.1152H120.511C122.91 90.1152 124.84 88.1855 124.84 85.7869C124.84 83.3882 122.91 81.4585 120.511 81.4585H82.9989ZM82.9989 98.772C80.6003 98.772 78.6706 100.702 78.6706 103.1C78.6706 105.499 80.6003 107.429 82.9989 107.429H103.198C105.597 107.429 107.526 105.499 107.526 103.1C107.526 100.702 105.597 98.772 103.198 98.772H82.9989Z" fill="white"/>
</g>
<defs>
<clipPath id="clip0_3203_21536">
<rect width="204" height="204" fill="white"/>
</clipPath>
</defs>
</svg>
