<svg width="16" height="24" viewBox="0 0 16 24" fill="none" xmlns="http://www.w3.org/2000/svg">
<g id="xmark 1" clip-path="url(#clip0_2404_1063)">
<path id="Vector" d="M15.2796 19.2796C14.9865 19.5727 14.5123 19.5727 14.2189 19.2796L7.99995 13.0593L1.77964 19.2796C1.48653 19.5727 1.01229 19.5727 0.718855 19.2796C0.425746 18.9865 0.425746 18.5123 0.718855 18.2189L6.94057 11.9999L0.719793 5.77964C0.426684 5.48653 0.426684 5.01229 0.719793 4.71886C1.0129 4.42575 1.48714 4.42575 1.78057 4.71886L7.99995 10.9406L14.2203 4.72026C14.5134 4.42715 14.9876 4.42715 15.281 4.72026C15.5742 5.01337 15.5742 5.48761 15.281 5.78104L9.05932 11.9999L15.2796 18.2203C15.5749 18.5109 15.5749 18.989 15.2796 19.2796Z" fill="#FF4D6D"/>
</g>
<defs>
<clipPath id="clip0_2404_1063">
<rect width="15" height="24" fill="white" transform="translate(0.5)"/>
</clipPath>
</defs>
</svg>
