<?xml version="1.0" encoding="UTF-8"?><svg id="Logo-LogoType" xmlns="http://www.w3.org/2000/svg" xmlns:xlink="http://www.w3.org/1999/xlink" viewBox="0 0 474.54 487.17"><defs><style>.cls-1{fill:url(#linear-gradient-2);}.cls-2{fill:#00bfb3;}.cls-3{isolation:isolate;}.cls-4{fill:url(#linear-gradient-5);}.cls-5{fill:url(#linear-gradient-3);}.cls-6{fill:url(#linear-gradient);}.cls-7{fill:url(#linear-gradient-4);}</style><linearGradient id="linear-gradient" x1="13.36" y1="-18.35" x2="815.36" y2="863.65" gradientTransform="matrix(1, 0, 0, 1, 0, 0)" gradientUnits="userSpaceOnUse"><stop offset="0" stop-color="#00bfb3"/><stop offset="1" stop-color="#00a6ed"/></linearGradient><linearGradient id="linear-gradient-2" x1="-70.44" y1="57.85" x2="731.56" y2="939.85" xlink:href="#linear-gradient"/><linearGradient id="linear-gradient-3" x1="-16.41" y1="8.72" x2="785.59" y2="890.72" xlink:href="#linear-gradient"/><linearGradient id="linear-gradient-4" x1="84.56" y1="-83.1" x2="886.56" y2="798.9" xlink:href="#linear-gradient"/><linearGradient id="linear-gradient-5" x1="123.74" y1="-118.72" x2="925.74" y2="763.28" xlink:href="#linear-gradient"/></defs><g class="cls-3"><path class="cls-2" d="M25.66,469.17c0,4.76-2,8.84-6.01,12.23-3.52,3-7.79,4.91-12.83,5.73-.19,.02-.34,.04-.46,.04-.54,0-1.73-1.65-3.59-4.94-1.85-3.29-2.78-5.3-2.78-6.03,0-.26,.18-.42,.53-.49,3.4-.77,5.65-1.43,6.75-1.97,2.44-1.22,3.66-3.02,3.66-5.41,0-1.52-.8-3.22-2.39-5.1-2.77-3.19-4.27-4.96-4.5-5.31-1.62-2.44-2.43-5.13-2.43-8.09,0-4.29,1.98-7.85,5.94-10.69,3.23-2.34,7.21-3.87,11.92-4.57,.26-.02,.46-.04,.6-.04,.35,0,.63,.28,.84,.84,.61,1.71,2.03,4.8,4.25,9.28,.07,.14,.11,.26,.11,.35,0,.4-.21,.6-.63,.6-.19,0-.5-.04-.95-.11-.45-.07-.79-.11-1.02-.11-1.69,0-3.16,.39-4.43,1.16-1.52,.89-2.29,2.13-2.29,3.73,0,1.43,.84,3.19,2.53,5.27,2.98,3.75,4.54,5.72,4.68,5.91,1.66,2.58,2.5,5.14,2.5,7.7Z"/><path class="cls-2" d="M65.07,468.04c0,5.34-1.63,9.68-4.9,13.01s-7.56,4.99-12.88,4.99-9.4-1.64-12.73-4.92c-3.33-3.28-4.99-7.5-4.99-12.66,0-5.44,1.59-9.85,4.78-13.24,3.19-3.39,7.5-5.08,12.94-5.08s9.59,1.66,12.87,4.97c3.28,3.32,4.92,7.62,4.92,12.92Zm-11.53,0c0-1.85-.57-3.49-1.72-4.9-1.15-1.42-2.64-2.13-4.46-2.13s-3.38,.73-4.57,2.18c-1.12,1.36-1.69,2.98-1.69,4.85s.56,3.53,1.69,4.89c1.2,1.45,2.72,2.18,4.57,2.18s3.34-.73,4.54-2.18c1.1-1.36,1.65-2.99,1.65-4.89Z"/><path class="cls-2" d="M92.6,462.21s-.73-.19-2.13-.56c-1.39-.38-2.53-.56-3.39-.56-2.09,0-3.75,.63-4.99,1.88-1.24,1.25-1.86,2.92-1.86,5.01s.68,3.85,2.04,5.08c1.36,1.23,3.13,1.85,5.31,1.85,1.03,0,2.19-.26,3.48-.79,1.29-.53,1.9-.79,1.83-.79,.4,0,.91,1.49,1.55,4.46,.54,2.72,.81,4.52,.81,5.41s-1.45,1.65-4.36,2.29c-2.25,.49-4.07,.74-5.45,.74-5.16,0-9.41-1.73-12.76-5.2-3.35-3.47-5.03-7.79-5.03-12.97s1.68-9.45,5.04-12.96c3.36-3.5,7.61-5.26,12.74-5.26,3.49,0,6.56,.75,9.21,2.25,.61,.33,.91,.64,.91,.95s-.35,1.69-1.05,4.15c-.66,2.37-1.08,3.8-1.28,4.29-.2,.49-.4,.74-.62,.74Z"/><path class="cls-2" d="M112.29,469.2c0,1.71,.04,4.26,.11,7.65s.11,5.92,.11,7.61c0,.49-.29,.79-.88,.88-.8,.14-2.59,.21-5.38,.21s-4.62-.07-5.41-.21c-.52-.09-.83-.25-.95-.46-.05-.09-.07-.45-.07-1.05,0-1.62,.04-4.05,.11-7.29s.11-5.69,.11-7.33c0-6.66-.26-11.95-.77-15.89-.05-.38-.07-.62-.07-.74,0-.47,.32-.7,.95-.7s1.66,.07,3.01,.21c1.35,.14,2.36,.21,3.04,.21s1.7-.06,3.06-.18c1.36-.12,2.38-.18,3.06-.18,.56,0,.84,.23,.84,.7,0,.09-.02,.32-.07,.67-.52,4.57-.77,9.87-.77,15.89Zm.91-26.12c0,4.08-2.3,6.12-6.89,6.12-1.97,0-3.6-.52-4.89-1.55-1.41-1.12-2.11-2.65-2.11-4.57s.73-3.33,2.18-4.5c1.34-1.08,2.94-1.62,4.82-1.62s3.41,.55,4.75,1.65c1.43,1.17,2.14,2.66,2.14,4.46Z"/><path class="cls-2" d="M154.41,467.76c0,1.8,.11,4.49,.32,8.05s.32,6.23,.32,8.02c0,.94-.41,1.44-1.23,1.51-2.91,.21-6.23,.32-9.98,.32-.45,0-.74-.67-.9-2.02-.15-1.35-.33-2.03-.54-2.06-.19,.09-.43,.29-.74,.6-2.62,2.65-5.44,3.97-8.44,3.97-4.57,0-8.36-1.8-11.36-5.41-2.84-3.38-4.25-7.41-4.25-12.09,0-5.41,1.46-9.77,4.39-13.08,3.05-3.42,7.22-5.13,12.52-5.13,3.68,0,6.59,1.29,8.72,3.87,.09,.12,.18,.18,.25,.18,.21,0,.45-.57,.72-1.71,.27-1.14,.59-1.71,.97-1.71,.87,0,2.52,.25,4.96,.74,2.32,.47,3.98,.87,4.99,1.2,.35,.14,.53,.33,.53,.56,0,.09-.04,.34-.11,.74-.75,4.24-1.12,8.73-1.12,13.46Zm-11.32,.21c0-1.99-.63-3.64-1.88-4.94-1.25-1.3-2.89-1.95-4.9-1.95s-3.64,.64-4.89,1.93c-1.24,1.29-1.86,2.94-1.86,4.96,0,1.9,.66,3.53,1.97,4.89,1.31,1.36,2.91,2.04,4.78,2.04,1.99,0,3.62-.65,4.89-1.95s1.9-2.96,1.9-4.97Z"/><path class="cls-2" d="M174.2,464.18c0,6.4,.02,11.31,.07,14.73,0,.54,.04,1.46,.11,2.78,.07,1.2,.11,2.12,.11,2.78,0,.49-.29,.79-.88,.88-1.05,.19-2.95,.28-5.7,.28s-4.61-.09-5.38-.28c-.52-.12-.81-.43-.88-.95v-1.51c0-2.09,.02-5.21,.07-9.37,.05-4.16,.07-7.27,.07-9.33,0-9.84,.01-14.33,.04-13.46-.07-5.18-.36-9.64-.88-13.39-.05-.26-.07-.46-.07-.6,0-.52,.3-.77,.91-.77h12.55c.59,0,.86,.25,.81,.74l-.04,.63c-.61,10.12-.91,19.08-.91,26.86Z"/><path class="cls-2" d="M245.92,437.11c0,2.67-.11,6.69-.33,12.04s-.33,9.38-.33,12.08v23.17c0,.63-.34,.95-1.02,.95-.56,0-1.41,.02-2.55,.07-1.14,.05-1.99,.07-2.55,.07-.61,0-1.52-.05-2.74-.14-1.22-.09-2.13-.14-2.74-.14-.42,0-.93-.39-1.51-1.16-1.69-2.27-5.48-7.31-11.39-15.12-1.62-2.18-4.08-5.39-7.38-9.63-.09-.14-.27-.28-.53-.42-.19,.16-.28,.42-.28,.77,0,2.72,.08,6.8,.23,12.23,.15,5.44,.23,9.52,.23,12.23,0,.82-.32,1.23-.95,1.23h-12.16c-.68,0-1.02-.36-1.02-1.09,0-2.53,.12-6.35,.37-11.46s.37-8.94,.37-11.5c0-2.7-.11-6.73-.33-12.09-.22-5.37-.33-9.39-.33-12.06,0-.52,.46-.77,1.37-.77,1.36,0,3.04-.09,5.03-.28,.47-.05,1.39-.2,2.78-.46,1.17-.21,2.1-.32,2.78-.32,.28,0,.71,.4,1.3,1.2l13.11,17.96c1.17,1.62,2.94,3.98,5.31,7.1,.59,.73,1.09,1.09,1.51,1.09,.3,0,.46-.91,.46-2.74,0-2.46-.14-6.16-.4-11.11-.27-4.95-.4-8.66-.4-11.14,0-.87,.25-1.3,.74-1.3,1.41,0,3.53-.06,6.36-.18,2.84-.12,4.96-.18,6.36-.18,.45,0,.67,.36,.67,1.09Z"/><path class="cls-2" d="M284.41,466.25c0,2.37-.76,3.71-2.29,4.04-.26,.05-2.68,.3-7.28,.77-2.77,.3-6.89,.67-12.38,1.09,.33,1.52,1.32,2.68,2.99,3.48,1.36,.66,2.91,.98,4.64,.98,2.09,0,4.18-.56,6.29-1.69l2.67-1.69c.49,.23,1.32,1.43,2.48,3.59s1.74,3.53,1.74,4.11c0,.16-.18,.43-.53,.81-2.86,3.07-7.3,4.61-13.32,4.61-5.58,0-10.08-1.63-13.5-4.89-3.52-3.3-5.27-7.72-5.27-13.25s1.57-9.81,4.71-13.25c3.23-3.56,7.52-5.34,12.87-5.34,4.5,0,8.32,1.64,11.46,4.92s4.71,7.18,4.71,11.71Zm-12.3-2.14c0-1.45-.52-2.73-1.55-3.83s-2.26-1.65-3.69-1.65-2.7,.62-3.66,1.86c-.89,1.15-1.34,2.5-1.34,4.04,0,.63,.33,.95,.98,.95,1.73,0,4.43-.27,8.09-.81,.77-.12,1.16-.3,1.16-.56Z"/><path class="cls-2" d="M311.8,475.04c0,.7-.09,1.77-.26,3.2s-.26,2.48-.26,3.15-.07,1.1-.21,1.28-.53,.46-1.16,.81c-3.02,1.66-6.38,2.5-10.05,2.5-6.77,0-10.16-2.59-10.16-7.77,0-1.55,.06-3.87,.18-6.98s.18-5.43,.18-6.98c0-1.03-.6-1.55-1.79-1.55h-.46c-.21,.02-.36,.04-.46,.04-.89,0-1.34-.32-1.34-.95,0-.38,.03-.95,.09-1.72s.09-1.35,.09-1.72c0-.49-.03-1.24-.09-2.25s-.09-1.76-.09-2.25,.75-.73,2.25-.77c.84-.02,1.3-.26,1.37-.7,.14-.89,.19-2.3,.14-4.22-.09-3.02-.14-4.46-.14-4.32,0-2.72,.26-4.08,.77-4.08,.63,0,1.54,.14,2.71,.42,1.34,.3,2.26,.48,2.78,.53,1.2,.16,3,.39,5.41,.67,.59,.05,.88,.25,.88,.6,0,.94-.08,2.36-.23,4.25s-.23,3.33-.23,4.29c0,1.15,.34,1.72,1.02,1.72,.82,0,2.06-.04,3.73-.11s2.92-.11,3.76-.11c.52,0,.77,.18,.77,.53,0,.54-.06,1.35-.18,2.43s-.18,1.89-.18,2.43,.01,1.38,.04,2.46,.04,1.9,.04,2.46c0,.49-.34,.74-1.02,.74-.47,0-1.25-.02-2.36-.05s-1.89-.05-2.36-.05h-2.64c-.35,0-.53,.52-.53,1.55v2.5c.02,1.12,.04,1.96,.04,2.5,0,1.97,.22,3.33,.67,4.08,.63,1.01,1.88,1.51,3.73,1.51,.59,0,1.42-.13,2.51-.4s1.86-.4,2.3-.4c.49,0,.74,.26,.74,.77Z"/><path class="cls-2" d="M365.94,460.73c0,3.66-.29,6.2-.88,7.63-.61,1.5-2.13,4.29-4.57,8.37-2.48,4.2-4.2,6.8-5.13,7.8-.63,.68-2.18,1.02-4.64,1.02-2.04,0-3.33-.07-3.87-.21-.45-.12-.86-.35-1.23-.7-1.34-1.31-3.4-4.54-6.19-9.67-2.95,5.27-4.97,8.5-6.05,9.67-.56,.61-2.1,.91-4.61,.91-1.78,0-2.93-.07-3.45-.21-1.17-.33-3.15-2.87-5.94-7.63-2.27-3.89-3.9-7.01-4.89-9.35-.61-1.5-.91-4.04-.91-7.63,0-4.34,.12-6.98,.35-7.95,.16-.61,.57-.91,1.23-.91,1.08,0,2.7,.04,4.85,.11s3.77,.11,4.85,.11c.54,0,.81,.39,.81,1.16,0,.68-.02,1.72-.07,3.11s-.07,2.43-.07,3.11c0,2.84,.07,4.93,.21,6.29,.05,.52,.67,1.83,1.88,3.96s1.95,3.18,2.23,3.18c.42,0,1.2-1.04,2.32-3.13,.91-1.76,1.51-3.06,1.79-3.92s.42-2.97,.42-6.35c0-.7-.06-1.75-.19-3.15s-.19-2.43-.19-3.11c0-.73,.27-1.09,.81-1.09,.66,0,1.96-.01,3.9-.04l1.44-.04s-.06,0-.12-.02-.08,0-.05,.02h1.16c.89-.02,2.19,0,3.9,.07,.52,.07,.77,.43,.77,1.09,0,.89-.06,2.24-.18,4.06s-.18,3.17-.18,4.06c0,2.39,.09,3.9,.28,4.54,.26,.8,.82,2.07,1.69,3.83,1.05,2.11,1.79,3.16,2.21,3.16s1.21-1.07,2.36-3.2c1.1-2.04,1.69-3.38,1.76-4.01,.09-.89,.14-5.04,.14-12.45,0-.82,.23-1.23,.7-1.23,1.08,0,2.7-.04,4.87-.11s3.79-.11,4.87-.11c.63,0,1.03,.33,1.2,.98,.26,.98,.39,3.63,.39,7.95Z"/><path class="cls-2" d="M403.8,468.04c0,5.34-1.63,9.68-4.9,13.01s-7.56,4.99-12.88,4.99-9.4-1.64-12.73-4.92-4.99-7.5-4.99-12.66c0-5.44,1.59-9.85,4.78-13.24s7.5-5.08,12.94-5.08,9.59,1.66,12.87,4.97,4.92,7.62,4.92,12.92Zm-11.53,0c0-1.85-.57-3.49-1.72-4.9s-2.64-2.13-4.46-2.13-3.38,.73-4.57,2.18c-1.12,1.36-1.69,2.98-1.69,4.85s.56,3.53,1.69,4.89c1.2,1.45,2.72,2.18,4.57,2.18s3.34-.73,4.54-2.18c1.1-1.36,1.65-2.99,1.65-4.89Z"/><path class="cls-2" d="M431.37,463.44c0,.91-.5,1.37-1.51,1.37-.45,0-1.1-.03-1.95-.09s-1.49-.09-1.92-.09c-1.95,0-3.27,.3-3.97,.91s-1.05,1.84-1.05,3.69c0,1.01,.02,2.54,.05,4.59s.05,3.58,.05,4.59c0,.68,.05,1.69,.14,3.04s.14,2.35,.14,3.01c0,.56-.39,.88-1.16,.95-1.12,.09-2.85,.14-5.17,.14s-4.01-.07-5.34-.21c-.77-.09-1.16-.48-1.16-1.16,0-1.88,.01-4.68,.04-8.42s.04-6.54,.04-8.42c0-5.51-.5-10.04-1.51-13.61-.05-.21-.07-.39-.07-.53,0-.35,.18-.59,.53-.7,1.29-.14,3.18-.4,5.66-.77,3.7-.73,5.61-1.09,5.73-1.09,.42,0,.69,.74,.81,2.21s.33,2.21,.63,2.21c-.33,0,.63-.62,2.88-1.85s4.42-1.85,6.5-1.85c1.31,0,1.97,.28,1.97,.84,0,.68-.07,1.64-.21,2.88-.14,1.34-.22,2.3-.25,2.88,0,.68,.01,1.58,.04,2.71,.05,1.38,.07,2.3,.07,2.74Z"/><path class="cls-2" d="M474.54,462.38c0,5.18-2.54,9.12-7.63,11.81-.47,.23-.7,.48-.7,.74,0,.4,1.09,2.06,3.27,4.97s3.27,4.45,3.27,4.59c0,.63-3.11,.95-9.32,.95-2.39,0-3.77-.3-4.15-.91-.94-1.57-2.4-3.82-4.39-6.75-.12-.14-2.23-.3-6.33-.49,0,.73,.01,1.89,.04,3.48s.04,2.78,.04,3.55c0,.7-.34,1.09-1.02,1.16-.42,.05-2.27,.07-5.55,.07-2.84,0-4.49-.05-4.96-.14-.63-.12-.95-.6-.95-1.44v-21.52c0-2.88-.11-7.2-.32-12.94s-.32-10.04-.32-12.9c0-.56,.32-.86,.95-.88,1.24,0,3.11-.02,5.59-.07,.66-.05,1.79-.19,3.41-.42,1.43-.21,2.55-.32,3.38-.32,.38,0,.56,.34,.56,1.02,0,.89-.07,2.1-.21,3.62-.16,1.78-.26,3-.28,3.66-.21,5.04-.32,8.94-.32,11.71,0,.66,.08,1,.25,1.02,.21-.14,.49-.4,.84-.77,3.05-3.16,6.75-4.75,11.11-4.75,4.1,0,7.36,.94,9.77,2.81,2.65,2.09,3.97,5.13,3.97,9.14Zm-13.96,2.29c0-2.84-1.61-4.25-4.82-4.25-1.43,0-2.95,.54-4.57,1.62-1.73,1.15-2.6,2.4-2.6,3.76,0,1.95,.27,3.12,.81,3.52,.42,.28,1.77,.42,4.04,.42,4.76,0,7.14-1.69,7.14-5.06Z"/></g><g><path class="cls-6" d="M397.04,244.62c-.75-6.68-1.82-13.37-3.38-19.92-1.55-6.52-3.27-13-5.55-19.31-.61-1.7-1.21-3.4-1.87-5.08-.19-.49-.39-.98-.59-1.47-.12-.29-.67-1.17-.61-1.46-8.5,37.14-19.72,72.08-41.15,103.74-8.95-20.1-19.97-27.43-35.35-24.34-12.04,2.45-21.89,13.7-22.57,25.45-.55,7.2,1.51,14.36,5.79,20.18,5.77,7.9,14.09,10.96,24.93,11.73-29.98,29.85-64.76,48.56-103.9,59.85,25.15,2.94,50.02,3.37,74.72-1.43,20.05-3.9,39.12-10.41,56.18-22,6.14-4.17,11.91-8.87,17.2-14.08s9.84-10.64,13.98-16.57c4.16-5.96,7.76-12.3,10.83-18.88,3.63-7.79,6.73-15.91,8.65-24.3,1.67-7.35,3-14.95,3.63-22.46,.11-1.35,.19-2.71,.24-4.07,.05-1.74,.04-3.48,.04-5.23-.06-4.55-.23-9.1-.58-13.64-.17-2.24-.38-4.49-.63-6.73Z"/><path class="cls-1" d="M242.72,367.73c6.13-2.76,12.17-5.83,17.92-9.32,5.73-3.47,11.38-7.09,16.68-11.19,1.43-1.1,2.87-2.19,4.26-3.34,.41-.33,.81-.67,1.21-1.01,.24-.2,.91-1,1.2-1.02-37.96,3.29-74.66,3.32-111.36-7.38,16.39-14.68,19.99-27.41,12.34-41.11-6.02-10.71-19.75-16.64-31.14-13.69-7.02,1.68-13.21,5.83-17.43,11.7-5.75,7.91-6.12,16.77-3.53,27.33-37.6-19.39-66.07-46.76-88.81-80.56,4.91,24.84,12.12,48.65,24.26,70.69,9.86,17.89,21.9,34.05,38.16,46.74,5.85,4.56,12.09,8.62,18.67,12.06,6.42,3.35,13.14,6.1,20.06,8.23,6.95,2.13,14.08,3.62,21.29,4.52,8.53,1.07,17.2,1.54,25.78,.78,7.51-.66,15.15-1.72,22.49-3.43,1.32-.31,2.64-.65,3.95-1.02,1.68-.48,3.33-1.03,4.99-1.56,4.31-1.45,8.59-3.01,12.81-4.73,2.08-.85,4.15-1.74,6.21-2.67Z"/><path class="cls-5" d="M77.98,260.89c4.53,4.97,9.32,9.76,14.42,14.14,5.08,4.37,10.28,8.61,15.82,12.38,1.49,1.01,2.97,2.04,4.49,3.01,.44,.28,.89,.56,1.34,.84,.27,.17,1.23,.55,1.35,.83-14.91-35.06-26.34-69.93-27.56-108.15,19.04,11.02,32.27,10.49,42.91-1.04,8.31-9.05,9.68-23.94,3.34-33.85-3.78-6.15-9.65-10.75-16.53-12.94-9.31-3.01-17.84-.6-27.07,5.13,6.76-41.76,23.94-77.32,49-109.44-22.09,12.38-42.48,26.63-59.66,45.01-13.95,14.92-25.57,31.39-32.58,50.78-2.52,6.98-4.44,14.17-5.66,21.49-1.19,7.14-1.72,14.38-1.59,21.62,.13,7.27,.93,14.51,2.31,21.65,1.64,8.44,3.88,16.83,7.26,24.75,2.96,6.93,6.34,13.87,10.25,20.31,.7,1.16,1.44,2.31,2.2,3.43,.98,1.44,2.01,2.85,3.03,4.26,2.72,3.65,5.53,7.23,8.47,10.7,1.46,1.72,2.94,3.41,4.46,5.07Z"/><path class="cls-7" d="M129.74,71.06c-3.3,5.86-6.34,11.91-8.9,18.13-2.55,6.19-4.95,12.46-6.79,18.91-.49,1.73-1.01,3.46-1.45,5.21-.13,.51-.25,1.02-.38,1.53-.07,.3-.14,1.34-.36,1.54,28.61-25.17,58.13-46.96,94.03-60.12-4.49,21.54,.17,33.93,14.45,40.41,11.2,5.05,25.77,1.68,33.19-7.46,4.66-5.52,7.17-12.53,7.1-19.76-.06-9.78-5.03-17.13-13.37-24.09,41.77-6.69,80.93-1.54,119.29,12.17-18.69-17.09-38.61-31.97-61.46-42.52C286.54,6.48,267.26,.62,246.65,.05c-7.42-.2-14.85,.23-22.18,1.37-7.15,1.11-14.2,2.88-21.03,5.28-6.86,2.41-13.49,5.44-19.83,8.99-7.5,4.2-14.76,8.97-21.22,14.66-5.65,4.98-11.17,10.37-16.07,16.11-.88,1.03-1.74,2.09-2.57,3.17-1.06,1.38-2.07,2.8-3.09,4.22-2.61,3.72-5.13,7.52-7.5,11.4-1.17,1.92-2.31,3.86-3.42,5.83Z"/><path class="cls-4" d="M327.83,60.15c-6.57-1.43-13.25-2.57-19.95-3.2-6.67-.62-13.36-1.08-20.06-.95-1.8,.04-3.61,.05-5.41,.14-.53,.03-1.05,.06-1.58,.09-.31,.02-1.33,.26-1.58,.11,32.44,19.98,61.93,41.83,85.03,72.29-21.91,2.02-32.39,10.1-34.4,25.66-1.55,12.19,5.94,25.13,16.85,29.55,6.65,2.83,14.09,3.19,20.97,1,9.33-2.93,14.9-9.82,19.12-19.84,18.64,37.98,25.19,76.93,23.31,117.62,10.86-22.87,19.26-46.29,22.64-71.22,2.75-20.24,2.71-40.39-2.79-60.27-1.98-7.15-4.57-14.13-7.81-20.81-3.15-6.51-6.91-12.73-11.2-18.56-4.31-5.85-9.15-11.3-14.4-16.32-6.22-5.94-12.9-11.49-20.23-15.99-6.42-3.94-13.19-7.64-20.11-10.65-1.25-.54-2.51-1.05-3.78-1.53-1.63-.61-3.29-1.16-4.94-1.72-4.33-1.41-8.69-2.7-13.1-3.83-2.18-.56-4.37-1.08-6.57-1.56Z"/></g></svg>